<?xml version="1.0" encoding="utf-8" standalone="no"?>
<!DOCTYPE svg PUBLIC "-//W3C//DTD SVG 1.1//EN"
  "http://www.w3.org/Graphics/SVG/1.1/DTD/svg11.dtd">
<svg height="576pt" version="1.1" viewBox="0 0 288 576" width="288pt" xmlns="http://www.w3.org/2000/svg" xmlns:xlink="http://www.w3.org/1999/xlink">
 <metadata>
  <rdf:RDF xmlns:cc="http://creativecommons.org/ns#" xmlns:dc="http://purl.org/dc/elements/1.1/" xmlns:rdf="http://www.w3.org/1999/02/22-rdf-syntax-ns#">
   <cc:Work>
    <dc:type rdf:resource="http://purl.org/dc/dcmitype/StillImage"/>
    <dc:date>2021-07-11T23:07:01.889336</dc:date>
    <dc:format>image/svg+xml</dc:format>
    <dc:creator>
     <cc:Agent>
      <dc:title>Matplotlib v3.4.2, https://matplotlib.org/</dc:title>
     </cc:Agent>
    </dc:creator>
   </cc:Work>
  </rdf:RDF>
 </metadata>
 <defs>
  <style type="text/css">*{stroke-linecap:butt;stroke-linejoin:round;}</style>
 </defs>
 <g id="figure_1">
  <g id="patch_1">
   <path d="M 0 576 
L 288 576 
L 288 0 
L 0 0 
z
" style="fill:#ffffff;"/>
  </g>
  <g id="axes_1">
   <g id="patch_2">
    <path d="M 36 270.72 
L 259.2 270.72 
L 259.2 69.12 
L 36 69.12 
z
" style="fill:#ffffff;"/>
   </g>
   <g id="matplotlib.axis_1">
    <g id="xtick_1">
     <g id="line2d_1">
      <defs>
       <path d="M 0 0 
L 0 3.5 
" id="mfbbd511f1e" style="stroke:#000000;stroke-width:0.8;"/>
      </defs>
      <g>
       <use style="stroke:#000000;stroke-width:0.8;" x="46.145455" xlink:href="#mfbbd511f1e" y="270.72"/>
      </g>
     </g>
     <g id="text_1">
      <!-- 0 -->
      <g transform="translate(42.964205 285.318437)scale(0.1 -0.1)">
       <defs>
        <path d="M 2034 4250 
Q 1547 4250 1301 3770 
Q 1056 3291 1056 2328 
Q 1056 1369 1301 889 
Q 1547 409 2034 409 
Q 2525 409 2770 889 
Q 3016 1369 3016 2328 
Q 3016 3291 2770 3770 
Q 2525 4250 2034 4250 
z
M 2034 4750 
Q 2819 4750 3233 4129 
Q 3647 3509 3647 2328 
Q 3647 1150 3233 529 
Q 2819 -91 2034 -91 
Q 1250 -91 836 529 
Q 422 1150 422 2328 
Q 422 3509 836 4129 
Q 1250 4750 2034 4750 
z
" id="DejaVuSans-30" transform="scale(0.015625)"/>
       </defs>
       <use xlink:href="#DejaVuSans-30"/>
      </g>
     </g>
    </g>
    <g id="xtick_2">
     <g id="line2d_2">
      <g>
       <use style="stroke:#000000;stroke-width:0.8;" x="91.236364" xlink:href="#mfbbd511f1e" y="270.72"/>
      </g>
     </g>
     <g id="text_2">
      <!-- 1 -->
      <g transform="translate(88.055114 285.318437)scale(0.1 -0.1)">
       <defs>
        <path d="M 794 531 
L 1825 531 
L 1825 4091 
L 703 3866 
L 703 4441 
L 1819 4666 
L 2450 4666 
L 2450 531 
L 3481 531 
L 3481 0 
L 794 0 
L 794 531 
z
" id="DejaVuSans-31" transform="scale(0.015625)"/>
       </defs>
       <use xlink:href="#DejaVuSans-31"/>
      </g>
     </g>
    </g>
    <g id="xtick_3">
     <g id="line2d_3">
      <g>
       <use style="stroke:#000000;stroke-width:0.8;" x="136.327273" xlink:href="#mfbbd511f1e" y="270.72"/>
      </g>
     </g>
     <g id="text_3">
      <!-- 2 -->
      <g transform="translate(133.146023 285.318437)scale(0.1 -0.1)">
       <defs>
        <path d="M 1228 531 
L 3431 531 
L 3431 0 
L 469 0 
L 469 531 
Q 828 903 1448 1529 
Q 2069 2156 2228 2338 
Q 2531 2678 2651 2914 
Q 2772 3150 2772 3378 
Q 2772 3750 2511 3984 
Q 2250 4219 1831 4219 
Q 1534 4219 1204 4116 
Q 875 4013 500 3803 
L 500 4441 
Q 881 4594 1212 4672 
Q 1544 4750 1819 4750 
Q 2544 4750 2975 4387 
Q 3406 4025 3406 3419 
Q 3406 3131 3298 2873 
Q 3191 2616 2906 2266 
Q 2828 2175 2409 1742 
Q 1991 1309 1228 531 
z
" id="DejaVuSans-32" transform="scale(0.015625)"/>
       </defs>
       <use xlink:href="#DejaVuSans-32"/>
      </g>
     </g>
    </g>
    <g id="xtick_4">
     <g id="line2d_4">
      <g>
       <use style="stroke:#000000;stroke-width:0.8;" x="181.418182" xlink:href="#mfbbd511f1e" y="270.72"/>
      </g>
     </g>
     <g id="text_4">
      <!-- 3 -->
      <g transform="translate(178.236932 285.318437)scale(0.1 -0.1)">
       <defs>
        <path d="M 2597 2516 
Q 3050 2419 3304 2112 
Q 3559 1806 3559 1356 
Q 3559 666 3084 287 
Q 2609 -91 1734 -91 
Q 1441 -91 1130 -33 
Q 819 25 488 141 
L 488 750 
Q 750 597 1062 519 
Q 1375 441 1716 441 
Q 2309 441 2620 675 
Q 2931 909 2931 1356 
Q 2931 1769 2642 2001 
Q 2353 2234 1838 2234 
L 1294 2234 
L 1294 2753 
L 1863 2753 
Q 2328 2753 2575 2939 
Q 2822 3125 2822 3475 
Q 2822 3834 2567 4026 
Q 2313 4219 1838 4219 
Q 1578 4219 1281 4162 
Q 984 4106 628 3988 
L 628 4550 
Q 988 4650 1302 4700 
Q 1616 4750 1894 4750 
Q 2613 4750 3031 4423 
Q 3450 4097 3450 3541 
Q 3450 3153 3228 2886 
Q 3006 2619 2597 2516 
z
" id="DejaVuSans-33" transform="scale(0.015625)"/>
       </defs>
       <use xlink:href="#DejaVuSans-33"/>
      </g>
     </g>
    </g>
    <g id="xtick_5">
     <g id="line2d_5">
      <g>
       <use style="stroke:#000000;stroke-width:0.8;" x="226.509091" xlink:href="#mfbbd511f1e" y="270.72"/>
      </g>
     </g>
     <g id="text_5">
      <!-- 4 -->
      <g transform="translate(223.327841 285.318437)scale(0.1 -0.1)">
       <defs>
        <path d="M 2419 4116 
L 825 1625 
L 2419 1625 
L 2419 4116 
z
M 2253 4666 
L 3047 4666 
L 3047 1625 
L 3713 1625 
L 3713 1100 
L 3047 1100 
L 3047 0 
L 2419 0 
L 2419 1100 
L 313 1100 
L 313 1709 
L 2253 4666 
z
" id="DejaVuSans-34" transform="scale(0.015625)"/>
       </defs>
       <use xlink:href="#DejaVuSans-34"/>
      </g>
     </g>
    </g>
    <g id="text_6">
     <!-- 1e6 -->
     <g transform="translate(240.321875 297.996562)scale(0.1 -0.1)">
      <defs>
       <path d="M 3597 1894 
L 3597 1613 
L 953 1613 
Q 991 1019 1311 708 
Q 1631 397 2203 397 
Q 2534 397 2845 478 
Q 3156 559 3463 722 
L 3463 178 
Q 3153 47 2828 -22 
Q 2503 -91 2169 -91 
Q 1331 -91 842 396 
Q 353 884 353 1716 
Q 353 2575 817 3079 
Q 1281 3584 2069 3584 
Q 2775 3584 3186 3129 
Q 3597 2675 3597 1894 
z
M 3022 2063 
Q 3016 2534 2758 2815 
Q 2500 3097 2075 3097 
Q 1594 3097 1305 2825 
Q 1016 2553 972 2059 
L 3022 2063 
z
" id="DejaVuSans-65" transform="scale(0.015625)"/>
       <path d="M 2113 2584 
Q 1688 2584 1439 2293 
Q 1191 2003 1191 1497 
Q 1191 994 1439 701 
Q 1688 409 2113 409 
Q 2538 409 2786 701 
Q 3034 994 3034 1497 
Q 3034 2003 2786 2293 
Q 2538 2584 2113 2584 
z
M 3366 4563 
L 3366 3988 
Q 3128 4100 2886 4159 
Q 2644 4219 2406 4219 
Q 1781 4219 1451 3797 
Q 1122 3375 1075 2522 
Q 1259 2794 1537 2939 
Q 1816 3084 2150 3084 
Q 2853 3084 3261 2657 
Q 3669 2231 3669 1497 
Q 3669 778 3244 343 
Q 2819 -91 2113 -91 
Q 1303 -91 875 529 
Q 447 1150 447 2328 
Q 447 3434 972 4092 
Q 1497 4750 2381 4750 
Q 2619 4750 2861 4703 
Q 3103 4656 3366 4563 
z
" id="DejaVuSans-36" transform="scale(0.015625)"/>
      </defs>
      <use xlink:href="#DejaVuSans-31"/>
      <use x="63.623047" xlink:href="#DejaVuSans-65"/>
      <use x="125.146484" xlink:href="#DejaVuSans-36"/>
     </g>
    </g>
   </g>
   <g id="matplotlib.axis_2">
    <g id="ytick_1">
     <g id="line2d_6">
      <defs>
       <path d="M 0 0 
L -3.5 0 
" id="m3394595f08" style="stroke:#000000;stroke-width:0.8;"/>
      </defs>
      <g>
       <use style="stroke:#000000;stroke-width:0.8;" x="36" xlink:href="#m3394595f08" y="258.509658"/>
      </g>
     </g>
     <g id="text_7">
      <!-- −20000 -->
      <g transform="translate(-11.192188 262.308877)scale(0.1 -0.1)">
       <defs>
        <path d="M 678 2272 
L 4684 2272 
L 4684 1741 
L 678 1741 
L 678 2272 
z
" id="DejaVuSans-2212" transform="scale(0.015625)"/>
       </defs>
       <use xlink:href="#DejaVuSans-2212"/>
       <use x="83.789062" xlink:href="#DejaVuSans-32"/>
       <use x="147.412109" xlink:href="#DejaVuSans-30"/>
       <use x="211.035156" xlink:href="#DejaVuSans-30"/>
       <use x="274.658203" xlink:href="#DejaVuSans-30"/>
       <use x="338.28125" xlink:href="#DejaVuSans-30"/>
      </g>
     </g>
    </g>
    <g id="ytick_2">
     <g id="line2d_7">
      <g>
       <use style="stroke:#000000;stroke-width:0.8;" x="36" xlink:href="#m3394595f08" y="228.845732"/>
      </g>
     </g>
     <g id="text_8">
      <!-- −15000 -->
      <g transform="translate(-11.192188 232.644951)scale(0.1 -0.1)">
       <defs>
        <path d="M 691 4666 
L 3169 4666 
L 3169 4134 
L 1269 4134 
L 1269 2991 
Q 1406 3038 1543 3061 
Q 1681 3084 1819 3084 
Q 2600 3084 3056 2656 
Q 3513 2228 3513 1497 
Q 3513 744 3044 326 
Q 2575 -91 1722 -91 
Q 1428 -91 1123 -41 
Q 819 9 494 109 
L 494 744 
Q 775 591 1075 516 
Q 1375 441 1709 441 
Q 2250 441 2565 725 
Q 2881 1009 2881 1497 
Q 2881 1984 2565 2268 
Q 2250 2553 1709 2553 
Q 1456 2553 1204 2497 
Q 953 2441 691 2322 
L 691 4666 
z
" id="DejaVuSans-35" transform="scale(0.015625)"/>
       </defs>
       <use xlink:href="#DejaVuSans-2212"/>
       <use x="83.789062" xlink:href="#DejaVuSans-31"/>
       <use x="147.412109" xlink:href="#DejaVuSans-35"/>
       <use x="211.035156" xlink:href="#DejaVuSans-30"/>
       <use x="274.658203" xlink:href="#DejaVuSans-30"/>
       <use x="338.28125" xlink:href="#DejaVuSans-30"/>
      </g>
     </g>
    </g>
    <g id="ytick_3">
     <g id="line2d_8">
      <g>
       <use style="stroke:#000000;stroke-width:0.8;" x="36" xlink:href="#m3394595f08" y="199.181806"/>
      </g>
     </g>
     <g id="text_9">
      <!-- −10000 -->
      <g transform="translate(-11.192188 202.981025)scale(0.1 -0.1)">
       <use xlink:href="#DejaVuSans-2212"/>
       <use x="83.789062" xlink:href="#DejaVuSans-31"/>
       <use x="147.412109" xlink:href="#DejaVuSans-30"/>
       <use x="211.035156" xlink:href="#DejaVuSans-30"/>
       <use x="274.658203" xlink:href="#DejaVuSans-30"/>
       <use x="338.28125" xlink:href="#DejaVuSans-30"/>
      </g>
     </g>
    </g>
    <g id="ytick_4">
     <g id="line2d_9">
      <g>
       <use style="stroke:#000000;stroke-width:0.8;" x="36" xlink:href="#m3394595f08" y="169.51788"/>
      </g>
     </g>
     <g id="text_10">
      <!-- −5000 -->
      <g transform="translate(-4.829687 173.317099)scale(0.1 -0.1)">
       <use xlink:href="#DejaVuSans-2212"/>
       <use x="83.789062" xlink:href="#DejaVuSans-35"/>
       <use x="147.412109" xlink:href="#DejaVuSans-30"/>
       <use x="211.035156" xlink:href="#DejaVuSans-30"/>
       <use x="274.658203" xlink:href="#DejaVuSans-30"/>
      </g>
     </g>
    </g>
    <g id="ytick_5">
     <g id="line2d_10">
      <g>
       <use style="stroke:#000000;stroke-width:0.8;" x="36" xlink:href="#m3394595f08" y="139.853954"/>
      </g>
     </g>
     <g id="text_11">
      <!-- 0 -->
      <g transform="translate(22.6375 143.653173)scale(0.1 -0.1)">
       <use xlink:href="#DejaVuSans-30"/>
      </g>
     </g>
    </g>
    <g id="ytick_6">
     <g id="line2d_11">
      <g>
       <use style="stroke:#000000;stroke-width:0.8;" x="36" xlink:href="#m3394595f08" y="110.190028"/>
      </g>
     </g>
     <g id="text_12">
      <!-- 5000 -->
      <g transform="translate(3.55 113.989247)scale(0.1 -0.1)">
       <use xlink:href="#DejaVuSans-35"/>
       <use x="63.623047" xlink:href="#DejaVuSans-30"/>
       <use x="127.246094" xlink:href="#DejaVuSans-30"/>
       <use x="190.869141" xlink:href="#DejaVuSans-30"/>
      </g>
     </g>
    </g>
    <g id="ytick_7">
     <g id="line2d_12">
      <g>
       <use style="stroke:#000000;stroke-width:0.8;" x="36" xlink:href="#m3394595f08" y="80.526102"/>
      </g>
     </g>
     <g id="text_13">
      <!-- 10000 -->
      <g transform="translate(-2.8125 84.32532)scale(0.1 -0.1)">
       <use xlink:href="#DejaVuSans-31"/>
       <use x="63.623047" xlink:href="#DejaVuSans-30"/>
       <use x="127.246094" xlink:href="#DejaVuSans-30"/>
       <use x="190.869141" xlink:href="#DejaVuSans-30"/>
       <use x="254.492188" xlink:href="#DejaVuSans-30"/>
      </g>
     </g>
    </g>
    <g id="text_14">
     <!-- Topography (m) -->
     <g transform="translate(-17.271875 209.373906)rotate(-90)scale(0.1 -0.1)">
      <defs>
       <path d="M -19 4666 
L 3928 4666 
L 3928 4134 
L 2272 4134 
L 2272 0 
L 1638 0 
L 1638 4134 
L -19 4134 
L -19 4666 
z
" id="DejaVuSans-54" transform="scale(0.015625)"/>
       <path d="M 1959 3097 
Q 1497 3097 1228 2736 
Q 959 2375 959 1747 
Q 959 1119 1226 758 
Q 1494 397 1959 397 
Q 2419 397 2687 759 
Q 2956 1122 2956 1747 
Q 2956 2369 2687 2733 
Q 2419 3097 1959 3097 
z
M 1959 3584 
Q 2709 3584 3137 3096 
Q 3566 2609 3566 1747 
Q 3566 888 3137 398 
Q 2709 -91 1959 -91 
Q 1206 -91 779 398 
Q 353 888 353 1747 
Q 353 2609 779 3096 
Q 1206 3584 1959 3584 
z
" id="DejaVuSans-6f" transform="scale(0.015625)"/>
       <path d="M 1159 525 
L 1159 -1331 
L 581 -1331 
L 581 3500 
L 1159 3500 
L 1159 2969 
Q 1341 3281 1617 3432 
Q 1894 3584 2278 3584 
Q 2916 3584 3314 3078 
Q 3713 2572 3713 1747 
Q 3713 922 3314 415 
Q 2916 -91 2278 -91 
Q 1894 -91 1617 61 
Q 1341 213 1159 525 
z
M 3116 1747 
Q 3116 2381 2855 2742 
Q 2594 3103 2138 3103 
Q 1681 3103 1420 2742 
Q 1159 2381 1159 1747 
Q 1159 1113 1420 752 
Q 1681 391 2138 391 
Q 2594 391 2855 752 
Q 3116 1113 3116 1747 
z
" id="DejaVuSans-70" transform="scale(0.015625)"/>
       <path d="M 2906 1791 
Q 2906 2416 2648 2759 
Q 2391 3103 1925 3103 
Q 1463 3103 1205 2759 
Q 947 2416 947 1791 
Q 947 1169 1205 825 
Q 1463 481 1925 481 
Q 2391 481 2648 825 
Q 2906 1169 2906 1791 
z
M 3481 434 
Q 3481 -459 3084 -895 
Q 2688 -1331 1869 -1331 
Q 1566 -1331 1297 -1286 
Q 1028 -1241 775 -1147 
L 775 -588 
Q 1028 -725 1275 -790 
Q 1522 -856 1778 -856 
Q 2344 -856 2625 -561 
Q 2906 -266 2906 331 
L 2906 616 
Q 2728 306 2450 153 
Q 2172 0 1784 0 
Q 1141 0 747 490 
Q 353 981 353 1791 
Q 353 2603 747 3093 
Q 1141 3584 1784 3584 
Q 2172 3584 2450 3431 
Q 2728 3278 2906 2969 
L 2906 3500 
L 3481 3500 
L 3481 434 
z
" id="DejaVuSans-67" transform="scale(0.015625)"/>
       <path d="M 2631 2963 
Q 2534 3019 2420 3045 
Q 2306 3072 2169 3072 
Q 1681 3072 1420 2755 
Q 1159 2438 1159 1844 
L 1159 0 
L 581 0 
L 581 3500 
L 1159 3500 
L 1159 2956 
Q 1341 3275 1631 3429 
Q 1922 3584 2338 3584 
Q 2397 3584 2469 3576 
Q 2541 3569 2628 3553 
L 2631 2963 
z
" id="DejaVuSans-72" transform="scale(0.015625)"/>
       <path d="M 2194 1759 
Q 1497 1759 1228 1600 
Q 959 1441 959 1056 
Q 959 750 1161 570 
Q 1363 391 1709 391 
Q 2188 391 2477 730 
Q 2766 1069 2766 1631 
L 2766 1759 
L 2194 1759 
z
M 3341 1997 
L 3341 0 
L 2766 0 
L 2766 531 
Q 2569 213 2275 61 
Q 1981 -91 1556 -91 
Q 1019 -91 701 211 
Q 384 513 384 1019 
Q 384 1609 779 1909 
Q 1175 2209 1959 2209 
L 2766 2209 
L 2766 2266 
Q 2766 2663 2505 2880 
Q 2244 3097 1772 3097 
Q 1472 3097 1187 3025 
Q 903 2953 641 2809 
L 641 3341 
Q 956 3463 1253 3523 
Q 1550 3584 1831 3584 
Q 2591 3584 2966 3190 
Q 3341 2797 3341 1997 
z
" id="DejaVuSans-61" transform="scale(0.015625)"/>
       <path d="M 3513 2113 
L 3513 0 
L 2938 0 
L 2938 2094 
Q 2938 2591 2744 2837 
Q 2550 3084 2163 3084 
Q 1697 3084 1428 2787 
Q 1159 2491 1159 1978 
L 1159 0 
L 581 0 
L 581 4863 
L 1159 4863 
L 1159 2956 
Q 1366 3272 1645 3428 
Q 1925 3584 2291 3584 
Q 2894 3584 3203 3211 
Q 3513 2838 3513 2113 
z
" id="DejaVuSans-68" transform="scale(0.015625)"/>
       <path d="M 2059 -325 
Q 1816 -950 1584 -1140 
Q 1353 -1331 966 -1331 
L 506 -1331 
L 506 -850 
L 844 -850 
Q 1081 -850 1212 -737 
Q 1344 -625 1503 -206 
L 1606 56 
L 191 3500 
L 800 3500 
L 1894 763 
L 2988 3500 
L 3597 3500 
L 2059 -325 
z
" id="DejaVuSans-79" transform="scale(0.015625)"/>
       <path id="DejaVuSans-20" transform="scale(0.015625)"/>
       <path d="M 1984 4856 
Q 1566 4138 1362 3434 
Q 1159 2731 1159 2009 
Q 1159 1288 1364 580 
Q 1569 -128 1984 -844 
L 1484 -844 
Q 1016 -109 783 600 
Q 550 1309 550 2009 
Q 550 2706 781 3412 
Q 1013 4119 1484 4856 
L 1984 4856 
z
" id="DejaVuSans-28" transform="scale(0.015625)"/>
       <path d="M 3328 2828 
Q 3544 3216 3844 3400 
Q 4144 3584 4550 3584 
Q 5097 3584 5394 3201 
Q 5691 2819 5691 2113 
L 5691 0 
L 5113 0 
L 5113 2094 
Q 5113 2597 4934 2840 
Q 4756 3084 4391 3084 
Q 3944 3084 3684 2787 
Q 3425 2491 3425 1978 
L 3425 0 
L 2847 0 
L 2847 2094 
Q 2847 2600 2669 2842 
Q 2491 3084 2119 3084 
Q 1678 3084 1418 2786 
Q 1159 2488 1159 1978 
L 1159 0 
L 581 0 
L 581 3500 
L 1159 3500 
L 1159 2956 
Q 1356 3278 1631 3431 
Q 1906 3584 2284 3584 
Q 2666 3584 2933 3390 
Q 3200 3197 3328 2828 
z
" id="DejaVuSans-6d" transform="scale(0.015625)"/>
       <path d="M 513 4856 
L 1013 4856 
Q 1481 4119 1714 3412 
Q 1947 2706 1947 2009 
Q 1947 1309 1714 600 
Q 1481 -109 1013 -844 
L 513 -844 
Q 928 -128 1133 580 
Q 1338 1288 1338 2009 
Q 1338 2731 1133 3434 
Q 928 4138 513 4856 
z
" id="DejaVuSans-29" transform="scale(0.015625)"/>
      </defs>
      <use xlink:href="#DejaVuSans-54"/>
      <use x="44.083984" xlink:href="#DejaVuSans-6f"/>
      <use x="105.265625" xlink:href="#DejaVuSans-70"/>
      <use x="168.742188" xlink:href="#DejaVuSans-6f"/>
      <use x="229.923828" xlink:href="#DejaVuSans-67"/>
      <use x="293.400391" xlink:href="#DejaVuSans-72"/>
      <use x="334.513672" xlink:href="#DejaVuSans-61"/>
      <use x="395.792969" xlink:href="#DejaVuSans-70"/>
      <use x="459.269531" xlink:href="#DejaVuSans-68"/>
      <use x="522.648438" xlink:href="#DejaVuSans-79"/>
      <use x="581.828125" xlink:href="#DejaVuSans-20"/>
      <use x="613.615234" xlink:href="#DejaVuSans-28"/>
      <use x="652.628906" xlink:href="#DejaVuSans-6d"/>
      <use x="750.041016" xlink:href="#DejaVuSans-29"/>
     </g>
    </g>
   </g>
   <g id="line2d_13">
    <path clip-path="url(#p8ed73258b7)" d="M 46.145455 141.20809 
L 67.281818 141.339338 
L 67.281818 141.339338 
L 101.1 141.874951 
L 101.1 141.874951 
L 124.35 142.119849 
L 143.372727 142.087195 
L 143.372727 142.087195 
L 166.622727 141.783582 
L 232.145455 140.741367 
L 232.145455 140.741367 
L 249.054545 140.678902 
L 249.054545 140.678902 
" style="fill:none;stroke:#1f77b4;stroke-linecap:square;stroke-width:1.5;"/>
   </g>
   <g id="line2d_14">
    <path clip-path="url(#p8ed73258b7)" d="M 46.145455 128.701302 
L 46.673864 128.84418 
L 46.673864 128.84418 
L 47.334375 129.337973 
L 48.126989 130.028306 
L 48.523295 130.08827 
L 48.523295 130.08827 
L 49.315909 130.159288 
L 49.315909 130.159288 
L 50.769034 130.651526 
L 53.675284 131.567343 
L 60.676705 132.727363 
L 60.676705 132.727363 
L 73.094318 134.585734 
L 73.094318 134.585734 
L 94.230682 137.196005 
L 94.230682 137.196005 
L 101.1 138.004772 
L 101.1 138.004772 
L 107.176705 138.69611 
L 107.176705 138.69611 
L 123.953693 140.345008 
L 125.803125 140.83853 
L 130.1625 142.14591 
L 130.1625 142.14591 
L 131.219318 142.10525 
L 131.219318 142.10525 
L 132.144034 141.800424 
L 132.936648 141.303498 
L 133.729261 140.571597 
L 134.653977 139.43936 
L 134.653977 139.43936 
L 136.371307 136.8428 
L 137.428125 135.382185 
L 138.088636 134.760875 
L 138.088636 134.760875 
L 138.617045 134.54715 
L 138.617045 134.54715 
L 139.145455 134.665789 
L 139.145455 134.665789 
L 139.673864 135.195894 
L 139.673864 135.195894 
L 140.202273 136.214136 
L 140.202273 136.214136 
L 140.862784 138.299131 
L 141.391193 140.657251 
L 142.051705 144.528373 
L 142.051705 144.528373 
L 142.97642 151.799694 
L 143.901136 160.986674 
L 143.901136 160.986674 
L 145.486364 179.823852 
L 145.486364 179.823852 
L 147.071591 198.268644 
L 147.071591 198.268644 
L 147.864205 205.172963 
L 147.864205 205.172963 
L 148.392614 208.222942 
L 148.392614 208.222942 
L 148.78892 209.415577 
L 148.921023 209.666156 
L 148.921023 209.666156 
L 149.185227 209.689632 
L 149.185227 209.689632 
L 149.449432 209.198532 
L 149.449432 209.198532 
L 149.845739 207.346367 
L 150.242045 204.296713 
L 150.242045 204.296713 
L 150.770455 197.870545 
L 150.770455 197.870545 
L 151.430966 185.86766 
L 152.091477 169.57894 
L 152.091477 169.57894 
L 153.016193 139.386023 
L 153.544602 116.483673 
L 153.940909 100.199409 
L 153.940909 100.199409 
L 154.205114 99.180696 
L 154.205114 99.180696 
L 154.60142 106.610409 
L 155.394034 128.229013 
L 156.31875 158.816122 
L 156.31875 158.816122 
L 158.564489 248.847063 
L 158.960795 261.556364 
L 159.092898 261.046457 
L 159.225 258.995672 
L 159.225 258.995672 
L 159.885511 236.471244 
L 160.678125 199.774441 
L 162.13125 132.719625 
L 162.13125 132.719625 
L 162.923864 105.70727 
L 162.923864 105.70727 
L 163.584375 90.448256 
L 164.112784 82.803225 
L 164.509091 79.500721 
L 164.509091 79.500721 
L 164.905398 78.384453 
L 165.0375 78.283636 
L 165.0375 78.283636 
L 165.301705 78.81896 
L 165.301705 78.81896 
L 165.698011 80.909137 
L 166.094318 84.092204 
L 166.094318 84.092204 
L 166.886932 93.241938 
L 166.886932 93.241938 
L 170.057386 134.794151 
L 170.057386 134.794151 
L 170.85 141.395592 
L 170.85 141.395592 
L 171.642614 145.841613 
L 171.642614 145.841613 
L 172.303125 148.006781 
L 172.699432 148.764553 
L 172.699432 148.764553 
L 173.227841 149.170804 
L 173.227841 149.170804 
L 173.624148 149.10066 
L 174.020455 148.808429 
L 174.020455 148.808429 
L 174.680966 147.876356 
L 175.47358 146.35243 
L 177.719318 141.873597 
L 177.719318 141.873597 
L 178.644034 140.572003 
L 179.436648 139.792715 
L 180.229261 139.30331 
L 181.021875 139.055377 
L 181.946591 138.990853 
L 181.946591 138.990853 
L 183.399716 139.174362 
L 186.834375 139.698898 
L 188.551705 139.703657 
L 188.551705 139.703657 
L 190.929545 139.455777 
L 190.929545 139.455777 
L 199.384091 138.324757 
L 199.384091 138.324757 
L 206.385511 137.570769 
L 227.521875 134.738071 
L 230.956534 134.156685 
L 235.844318 133.230879 
L 235.844318 133.230879 
L 238.88267 132.748072 
L 240.732102 132.193681 
L 241.921023 131.643687 
L 241.921023 131.643687 
L 242.581534 131.120379 
L 243.109943 130.441636 
L 243.638352 129.411809 
L 244.430966 127.275789 
L 246.808807 119.990292 
L 247.073011 118.540655 
L 247.469318 115.115517 
L 247.469318 115.115517 
L 248.12983 109.07635 
L 248.526136 107.110872 
L 248.526136 107.110872 
L 248.658239 107.324739 
L 248.790341 109.121776 
L 248.790341 109.121776 
L 249.054545 118.695305 
L 249.054545 118.695305 
" style="fill:none;stroke:#ff7f0e;stroke-linecap:square;stroke-width:1.5;"/>
   </g>
   <g id="patch_3">
    <path d="M 36 270.72 
L 36 69.12 
" style="fill:none;stroke:#000000;stroke-linecap:square;stroke-linejoin:miter;stroke-width:0.8;"/>
   </g>
   <g id="patch_4">
    <path d="M 259.2 270.72 
L 259.2 69.12 
" style="fill:none;stroke:#000000;stroke-linecap:square;stroke-linejoin:miter;stroke-width:0.8;"/>
   </g>
   <g id="patch_5">
    <path d="M 36 270.72 
L 259.2 270.72 
" style="fill:none;stroke:#000000;stroke-linecap:square;stroke-linejoin:miter;stroke-width:0.8;"/>
   </g>
   <g id="patch_6">
    <path d="M 36 69.12 
L 259.2 69.12 
" style="fill:none;stroke:#000000;stroke-linecap:square;stroke-linejoin:miter;stroke-width:0.8;"/>
   </g>
   <g id="text_15">
    <!-- Topography -->
    <g transform="translate(112.688437 63.12)scale(0.12 -0.12)">
     <use xlink:href="#DejaVuSans-54"/>
     <use x="44.083984" xlink:href="#DejaVuSans-6f"/>
     <use x="105.265625" xlink:href="#DejaVuSans-70"/>
     <use x="168.742188" xlink:href="#DejaVuSans-6f"/>
     <use x="229.923828" xlink:href="#DejaVuSans-67"/>
     <use x="293.400391" xlink:href="#DejaVuSans-72"/>
     <use x="334.513672" xlink:href="#DejaVuSans-61"/>
     <use x="395.792969" xlink:href="#DejaVuSans-70"/>
     <use x="459.269531" xlink:href="#DejaVuSans-68"/>
     <use x="522.648438" xlink:href="#DejaVuSans-79"/>
    </g>
   </g>
   <g id="legend_1">
    <g id="patch_7">
     <path d="M 43 265.72 
L 188.460938 265.72 
Q 190.460938 265.72 190.460938 263.72 
L 190.460938 235.36375 
Q 190.460938 233.36375 188.460938 233.36375 
L 43 233.36375 
Q 41 233.36375 41 235.36375 
L 41 263.72 
Q 41 265.72 43 265.72 
z
" style="fill:#ffffff;opacity:0.8;stroke:#cccccc;stroke-linejoin:miter;"/>
    </g>
    <g id="line2d_15">
     <path d="M 45 241.462187 
L 65 241.462187 
" style="fill:none;stroke:#1f77b4;stroke-linecap:square;stroke-width:1.5;"/>
    </g>
    <g id="line2d_16"/>
    <g id="text_16">
     <!-- CMB Topography (x10) -->
     <g transform="translate(73 244.962187)scale(0.1 -0.1)">
      <defs>
       <path d="M 4122 4306 
L 4122 3641 
Q 3803 3938 3442 4084 
Q 3081 4231 2675 4231 
Q 1875 4231 1450 3742 
Q 1025 3253 1025 2328 
Q 1025 1406 1450 917 
Q 1875 428 2675 428 
Q 3081 428 3442 575 
Q 3803 722 4122 1019 
L 4122 359 
Q 3791 134 3420 21 
Q 3050 -91 2638 -91 
Q 1578 -91 968 557 
Q 359 1206 359 2328 
Q 359 3453 968 4101 
Q 1578 4750 2638 4750 
Q 3056 4750 3426 4639 
Q 3797 4528 4122 4306 
z
" id="DejaVuSans-43" transform="scale(0.015625)"/>
       <path d="M 628 4666 
L 1569 4666 
L 2759 1491 
L 3956 4666 
L 4897 4666 
L 4897 0 
L 4281 0 
L 4281 4097 
L 3078 897 
L 2444 897 
L 1241 4097 
L 1241 0 
L 628 0 
L 628 4666 
z
" id="DejaVuSans-4d" transform="scale(0.015625)"/>
       <path d="M 1259 2228 
L 1259 519 
L 2272 519 
Q 2781 519 3026 730 
Q 3272 941 3272 1375 
Q 3272 1813 3026 2020 
Q 2781 2228 2272 2228 
L 1259 2228 
z
M 1259 4147 
L 1259 2741 
L 2194 2741 
Q 2656 2741 2882 2914 
Q 3109 3088 3109 3444 
Q 3109 3797 2882 3972 
Q 2656 4147 2194 4147 
L 1259 4147 
z
M 628 4666 
L 2241 4666 
Q 2963 4666 3353 4366 
Q 3744 4066 3744 3513 
Q 3744 3084 3544 2831 
Q 3344 2578 2956 2516 
Q 3422 2416 3680 2098 
Q 3938 1781 3938 1306 
Q 3938 681 3513 340 
Q 3088 0 2303 0 
L 628 0 
L 628 4666 
z
" id="DejaVuSans-42" transform="scale(0.015625)"/>
       <path d="M 3513 3500 
L 2247 1797 
L 3578 0 
L 2900 0 
L 1881 1375 
L 863 0 
L 184 0 
L 1544 1831 
L 300 3500 
L 978 3500 
L 1906 2253 
L 2834 3500 
L 3513 3500 
z
" id="DejaVuSans-78" transform="scale(0.015625)"/>
      </defs>
      <use xlink:href="#DejaVuSans-43"/>
      <use x="69.824219" xlink:href="#DejaVuSans-4d"/>
      <use x="156.103516" xlink:href="#DejaVuSans-42"/>
      <use x="224.707031" xlink:href="#DejaVuSans-20"/>
      <use x="256.494141" xlink:href="#DejaVuSans-54"/>
      <use x="300.578125" xlink:href="#DejaVuSans-6f"/>
      <use x="361.759766" xlink:href="#DejaVuSans-70"/>
      <use x="425.236328" xlink:href="#DejaVuSans-6f"/>
      <use x="486.417969" xlink:href="#DejaVuSans-67"/>
      <use x="549.894531" xlink:href="#DejaVuSans-72"/>
      <use x="591.007812" xlink:href="#DejaVuSans-61"/>
      <use x="652.287109" xlink:href="#DejaVuSans-70"/>
      <use x="715.763672" xlink:href="#DejaVuSans-68"/>
      <use x="779.142578" xlink:href="#DejaVuSans-79"/>
      <use x="838.322266" xlink:href="#DejaVuSans-20"/>
      <use x="870.109375" xlink:href="#DejaVuSans-28"/>
      <use x="909.123047" xlink:href="#DejaVuSans-78"/>
      <use x="968.302734" xlink:href="#DejaVuSans-31"/>
      <use x="1031.925781" xlink:href="#DejaVuSans-30"/>
      <use x="1095.548828" xlink:href="#DejaVuSans-29"/>
     </g>
    </g>
    <g id="line2d_17">
     <path d="M 45 256.140312 
L 65 256.140312 
" style="fill:none;stroke:#ff7f0e;stroke-linecap:square;stroke-width:1.5;"/>
    </g>
    <g id="line2d_18"/>
    <g id="text_17">
     <!-- Surface Topography -->
     <g transform="translate(73 259.640312)scale(0.1 -0.1)">
      <defs>
       <path d="M 3425 4513 
L 3425 3897 
Q 3066 4069 2747 4153 
Q 2428 4238 2131 4238 
Q 1616 4238 1336 4038 
Q 1056 3838 1056 3469 
Q 1056 3159 1242 3001 
Q 1428 2844 1947 2747 
L 2328 2669 
Q 3034 2534 3370 2195 
Q 3706 1856 3706 1288 
Q 3706 609 3251 259 
Q 2797 -91 1919 -91 
Q 1588 -91 1214 -16 
Q 841 59 441 206 
L 441 856 
Q 825 641 1194 531 
Q 1563 422 1919 422 
Q 2459 422 2753 634 
Q 3047 847 3047 1241 
Q 3047 1584 2836 1778 
Q 2625 1972 2144 2069 
L 1759 2144 
Q 1053 2284 737 2584 
Q 422 2884 422 3419 
Q 422 4038 858 4394 
Q 1294 4750 2059 4750 
Q 2388 4750 2728 4690 
Q 3069 4631 3425 4513 
z
" id="DejaVuSans-53" transform="scale(0.015625)"/>
       <path d="M 544 1381 
L 544 3500 
L 1119 3500 
L 1119 1403 
Q 1119 906 1312 657 
Q 1506 409 1894 409 
Q 2359 409 2629 706 
Q 2900 1003 2900 1516 
L 2900 3500 
L 3475 3500 
L 3475 0 
L 2900 0 
L 2900 538 
Q 2691 219 2414 64 
Q 2138 -91 1772 -91 
Q 1169 -91 856 284 
Q 544 659 544 1381 
z
M 1991 3584 
L 1991 3584 
z
" id="DejaVuSans-75" transform="scale(0.015625)"/>
       <path d="M 2375 4863 
L 2375 4384 
L 1825 4384 
Q 1516 4384 1395 4259 
Q 1275 4134 1275 3809 
L 1275 3500 
L 2222 3500 
L 2222 3053 
L 1275 3053 
L 1275 0 
L 697 0 
L 697 3053 
L 147 3053 
L 147 3500 
L 697 3500 
L 697 3744 
Q 697 4328 969 4595 
Q 1241 4863 1831 4863 
L 2375 4863 
z
" id="DejaVuSans-66" transform="scale(0.015625)"/>
       <path d="M 3122 3366 
L 3122 2828 
Q 2878 2963 2633 3030 
Q 2388 3097 2138 3097 
Q 1578 3097 1268 2742 
Q 959 2388 959 1747 
Q 959 1106 1268 751 
Q 1578 397 2138 397 
Q 2388 397 2633 464 
Q 2878 531 3122 666 
L 3122 134 
Q 2881 22 2623 -34 
Q 2366 -91 2075 -91 
Q 1284 -91 818 406 
Q 353 903 353 1747 
Q 353 2603 823 3093 
Q 1294 3584 2113 3584 
Q 2378 3584 2631 3529 
Q 2884 3475 3122 3366 
z
" id="DejaVuSans-63" transform="scale(0.015625)"/>
      </defs>
      <use xlink:href="#DejaVuSans-53"/>
      <use x="63.476562" xlink:href="#DejaVuSans-75"/>
      <use x="126.855469" xlink:href="#DejaVuSans-72"/>
      <use x="167.96875" xlink:href="#DejaVuSans-66"/>
      <use x="203.173828" xlink:href="#DejaVuSans-61"/>
      <use x="264.453125" xlink:href="#DejaVuSans-63"/>
      <use x="319.433594" xlink:href="#DejaVuSans-65"/>
      <use x="380.957031" xlink:href="#DejaVuSans-20"/>
      <use x="412.744141" xlink:href="#DejaVuSans-54"/>
      <use x="456.828125" xlink:href="#DejaVuSans-6f"/>
      <use x="518.009766" xlink:href="#DejaVuSans-70"/>
      <use x="581.486328" xlink:href="#DejaVuSans-6f"/>
      <use x="642.667969" xlink:href="#DejaVuSans-67"/>
      <use x="706.144531" xlink:href="#DejaVuSans-72"/>
      <use x="747.257812" xlink:href="#DejaVuSans-61"/>
      <use x="808.537109" xlink:href="#DejaVuSans-70"/>
      <use x="872.013672" xlink:href="#DejaVuSans-68"/>
      <use x="935.392578" xlink:href="#DejaVuSans-79"/>
     </g>
    </g>
   </g>
  </g>
  <g id="axes_2">
   <g id="patch_8">
    <path d="M 36 512.64 
L 259.2 512.64 
L 259.2 311.04 
L 36 311.04 
z
" style="fill:#ffffff;"/>
   </g>
   <g id="matplotlib.axis_3">
    <g id="xtick_6">
     <g id="line2d_19">
      <g>
       <use style="stroke:#000000;stroke-width:0.8;" x="46.145455" xlink:href="#mfbbd511f1e" y="512.64"/>
      </g>
     </g>
     <g id="text_18">
      <!-- 0 -->
      <g transform="translate(42.964205 527.238438)scale(0.1 -0.1)">
       <use xlink:href="#DejaVuSans-30"/>
      </g>
     </g>
    </g>
    <g id="xtick_7">
     <g id="line2d_20">
      <g>
       <use style="stroke:#000000;stroke-width:0.8;" x="91.236364" xlink:href="#mfbbd511f1e" y="512.64"/>
      </g>
     </g>
     <g id="text_19">
      <!-- 1 -->
      <g transform="translate(88.055114 527.238438)scale(0.1 -0.1)">
       <use xlink:href="#DejaVuSans-31"/>
      </g>
     </g>
    </g>
    <g id="xtick_8">
     <g id="line2d_21">
      <g>
       <use style="stroke:#000000;stroke-width:0.8;" x="136.327273" xlink:href="#mfbbd511f1e" y="512.64"/>
      </g>
     </g>
     <g id="text_20">
      <!-- 2 -->
      <g transform="translate(133.146023 527.238438)scale(0.1 -0.1)">
       <use xlink:href="#DejaVuSans-32"/>
      </g>
     </g>
    </g>
    <g id="xtick_9">
     <g id="line2d_22">
      <g>
       <use style="stroke:#000000;stroke-width:0.8;" x="181.418182" xlink:href="#mfbbd511f1e" y="512.64"/>
      </g>
     </g>
     <g id="text_21">
      <!-- 3 -->
      <g transform="translate(178.236932 527.238438)scale(0.1 -0.1)">
       <use xlink:href="#DejaVuSans-33"/>
      </g>
     </g>
    </g>
    <g id="xtick_10">
     <g id="line2d_23">
      <g>
       <use style="stroke:#000000;stroke-width:0.8;" x="226.509091" xlink:href="#mfbbd511f1e" y="512.64"/>
      </g>
     </g>
     <g id="text_22">
      <!-- 4 -->
      <g transform="translate(223.327841 527.238438)scale(0.1 -0.1)">
       <use xlink:href="#DejaVuSans-34"/>
      </g>
     </g>
    </g>
    <g id="text_23">
     <!-- 1e6 -->
     <g transform="translate(240.321875 539.916563)scale(0.1 -0.1)">
      <use xlink:href="#DejaVuSans-31"/>
      <use x="63.623047" xlink:href="#DejaVuSans-65"/>
      <use x="125.146484" xlink:href="#DejaVuSans-36"/>
     </g>
    </g>
   </g>
   <g id="matplotlib.axis_4">
    <g id="ytick_8">
     <g id="line2d_24">
      <g>
       <use style="stroke:#000000;stroke-width:0.8;" x="36" xlink:href="#m3394595f08" y="506.441543"/>
      </g>
     </g>
     <g id="text_24">
      <!-- −600 -->
      <g transform="translate(1.532812 510.240762)scale(0.1 -0.1)">
       <use xlink:href="#DejaVuSans-2212"/>
       <use x="83.789062" xlink:href="#DejaVuSans-36"/>
       <use x="147.412109" xlink:href="#DejaVuSans-30"/>
       <use x="211.035156" xlink:href="#DejaVuSans-30"/>
      </g>
     </g>
    </g>
    <g id="ytick_9">
     <g id="line2d_25">
      <g>
       <use style="stroke:#000000;stroke-width:0.8;" x="36" xlink:href="#m3394595f08" y="469.987575"/>
      </g>
     </g>
     <g id="text_25">
      <!-- −400 -->
      <g transform="translate(1.532812 473.786794)scale(0.1 -0.1)">
       <use xlink:href="#DejaVuSans-2212"/>
       <use x="83.789062" xlink:href="#DejaVuSans-34"/>
       <use x="147.412109" xlink:href="#DejaVuSans-30"/>
       <use x="211.035156" xlink:href="#DejaVuSans-30"/>
      </g>
     </g>
    </g>
    <g id="ytick_10">
     <g id="line2d_26">
      <g>
       <use style="stroke:#000000;stroke-width:0.8;" x="36" xlink:href="#m3394595f08" y="433.533607"/>
      </g>
     </g>
     <g id="text_26">
      <!-- −200 -->
      <g transform="translate(1.532812 437.332826)scale(0.1 -0.1)">
       <use xlink:href="#DejaVuSans-2212"/>
       <use x="83.789062" xlink:href="#DejaVuSans-32"/>
       <use x="147.412109" xlink:href="#DejaVuSans-30"/>
       <use x="211.035156" xlink:href="#DejaVuSans-30"/>
      </g>
     </g>
    </g>
    <g id="ytick_11">
     <g id="line2d_27">
      <g>
       <use style="stroke:#000000;stroke-width:0.8;" x="36" xlink:href="#m3394595f08" y="397.079639"/>
      </g>
     </g>
     <g id="text_27">
      <!-- 0 -->
      <g transform="translate(22.6375 400.878858)scale(0.1 -0.1)">
       <use xlink:href="#DejaVuSans-30"/>
      </g>
     </g>
    </g>
    <g id="ytick_12">
     <g id="line2d_28">
      <g>
       <use style="stroke:#000000;stroke-width:0.8;" x="36" xlink:href="#m3394595f08" y="360.625671"/>
      </g>
     </g>
     <g id="text_28">
      <!-- 200 -->
      <g transform="translate(9.9125 364.42489)scale(0.1 -0.1)">
       <use xlink:href="#DejaVuSans-32"/>
       <use x="63.623047" xlink:href="#DejaVuSans-30"/>
       <use x="127.246094" xlink:href="#DejaVuSans-30"/>
      </g>
     </g>
    </g>
    <g id="ytick_13">
     <g id="line2d_29">
      <g>
       <use style="stroke:#000000;stroke-width:0.8;" x="36" xlink:href="#m3394595f08" y="324.171703"/>
      </g>
     </g>
     <g id="text_29">
      <!-- 400 -->
      <g transform="translate(9.9125 327.970922)scale(0.1 -0.1)">
       <use xlink:href="#DejaVuSans-34"/>
       <use x="63.623047" xlink:href="#DejaVuSans-30"/>
       <use x="127.246094" xlink:href="#DejaVuSans-30"/>
      </g>
     </g>
    </g>
    <g id="text_30">
     <!-- Geoid anomaly (m) -->
     <g transform="translate(-4.546875 459.938437)rotate(-90)scale(0.1 -0.1)">
      <defs>
       <path d="M 3809 666 
L 3809 1919 
L 2778 1919 
L 2778 2438 
L 4434 2438 
L 4434 434 
Q 4069 175 3628 42 
Q 3188 -91 2688 -91 
Q 1594 -91 976 548 
Q 359 1188 359 2328 
Q 359 3472 976 4111 
Q 1594 4750 2688 4750 
Q 3144 4750 3555 4637 
Q 3966 4525 4313 4306 
L 4313 3634 
Q 3963 3931 3569 4081 
Q 3175 4231 2741 4231 
Q 1884 4231 1454 3753 
Q 1025 3275 1025 2328 
Q 1025 1384 1454 906 
Q 1884 428 2741 428 
Q 3075 428 3337 486 
Q 3600 544 3809 666 
z
" id="DejaVuSans-47" transform="scale(0.015625)"/>
       <path d="M 603 3500 
L 1178 3500 
L 1178 0 
L 603 0 
L 603 3500 
z
M 603 4863 
L 1178 4863 
L 1178 4134 
L 603 4134 
L 603 4863 
z
" id="DejaVuSans-69" transform="scale(0.015625)"/>
       <path d="M 2906 2969 
L 2906 4863 
L 3481 4863 
L 3481 0 
L 2906 0 
L 2906 525 
Q 2725 213 2448 61 
Q 2172 -91 1784 -91 
Q 1150 -91 751 415 
Q 353 922 353 1747 
Q 353 2572 751 3078 
Q 1150 3584 1784 3584 
Q 2172 3584 2448 3432 
Q 2725 3281 2906 2969 
z
M 947 1747 
Q 947 1113 1208 752 
Q 1469 391 1925 391 
Q 2381 391 2643 752 
Q 2906 1113 2906 1747 
Q 2906 2381 2643 2742 
Q 2381 3103 1925 3103 
Q 1469 3103 1208 2742 
Q 947 2381 947 1747 
z
" id="DejaVuSans-64" transform="scale(0.015625)"/>
       <path d="M 3513 2113 
L 3513 0 
L 2938 0 
L 2938 2094 
Q 2938 2591 2744 2837 
Q 2550 3084 2163 3084 
Q 1697 3084 1428 2787 
Q 1159 2491 1159 1978 
L 1159 0 
L 581 0 
L 581 3500 
L 1159 3500 
L 1159 2956 
Q 1366 3272 1645 3428 
Q 1925 3584 2291 3584 
Q 2894 3584 3203 3211 
Q 3513 2838 3513 2113 
z
" id="DejaVuSans-6e" transform="scale(0.015625)"/>
       <path d="M 603 4863 
L 1178 4863 
L 1178 0 
L 603 0 
L 603 4863 
z
" id="DejaVuSans-6c" transform="scale(0.015625)"/>
      </defs>
      <use xlink:href="#DejaVuSans-47"/>
      <use x="77.490234" xlink:href="#DejaVuSans-65"/>
      <use x="139.013672" xlink:href="#DejaVuSans-6f"/>
      <use x="200.195312" xlink:href="#DejaVuSans-69"/>
      <use x="227.978516" xlink:href="#DejaVuSans-64"/>
      <use x="291.455078" xlink:href="#DejaVuSans-20"/>
      <use x="323.242188" xlink:href="#DejaVuSans-61"/>
      <use x="384.521484" xlink:href="#DejaVuSans-6e"/>
      <use x="447.900391" xlink:href="#DejaVuSans-6f"/>
      <use x="509.082031" xlink:href="#DejaVuSans-6d"/>
      <use x="606.494141" xlink:href="#DejaVuSans-61"/>
      <use x="667.773438" xlink:href="#DejaVuSans-6c"/>
      <use x="695.556641" xlink:href="#DejaVuSans-79"/>
      <use x="754.736328" xlink:href="#DejaVuSans-20"/>
      <use x="786.523438" xlink:href="#DejaVuSans-28"/>
      <use x="825.537109" xlink:href="#DejaVuSans-6d"/>
      <use x="922.949219" xlink:href="#DejaVuSans-29"/>
     </g>
    </g>
   </g>
   <g id="line2d_30">
    <path clip-path="url(#pf287afd3bf)" d="M 46.145455 382.345803 
L 49.315909 380.856556 
L 49.315909 380.856556 
L 55.78892 377.572953 
L 63.582955 373.367821 
L 63.582955 373.367821 
L 71.905398 368.622363 
L 80.227841 363.623179 
L 80.227841 363.623179 
L 88.550284 358.364858 
L 96.608523 353.012481 
L 96.608523 353.012481 
L 104.534659 347.479905 
L 104.534659 347.479905 
L 112.328693 341.764936 
L 120.651136 335.376247 
L 120.651136 335.376247 
L 132.011932 326.635145 
L 132.011932 326.635145 
L 135.578693 324.204853 
L 138.352841 322.580851 
L 138.352841 322.580851 
L 140.59858 321.507451 
L 142.580114 320.789168 
L 142.580114 320.789168 
L 144.429545 320.356516 
L 144.429545 320.356516 
L 146.014773 320.206226 
L 146.014773 320.206226 
L 147.467898 320.27916 
L 148.921023 320.577344 
L 148.921023 320.577344 
L 150.374148 321.104294 
L 152.091477 321.975327 
L 152.091477 321.975327 
L 156.450852 324.333857 
L 159.885511 325.938375 
L 165.0375 328.84731 
L 165.0375 328.84731 
L 192.646875 344.872025 
L 210.34858 355.381007 
L 232.013352 368.527703 
L 249.054545 378.81803 
L 249.054545 378.81803 
" style="fill:none;stroke:#1f77b4;stroke-linecap:square;stroke-width:1.5;"/>
   </g>
   <g id="line2d_31">
    <path clip-path="url(#pf287afd3bf)" d="M 46.145455 433.952399 
L 46.541761 433.417157 
L 47.334375 432.783143 
L 48.523295 432.162423 
L 48.523295 432.162423 
L 49.97642 431.647145 
L 51.69375 431.29593 
L 51.69375 431.29593 
L 53.939489 431.081001 
L 56.449432 431.055675 
L 56.449432 431.055675 
L 59.22358 431.258928 
L 62.394034 431.721005 
L 65.828693 432.448362 
L 69.659659 433.49316 
L 69.659659 433.49316 
L 74.151136 434.953733 
L 74.151136 434.953733 
L 78.906818 436.734312 
L 78.906818 436.734312 
L 83.926705 438.853728 
L 83.926705 438.853728 
L 89.607102 441.497165 
L 96.080114 444.750097 
L 96.080114 444.750097 
L 102.024716 447.989971 
L 109.422443 452.29076 
L 115.102841 455.838214 
L 115.102841 455.838214 
L 120.519034 459.478335 
L 124.217898 462.223021 
L 128.048864 465.367773 
L 128.048864 465.367773 
L 132.540341 469.009827 
L 132.540341 469.009827 
L 135.975 471.766392 
L 135.975 471.766392 
L 137.296023 473.164519 
L 137.296023 473.164519 
L 138.352841 474.611564 
L 138.352841 474.611564 
L 139.409659 476.470476 
L 139.409659 476.470476 
L 140.466477 478.834828 
L 140.466477 478.834828 
L 141.523295 481.754965 
L 141.523295 481.754965 
L 142.844318 486.146357 
L 142.844318 486.146357 
L 145.222159 495.149264 
L 145.222159 495.149264 
L 146.543182 499.6454 
L 146.543182 499.6454 
L 147.335795 501.703513 
L 147.335795 501.703513 
L 147.996307 502.874542 
L 148.524716 503.379455 
L 148.921023 503.476364 
L 148.921023 503.476364 
L 149.31733 503.315298 
L 149.713636 502.886388 
L 149.713636 502.886388 
L 150.242045 501.891417 
L 150.242045 501.891417 
L 150.902557 499.984502 
L 151.69517 496.835695 
L 154.073011 486.391062 
L 154.337216 486.167039 
L 154.60142 486.277575 
L 154.997727 486.907303 
L 154.997727 486.907303 
L 155.526136 488.379136 
L 155.526136 488.379136 
L 156.31875 491.460851 
L 156.31875 491.460851 
L 157.903977 497.990041 
L 157.903977 497.990041 
L 158.300284 498.881756 
L 158.564489 499.131998 
L 158.828693 499.078908 
L 159.092898 498.614982 
L 159.489205 496.986741 
L 159.489205 496.986741 
L 160.017614 493.555544 
L 160.017614 493.555544 
L 160.810227 486.664908 
L 160.810227 486.664908 
L 163.188068 464.734746 
L 163.188068 464.734746 
L 163.980682 459.567596 
L 163.980682 459.567596 
L 164.641193 456.468005 
L 165.301705 454.439166 
L 165.301705 454.439166 
L 165.830114 453.516259 
L 165.830114 453.516259 
L 166.22642 453.181408 
L 166.622727 453.110234 
L 166.622727 453.110234 
L 167.019034 453.26201 
L 167.547443 453.739984 
L 168.340057 454.856736 
L 171.114205 459.189577 
L 171.114205 459.189577 
L 171.906818 459.925327 
L 171.906818 459.925327 
L 172.699432 460.338238 
L 172.699432 460.338238 
L 173.359943 460.44846 
L 174.152557 460.337342 
L 175.077273 459.944163 
L 175.077273 459.944163 
L 176.266193 459.168521 
L 181.682386 455.298446 
L 181.682386 455.298446 
L 184.456534 453.824553 
L 191.986364 449.93564 
L 191.986364 449.93564 
L 201.62983 444.844662 
L 211.5375 439.908379 
L 211.5375 439.908379 
L 218.803125 436.54806 
L 225.011932 433.897829 
L 225.011932 433.897829 
L 230.824432 431.671592 
L 230.824432 431.671592 
L 235.448011 430.095527 
L 243.242045 427.564746 
L 243.242045 427.564746 
L 246.280398 426.332519 
L 247.469318 426.167201 
L 247.469318 426.167201 
L 247.997727 426.306442 
L 247.997727 426.306442 
L 248.394034 426.676393 
L 248.790341 427.436421 
L 248.790341 427.436421 
L 249.054545 428.319806 
L 249.054545 428.319806 
" style="fill:none;stroke:#ff7f0e;stroke-linecap:square;stroke-width:1.5;"/>
   </g>
   <g id="line2d_32">
    <path clip-path="url(#pf287afd3bf)" d="M 46.145455 366.329542 
L 87.361364 367.071531 
L 87.361364 367.071531 
L 116.688068 367.37751 
L 116.688068 367.37751 
L 143.636932 367.436383 
L 143.636932 367.436383 
L 171.114205 367.271179 
L 171.114205 367.271179 
L 202.026136 366.855275 
L 202.026136 366.855275 
L 244.827273 366.034168 
L 244.827273 366.034168 
L 249.054545 365.946151 
L 249.054545 365.946151 
" style="fill:none;stroke:#2ca02c;stroke-linecap:square;stroke-width:1.5;"/>
   </g>
   <g id="line2d_33">
    <path clip-path="url(#pf287afd3bf)" d="M 46.145455 388.468465 
L 46.673864 387.580879 
L 46.673864 387.580879 
L 47.59858 386.506806 
L 49.183807 385.050863 
L 50.901136 383.772939 
L 50.901136 383.772939 
L 53.146875 382.387697 
L 56.053125 380.850524 
L 59.22358 379.44174 
L 62.790341 378.100955 
L 62.790341 378.100955 
L 66.753409 376.844897 
L 66.753409 376.844897 
L 71.509091 375.581083 
L 71.509091 375.581083 
L 77.321591 374.270749 
L 77.321591 374.270749 
L 83.6625 373.079871 
L 83.6625 373.079871 
L 92.38125 371.694521 
L 92.38125 371.694521 
L 102.156818 370.328984 
L 102.156818 370.328984 
L 116.952273 368.516498 
L 116.952273 368.516498 
L 122.104261 368.105368 
L 125.274716 368.080773 
L 128.841477 368.30013 
L 128.841477 368.30013 
L 135.710795 368.92904 
L 135.710795 368.92904 
L 136.767614 369.318359 
L 136.767614 369.318359 
L 137.69233 369.889993 
L 138.617045 370.758757 
L 138.617045 370.758757 
L 139.409659 371.798132 
L 139.409659 371.798132 
L 140.334375 373.411786 
L 141.259091 375.495209 
L 141.259091 375.495209 
L 142.315909 378.451019 
L 142.315909 378.451019 
L 143.636932 382.871878 
L 143.636932 382.871878 
L 146.807386 393.888261 
L 146.807386 393.888261 
L 147.6 395.801975 
L 147.6 395.801975 
L 148.260511 396.85628 
L 148.78892 397.275658 
L 149.185227 397.316413 
L 149.185227 397.316413 
L 149.581534 397.109027 
L 149.977841 396.646771 
L 149.977841 396.646771 
L 150.50625 395.633833 
L 150.50625 395.633833 
L 151.166761 393.761623 
L 151.959375 390.772615 
L 153.808807 383.23727 
L 154.073011 382.777952 
L 154.337216 382.705596 
L 154.60142 382.9638 
L 154.997727 383.803419 
L 154.997727 383.803419 
L 155.526136 385.531267 
L 155.526136 385.531267 
L 156.31875 388.965416 
L 156.31875 388.965416 
L 157.903977 396.1638 
L 157.903977 396.1638 
L 158.300284 397.231048 
L 158.564489 397.603725 
L 158.828693 397.677739 
L 159.092898 397.345607 
L 159.357102 396.5022 
L 159.753409 394.498608 
L 159.753409 394.498608 
L 160.41392 389.729124 
L 161.734943 377.743174 
L 162.923864 367.60788 
L 162.923864 367.60788 
L 163.716477 362.383314 
L 163.716477 362.383314 
L 164.376989 359.215363 
L 165.0375 357.141885 
L 165.0375 357.141885 
L 165.565909 356.219413 
L 165.565909 356.219413 
L 165.962216 355.912339 
L 166.358523 355.895182 
L 166.358523 355.895182 
L 166.75483 356.128386 
L 167.283239 356.757722 
L 167.94375 357.920274 
L 167.94375 357.920274 
L 169.264773 360.848567 
L 169.264773 360.848567 
L 170.717898 363.951975 
L 171.642614 365.489117 
L 171.642614 365.489117 
L 172.56733 366.590754 
L 173.359943 367.198535 
L 174.152557 367.537993 
L 175.077273 367.670278 
L 175.077273 367.670278 
L 176.266193 367.569935 
L 181.550284 366.776097 
L 183.928125 366.841399 
L 193.571591 367.321747 
L 193.571591 367.321747 
L 200.573011 367.650772 
L 209.291761 368.314823 
L 215.764773 369.023185 
L 215.764773 369.023185 
L 222.237784 369.94981 
L 227.521875 370.925533 
L 233.466477 372.260824 
L 233.466477 372.260824 
L 237.957955 373.507197 
L 237.957955 373.507197 
L 242.31733 374.668695 
L 244.166761 374.940419 
L 245.884091 375.241599 
L 245.884091 375.241599 
L 247.073011 375.677372 
L 247.733523 376.061542 
L 247.733523 376.061542 
L 248.12983 376.487906 
L 248.526136 377.184687 
L 248.526136 377.184687 
L 248.922443 378.357548 
L 249.054545 378.924708 
L 249.054545 378.924708 
" style="fill:none;stroke:#000000;stroke-linecap:square;stroke-width:1.5;"/>
   </g>
   <g id="patch_9">
    <path d="M 36 512.64 
L 36 311.04 
" style="fill:none;stroke:#000000;stroke-linecap:square;stroke-linejoin:miter;stroke-width:0.8;"/>
   </g>
   <g id="patch_10">
    <path d="M 259.2 512.64 
L 259.2 311.04 
" style="fill:none;stroke:#000000;stroke-linecap:square;stroke-linejoin:miter;stroke-width:0.8;"/>
   </g>
   <g id="patch_11">
    <path d="M 36 512.64 
L 259.2 512.64 
" style="fill:none;stroke:#000000;stroke-linecap:square;stroke-linejoin:miter;stroke-width:0.8;"/>
   </g>
   <g id="patch_12">
    <path d="M 36 311.04 
L 259.2 311.04 
" style="fill:none;stroke:#000000;stroke-linecap:square;stroke-linejoin:miter;stroke-width:0.8;"/>
   </g>
   <g id="text_31">
    <!-- Geoid -->
    <g transform="translate(130.111875 305.04)scale(0.12 -0.12)">
     <use xlink:href="#DejaVuSans-47"/>
     <use x="77.490234" xlink:href="#DejaVuSans-65"/>
     <use x="139.013672" xlink:href="#DejaVuSans-6f"/>
     <use x="200.195312" xlink:href="#DejaVuSans-69"/>
     <use x="227.978516" xlink:href="#DejaVuSans-64"/>
    </g>
   </g>
   <g id="legend_2">
    <g id="patch_13">
     <path d="M 43 507.64 
L 111.957813 507.64 
Q 113.957813 507.64 113.957813 505.64 
L 113.957813 447.9275 
Q 113.957813 445.9275 111.957813 445.9275 
L 43 445.9275 
Q 41 445.9275 41 447.9275 
L 41 505.64 
Q 41 507.64 43 507.64 
z
" style="fill:#ffffff;opacity:0.8;stroke:#cccccc;stroke-linejoin:miter;"/>
    </g>
    <g id="line2d_34">
     <path d="M 45 454.025937 
L 65 454.025937 
" style="fill:none;stroke:#1f77b4;stroke-linecap:square;stroke-width:1.5;"/>
    </g>
    <g id="line2d_35"/>
    <g id="text_32">
     <!-- interior -->
     <g transform="translate(73 457.525937)scale(0.1 -0.1)">
      <defs>
       <path d="M 1172 4494 
L 1172 3500 
L 2356 3500 
L 2356 3053 
L 1172 3053 
L 1172 1153 
Q 1172 725 1289 603 
Q 1406 481 1766 481 
L 2356 481 
L 2356 0 
L 1766 0 
Q 1100 0 847 248 
Q 594 497 594 1153 
L 594 3053 
L 172 3053 
L 172 3500 
L 594 3500 
L 594 4494 
L 1172 4494 
z
" id="DejaVuSans-74" transform="scale(0.015625)"/>
      </defs>
      <use xlink:href="#DejaVuSans-69"/>
      <use x="27.783203" xlink:href="#DejaVuSans-6e"/>
      <use x="91.162109" xlink:href="#DejaVuSans-74"/>
      <use x="130.371094" xlink:href="#DejaVuSans-65"/>
      <use x="191.894531" xlink:href="#DejaVuSans-72"/>
      <use x="233.007812" xlink:href="#DejaVuSans-69"/>
      <use x="260.791016" xlink:href="#DejaVuSans-6f"/>
      <use x="321.972656" xlink:href="#DejaVuSans-72"/>
     </g>
    </g>
    <g id="line2d_36">
     <path d="M 45 468.704063 
L 65 468.704063 
" style="fill:none;stroke:#ff7f0e;stroke-linecap:square;stroke-width:1.5;"/>
    </g>
    <g id="line2d_37"/>
    <g id="text_33">
     <!-- surface -->
     <g transform="translate(73 472.204063)scale(0.1 -0.1)">
      <defs>
       <path d="M 2834 3397 
L 2834 2853 
Q 2591 2978 2328 3040 
Q 2066 3103 1784 3103 
Q 1356 3103 1142 2972 
Q 928 2841 928 2578 
Q 928 2378 1081 2264 
Q 1234 2150 1697 2047 
L 1894 2003 
Q 2506 1872 2764 1633 
Q 3022 1394 3022 966 
Q 3022 478 2636 193 
Q 2250 -91 1575 -91 
Q 1294 -91 989 -36 
Q 684 19 347 128 
L 347 722 
Q 666 556 975 473 
Q 1284 391 1588 391 
Q 1994 391 2212 530 
Q 2431 669 2431 922 
Q 2431 1156 2273 1281 
Q 2116 1406 1581 1522 
L 1381 1569 
Q 847 1681 609 1914 
Q 372 2147 372 2553 
Q 372 3047 722 3315 
Q 1072 3584 1716 3584 
Q 2034 3584 2315 3537 
Q 2597 3491 2834 3397 
z
" id="DejaVuSans-73" transform="scale(0.015625)"/>
      </defs>
      <use xlink:href="#DejaVuSans-73"/>
      <use x="52.099609" xlink:href="#DejaVuSans-75"/>
      <use x="115.478516" xlink:href="#DejaVuSans-72"/>
      <use x="156.591797" xlink:href="#DejaVuSans-66"/>
      <use x="191.796875" xlink:href="#DejaVuSans-61"/>
      <use x="253.076172" xlink:href="#DejaVuSans-63"/>
      <use x="308.056641" xlink:href="#DejaVuSans-65"/>
     </g>
    </g>
    <g id="line2d_38">
     <path d="M 45 483.382187 
L 65 483.382187 
" style="fill:none;stroke:#2ca02c;stroke-linecap:square;stroke-width:1.5;"/>
    </g>
    <g id="line2d_39"/>
    <g id="text_34">
     <!-- cmb -->
     <g transform="translate(73 486.882187)scale(0.1 -0.1)">
      <defs>
       <path d="M 3116 1747 
Q 3116 2381 2855 2742 
Q 2594 3103 2138 3103 
Q 1681 3103 1420 2742 
Q 1159 2381 1159 1747 
Q 1159 1113 1420 752 
Q 1681 391 2138 391 
Q 2594 391 2855 752 
Q 3116 1113 3116 1747 
z
M 1159 2969 
Q 1341 3281 1617 3432 
Q 1894 3584 2278 3584 
Q 2916 3584 3314 3078 
Q 3713 2572 3713 1747 
Q 3713 922 3314 415 
Q 2916 -91 2278 -91 
Q 1894 -91 1617 61 
Q 1341 213 1159 525 
L 1159 0 
L 581 0 
L 581 4863 
L 1159 4863 
L 1159 2969 
z
" id="DejaVuSans-62" transform="scale(0.015625)"/>
      </defs>
      <use xlink:href="#DejaVuSans-63"/>
      <use x="54.980469" xlink:href="#DejaVuSans-6d"/>
      <use x="152.392578" xlink:href="#DejaVuSans-62"/>
     </g>
    </g>
    <g id="line2d_40">
     <path d="M 45 498.060313 
L 65 498.060313 
" style="fill:none;stroke:#000000;stroke-linecap:square;stroke-width:1.5;"/>
    </g>
    <g id="line2d_41"/>
    <g id="text_35">
     <!-- Total -->
     <g transform="translate(73 501.560313)scale(0.1 -0.1)">
      <use xlink:href="#DejaVuSans-54"/>
      <use x="44.083984" xlink:href="#DejaVuSans-6f"/>
      <use x="105.265625" xlink:href="#DejaVuSans-74"/>
      <use x="144.474609" xlink:href="#DejaVuSans-61"/>
      <use x="205.753906" xlink:href="#DejaVuSans-6c"/>
     </g>
    </g>
   </g>
  </g>
 </g>
 <defs>
  <clipPath id="p8ed73258b7">
   <rect height="201.6" width="223.2" x="36" y="69.12"/>
  </clipPath>
  <clipPath id="pf287afd3bf">
   <rect height="201.6" width="223.2" x="36" y="311.04"/>
  </clipPath>
 </defs>
</svg>
