<?xml version="1.0" encoding="utf-8" standalone="no"?>
<!DOCTYPE svg PUBLIC "-//W3C//DTD SVG 1.1//EN"
  "http://www.w3.org/Graphics/SVG/1.1/DTD/svg11.dtd">
<svg height="576pt" version="1.1" viewBox="0 0 288 576" width="288pt" xmlns="http://www.w3.org/2000/svg" xmlns:xlink="http://www.w3.org/1999/xlink">
 <metadata>
  <rdf:RDF xmlns:cc="http://creativecommons.org/ns#" xmlns:dc="http://purl.org/dc/elements/1.1/" xmlns:rdf="http://www.w3.org/1999/02/22-rdf-syntax-ns#">
   <cc:Work>
    <dc:type rdf:resource="http://purl.org/dc/dcmitype/StillImage"/>
    <dc:date>2021-07-09T10:02:53.576885</dc:date>
    <dc:format>image/svg+xml</dc:format>
    <dc:creator>
     <cc:Agent>
      <dc:title>Matplotlib v3.4.2, https://matplotlib.org/</dc:title>
     </cc:Agent>
    </dc:creator>
   </cc:Work>
  </rdf:RDF>
 </metadata>
 <defs>
  <style type="text/css">*{stroke-linecap:butt;stroke-linejoin:round;}</style>
 </defs>
 <g id="figure_1">
  <g id="patch_1">
   <path d="M 0 576 
L 288 576 
L 288 0 
L 0 0 
z
" style="fill:#ffffff;"/>
  </g>
  <g id="axes_1">
   <g id="patch_2">
    <path d="M 36 270.72 
L 259.2 270.72 
L 259.2 69.12 
L 36 69.12 
z
" style="fill:#ffffff;"/>
   </g>
   <g id="matplotlib.axis_1">
    <g id="xtick_1">
     <g id="line2d_1">
      <defs>
       <path d="M 0 0 
L 0 3.5 
" id="m523c214628" style="stroke:#000000;stroke-width:0.8;"/>
      </defs>
      <g>
       <use style="stroke:#000000;stroke-width:0.8;" x="46.145455" xlink:href="#m523c214628" y="270.72"/>
      </g>
     </g>
     <g id="text_1">
      <!-- 0 -->
      <g transform="translate(42.964205 285.318437)scale(0.1 -0.1)">
       <defs>
        <path d="M 2034 4250 
Q 1547 4250 1301 3770 
Q 1056 3291 1056 2328 
Q 1056 1369 1301 889 
Q 1547 409 2034 409 
Q 2525 409 2770 889 
Q 3016 1369 3016 2328 
Q 3016 3291 2770 3770 
Q 2525 4250 2034 4250 
z
M 2034 4750 
Q 2819 4750 3233 4129 
Q 3647 3509 3647 2328 
Q 3647 1150 3233 529 
Q 2819 -91 2034 -91 
Q 1250 -91 836 529 
Q 422 1150 422 2328 
Q 422 3509 836 4129 
Q 1250 4750 2034 4750 
z
" id="DejaVuSans-30" transform="scale(0.015625)"/>
       </defs>
       <use xlink:href="#DejaVuSans-30"/>
      </g>
     </g>
    </g>
    <g id="xtick_2">
     <g id="line2d_2">
      <g>
       <use style="stroke:#000000;stroke-width:0.8;" x="91.236364" xlink:href="#m523c214628" y="270.72"/>
      </g>
     </g>
     <g id="text_2">
      <!-- 2 -->
      <g transform="translate(88.055114 285.318437)scale(0.1 -0.1)">
       <defs>
        <path d="M 1228 531 
L 3431 531 
L 3431 0 
L 469 0 
L 469 531 
Q 828 903 1448 1529 
Q 2069 2156 2228 2338 
Q 2531 2678 2651 2914 
Q 2772 3150 2772 3378 
Q 2772 3750 2511 3984 
Q 2250 4219 1831 4219 
Q 1534 4219 1204 4116 
Q 875 4013 500 3803 
L 500 4441 
Q 881 4594 1212 4672 
Q 1544 4750 1819 4750 
Q 2544 4750 2975 4387 
Q 3406 4025 3406 3419 
Q 3406 3131 3298 2873 
Q 3191 2616 2906 2266 
Q 2828 2175 2409 1742 
Q 1991 1309 1228 531 
z
" id="DejaVuSans-32" transform="scale(0.015625)"/>
       </defs>
       <use xlink:href="#DejaVuSans-32"/>
      </g>
     </g>
    </g>
    <g id="xtick_3">
     <g id="line2d_3">
      <g>
       <use style="stroke:#000000;stroke-width:0.8;" x="136.327273" xlink:href="#m523c214628" y="270.72"/>
      </g>
     </g>
     <g id="text_3">
      <!-- 4 -->
      <g transform="translate(133.146023 285.318437)scale(0.1 -0.1)">
       <defs>
        <path d="M 2419 4116 
L 825 1625 
L 2419 1625 
L 2419 4116 
z
M 2253 4666 
L 3047 4666 
L 3047 1625 
L 3713 1625 
L 3713 1100 
L 3047 1100 
L 3047 0 
L 2419 0 
L 2419 1100 
L 313 1100 
L 313 1709 
L 2253 4666 
z
" id="DejaVuSans-34" transform="scale(0.015625)"/>
       </defs>
       <use xlink:href="#DejaVuSans-34"/>
      </g>
     </g>
    </g>
    <g id="xtick_4">
     <g id="line2d_4">
      <g>
       <use style="stroke:#000000;stroke-width:0.8;" x="181.418182" xlink:href="#m523c214628" y="270.72"/>
      </g>
     </g>
     <g id="text_4">
      <!-- 6 -->
      <g transform="translate(178.236932 285.318437)scale(0.1 -0.1)">
       <defs>
        <path d="M 2113 2584 
Q 1688 2584 1439 2293 
Q 1191 2003 1191 1497 
Q 1191 994 1439 701 
Q 1688 409 2113 409 
Q 2538 409 2786 701 
Q 3034 994 3034 1497 
Q 3034 2003 2786 2293 
Q 2538 2584 2113 2584 
z
M 3366 4563 
L 3366 3988 
Q 3128 4100 2886 4159 
Q 2644 4219 2406 4219 
Q 1781 4219 1451 3797 
Q 1122 3375 1075 2522 
Q 1259 2794 1537 2939 
Q 1816 3084 2150 3084 
Q 2853 3084 3261 2657 
Q 3669 2231 3669 1497 
Q 3669 778 3244 343 
Q 2819 -91 2113 -91 
Q 1303 -91 875 529 
Q 447 1150 447 2328 
Q 447 3434 972 4092 
Q 1497 4750 2381 4750 
Q 2619 4750 2861 4703 
Q 3103 4656 3366 4563 
z
" id="DejaVuSans-36" transform="scale(0.015625)"/>
       </defs>
       <use xlink:href="#DejaVuSans-36"/>
      </g>
     </g>
    </g>
    <g id="xtick_5">
     <g id="line2d_5">
      <g>
       <use style="stroke:#000000;stroke-width:0.8;" x="226.509091" xlink:href="#m523c214628" y="270.72"/>
      </g>
     </g>
     <g id="text_5">
      <!-- 8 -->
      <g transform="translate(223.327841 285.318437)scale(0.1 -0.1)">
       <defs>
        <path d="M 2034 2216 
Q 1584 2216 1326 1975 
Q 1069 1734 1069 1313 
Q 1069 891 1326 650 
Q 1584 409 2034 409 
Q 2484 409 2743 651 
Q 3003 894 3003 1313 
Q 3003 1734 2745 1975 
Q 2488 2216 2034 2216 
z
M 1403 2484 
Q 997 2584 770 2862 
Q 544 3141 544 3541 
Q 544 4100 942 4425 
Q 1341 4750 2034 4750 
Q 2731 4750 3128 4425 
Q 3525 4100 3525 3541 
Q 3525 3141 3298 2862 
Q 3072 2584 2669 2484 
Q 3125 2378 3379 2068 
Q 3634 1759 3634 1313 
Q 3634 634 3220 271 
Q 2806 -91 2034 -91 
Q 1263 -91 848 271 
Q 434 634 434 1313 
Q 434 1759 690 2068 
Q 947 2378 1403 2484 
z
M 1172 3481 
Q 1172 3119 1398 2916 
Q 1625 2713 2034 2713 
Q 2441 2713 2670 2916 
Q 2900 3119 2900 3481 
Q 2900 3844 2670 4047 
Q 2441 4250 2034 4250 
Q 1625 4250 1398 4047 
Q 1172 3844 1172 3481 
z
" id="DejaVuSans-38" transform="scale(0.015625)"/>
       </defs>
       <use xlink:href="#DejaVuSans-38"/>
      </g>
     </g>
    </g>
    <g id="text_6">
     <!-- 1e6 -->
     <g transform="translate(240.321875 297.996562)scale(0.1 -0.1)">
      <defs>
       <path d="M 794 531 
L 1825 531 
L 1825 4091 
L 703 3866 
L 703 4441 
L 1819 4666 
L 2450 4666 
L 2450 531 
L 3481 531 
L 3481 0 
L 794 0 
L 794 531 
z
" id="DejaVuSans-31" transform="scale(0.015625)"/>
       <path d="M 3597 1894 
L 3597 1613 
L 953 1613 
Q 991 1019 1311 708 
Q 1631 397 2203 397 
Q 2534 397 2845 478 
Q 3156 559 3463 722 
L 3463 178 
Q 3153 47 2828 -22 
Q 2503 -91 2169 -91 
Q 1331 -91 842 396 
Q 353 884 353 1716 
Q 353 2575 817 3079 
Q 1281 3584 2069 3584 
Q 2775 3584 3186 3129 
Q 3597 2675 3597 1894 
z
M 3022 2063 
Q 3016 2534 2758 2815 
Q 2500 3097 2075 3097 
Q 1594 3097 1305 2825 
Q 1016 2553 972 2059 
L 3022 2063 
z
" id="DejaVuSans-65" transform="scale(0.015625)"/>
      </defs>
      <use xlink:href="#DejaVuSans-31"/>
      <use x="63.623047" xlink:href="#DejaVuSans-65"/>
      <use x="125.146484" xlink:href="#DejaVuSans-36"/>
     </g>
    </g>
   </g>
   <g id="matplotlib.axis_2">
    <g id="ytick_1">
     <g id="line2d_6">
      <defs>
       <path d="M 0 0 
L -3.5 0 
" id="mff7d8c52c2" style="stroke:#000000;stroke-width:0.8;"/>
      </defs>
      <g>
       <use style="stroke:#000000;stroke-width:0.8;" x="36" xlink:href="#mff7d8c52c2" y="266.344964"/>
      </g>
     </g>
     <g id="text_7">
      <!-- −25000 -->
      <g transform="translate(-11.192188 270.144182)scale(0.1 -0.1)">
       <defs>
        <path d="M 678 2272 
L 4684 2272 
L 4684 1741 
L 678 1741 
L 678 2272 
z
" id="DejaVuSans-2212" transform="scale(0.015625)"/>
        <path d="M 691 4666 
L 3169 4666 
L 3169 4134 
L 1269 4134 
L 1269 2991 
Q 1406 3038 1543 3061 
Q 1681 3084 1819 3084 
Q 2600 3084 3056 2656 
Q 3513 2228 3513 1497 
Q 3513 744 3044 326 
Q 2575 -91 1722 -91 
Q 1428 -91 1123 -41 
Q 819 9 494 109 
L 494 744 
Q 775 591 1075 516 
Q 1375 441 1709 441 
Q 2250 441 2565 725 
Q 2881 1009 2881 1497 
Q 2881 1984 2565 2268 
Q 2250 2553 1709 2553 
Q 1456 2553 1204 2497 
Q 953 2441 691 2322 
L 691 4666 
z
" id="DejaVuSans-35" transform="scale(0.015625)"/>
       </defs>
       <use xlink:href="#DejaVuSans-2212"/>
       <use x="83.789062" xlink:href="#DejaVuSans-32"/>
       <use x="147.412109" xlink:href="#DejaVuSans-35"/>
       <use x="211.035156" xlink:href="#DejaVuSans-30"/>
       <use x="274.658203" xlink:href="#DejaVuSans-30"/>
       <use x="338.28125" xlink:href="#DejaVuSans-30"/>
      </g>
     </g>
    </g>
    <g id="ytick_2">
     <g id="line2d_7">
      <g>
       <use style="stroke:#000000;stroke-width:0.8;" x="36" xlink:href="#mff7d8c52c2" y="240.324936"/>
      </g>
     </g>
     <g id="text_8">
      <!-- −20000 -->
      <g transform="translate(-11.192188 244.124154)scale(0.1 -0.1)">
       <use xlink:href="#DejaVuSans-2212"/>
       <use x="83.789062" xlink:href="#DejaVuSans-32"/>
       <use x="147.412109" xlink:href="#DejaVuSans-30"/>
       <use x="211.035156" xlink:href="#DejaVuSans-30"/>
       <use x="274.658203" xlink:href="#DejaVuSans-30"/>
       <use x="338.28125" xlink:href="#DejaVuSans-30"/>
      </g>
     </g>
    </g>
    <g id="ytick_3">
     <g id="line2d_8">
      <g>
       <use style="stroke:#000000;stroke-width:0.8;" x="36" xlink:href="#mff7d8c52c2" y="214.304908"/>
      </g>
     </g>
     <g id="text_9">
      <!-- −15000 -->
      <g transform="translate(-11.192188 218.104126)scale(0.1 -0.1)">
       <use xlink:href="#DejaVuSans-2212"/>
       <use x="83.789062" xlink:href="#DejaVuSans-31"/>
       <use x="147.412109" xlink:href="#DejaVuSans-35"/>
       <use x="211.035156" xlink:href="#DejaVuSans-30"/>
       <use x="274.658203" xlink:href="#DejaVuSans-30"/>
       <use x="338.28125" xlink:href="#DejaVuSans-30"/>
      </g>
     </g>
    </g>
    <g id="ytick_4">
     <g id="line2d_9">
      <g>
       <use style="stroke:#000000;stroke-width:0.8;" x="36" xlink:href="#mff7d8c52c2" y="188.28488"/>
      </g>
     </g>
     <g id="text_10">
      <!-- −10000 -->
      <g transform="translate(-11.192188 192.084099)scale(0.1 -0.1)">
       <use xlink:href="#DejaVuSans-2212"/>
       <use x="83.789062" xlink:href="#DejaVuSans-31"/>
       <use x="147.412109" xlink:href="#DejaVuSans-30"/>
       <use x="211.035156" xlink:href="#DejaVuSans-30"/>
       <use x="274.658203" xlink:href="#DejaVuSans-30"/>
       <use x="338.28125" xlink:href="#DejaVuSans-30"/>
      </g>
     </g>
    </g>
    <g id="ytick_5">
     <g id="line2d_10">
      <g>
       <use style="stroke:#000000;stroke-width:0.8;" x="36" xlink:href="#mff7d8c52c2" y="162.264852"/>
      </g>
     </g>
     <g id="text_11">
      <!-- −5000 -->
      <g transform="translate(-4.829687 166.064071)scale(0.1 -0.1)">
       <use xlink:href="#DejaVuSans-2212"/>
       <use x="83.789062" xlink:href="#DejaVuSans-35"/>
       <use x="147.412109" xlink:href="#DejaVuSans-30"/>
       <use x="211.035156" xlink:href="#DejaVuSans-30"/>
       <use x="274.658203" xlink:href="#DejaVuSans-30"/>
      </g>
     </g>
    </g>
    <g id="ytick_6">
     <g id="line2d_11">
      <g>
       <use style="stroke:#000000;stroke-width:0.8;" x="36" xlink:href="#mff7d8c52c2" y="136.244824"/>
      </g>
     </g>
     <g id="text_12">
      <!-- 0 -->
      <g transform="translate(22.6375 140.044043)scale(0.1 -0.1)">
       <use xlink:href="#DejaVuSans-30"/>
      </g>
     </g>
    </g>
    <g id="ytick_7">
     <g id="line2d_12">
      <g>
       <use style="stroke:#000000;stroke-width:0.8;" x="36" xlink:href="#mff7d8c52c2" y="110.224796"/>
      </g>
     </g>
     <g id="text_13">
      <!-- 5000 -->
      <g transform="translate(3.55 114.024015)scale(0.1 -0.1)">
       <use xlink:href="#DejaVuSans-35"/>
       <use x="63.623047" xlink:href="#DejaVuSans-30"/>
       <use x="127.246094" xlink:href="#DejaVuSans-30"/>
       <use x="190.869141" xlink:href="#DejaVuSans-30"/>
      </g>
     </g>
    </g>
    <g id="ytick_8">
     <g id="line2d_13">
      <g>
       <use style="stroke:#000000;stroke-width:0.8;" x="36" xlink:href="#mff7d8c52c2" y="84.204768"/>
      </g>
     </g>
     <g id="text_14">
      <!-- 10000 -->
      <g transform="translate(-2.8125 88.003987)scale(0.1 -0.1)">
       <use xlink:href="#DejaVuSans-31"/>
       <use x="63.623047" xlink:href="#DejaVuSans-30"/>
       <use x="127.246094" xlink:href="#DejaVuSans-30"/>
       <use x="190.869141" xlink:href="#DejaVuSans-30"/>
       <use x="254.492188" xlink:href="#DejaVuSans-30"/>
      </g>
     </g>
    </g>
    <g id="text_15">
     <!-- Topography (m) -->
     <g transform="translate(-17.271875 209.373906)rotate(-90)scale(0.1 -0.1)">
      <defs>
       <path d="M -19 4666 
L 3928 4666 
L 3928 4134 
L 2272 4134 
L 2272 0 
L 1638 0 
L 1638 4134 
L -19 4134 
L -19 4666 
z
" id="DejaVuSans-54" transform="scale(0.015625)"/>
       <path d="M 1959 3097 
Q 1497 3097 1228 2736 
Q 959 2375 959 1747 
Q 959 1119 1226 758 
Q 1494 397 1959 397 
Q 2419 397 2687 759 
Q 2956 1122 2956 1747 
Q 2956 2369 2687 2733 
Q 2419 3097 1959 3097 
z
M 1959 3584 
Q 2709 3584 3137 3096 
Q 3566 2609 3566 1747 
Q 3566 888 3137 398 
Q 2709 -91 1959 -91 
Q 1206 -91 779 398 
Q 353 888 353 1747 
Q 353 2609 779 3096 
Q 1206 3584 1959 3584 
z
" id="DejaVuSans-6f" transform="scale(0.015625)"/>
       <path d="M 1159 525 
L 1159 -1331 
L 581 -1331 
L 581 3500 
L 1159 3500 
L 1159 2969 
Q 1341 3281 1617 3432 
Q 1894 3584 2278 3584 
Q 2916 3584 3314 3078 
Q 3713 2572 3713 1747 
Q 3713 922 3314 415 
Q 2916 -91 2278 -91 
Q 1894 -91 1617 61 
Q 1341 213 1159 525 
z
M 3116 1747 
Q 3116 2381 2855 2742 
Q 2594 3103 2138 3103 
Q 1681 3103 1420 2742 
Q 1159 2381 1159 1747 
Q 1159 1113 1420 752 
Q 1681 391 2138 391 
Q 2594 391 2855 752 
Q 3116 1113 3116 1747 
z
" id="DejaVuSans-70" transform="scale(0.015625)"/>
       <path d="M 2906 1791 
Q 2906 2416 2648 2759 
Q 2391 3103 1925 3103 
Q 1463 3103 1205 2759 
Q 947 2416 947 1791 
Q 947 1169 1205 825 
Q 1463 481 1925 481 
Q 2391 481 2648 825 
Q 2906 1169 2906 1791 
z
M 3481 434 
Q 3481 -459 3084 -895 
Q 2688 -1331 1869 -1331 
Q 1566 -1331 1297 -1286 
Q 1028 -1241 775 -1147 
L 775 -588 
Q 1028 -725 1275 -790 
Q 1522 -856 1778 -856 
Q 2344 -856 2625 -561 
Q 2906 -266 2906 331 
L 2906 616 
Q 2728 306 2450 153 
Q 2172 0 1784 0 
Q 1141 0 747 490 
Q 353 981 353 1791 
Q 353 2603 747 3093 
Q 1141 3584 1784 3584 
Q 2172 3584 2450 3431 
Q 2728 3278 2906 2969 
L 2906 3500 
L 3481 3500 
L 3481 434 
z
" id="DejaVuSans-67" transform="scale(0.015625)"/>
       <path d="M 2631 2963 
Q 2534 3019 2420 3045 
Q 2306 3072 2169 3072 
Q 1681 3072 1420 2755 
Q 1159 2438 1159 1844 
L 1159 0 
L 581 0 
L 581 3500 
L 1159 3500 
L 1159 2956 
Q 1341 3275 1631 3429 
Q 1922 3584 2338 3584 
Q 2397 3584 2469 3576 
Q 2541 3569 2628 3553 
L 2631 2963 
z
" id="DejaVuSans-72" transform="scale(0.015625)"/>
       <path d="M 2194 1759 
Q 1497 1759 1228 1600 
Q 959 1441 959 1056 
Q 959 750 1161 570 
Q 1363 391 1709 391 
Q 2188 391 2477 730 
Q 2766 1069 2766 1631 
L 2766 1759 
L 2194 1759 
z
M 3341 1997 
L 3341 0 
L 2766 0 
L 2766 531 
Q 2569 213 2275 61 
Q 1981 -91 1556 -91 
Q 1019 -91 701 211 
Q 384 513 384 1019 
Q 384 1609 779 1909 
Q 1175 2209 1959 2209 
L 2766 2209 
L 2766 2266 
Q 2766 2663 2505 2880 
Q 2244 3097 1772 3097 
Q 1472 3097 1187 3025 
Q 903 2953 641 2809 
L 641 3341 
Q 956 3463 1253 3523 
Q 1550 3584 1831 3584 
Q 2591 3584 2966 3190 
Q 3341 2797 3341 1997 
z
" id="DejaVuSans-61" transform="scale(0.015625)"/>
       <path d="M 3513 2113 
L 3513 0 
L 2938 0 
L 2938 2094 
Q 2938 2591 2744 2837 
Q 2550 3084 2163 3084 
Q 1697 3084 1428 2787 
Q 1159 2491 1159 1978 
L 1159 0 
L 581 0 
L 581 4863 
L 1159 4863 
L 1159 2956 
Q 1366 3272 1645 3428 
Q 1925 3584 2291 3584 
Q 2894 3584 3203 3211 
Q 3513 2838 3513 2113 
z
" id="DejaVuSans-68" transform="scale(0.015625)"/>
       <path d="M 2059 -325 
Q 1816 -950 1584 -1140 
Q 1353 -1331 966 -1331 
L 506 -1331 
L 506 -850 
L 844 -850 
Q 1081 -850 1212 -737 
Q 1344 -625 1503 -206 
L 1606 56 
L 191 3500 
L 800 3500 
L 1894 763 
L 2988 3500 
L 3597 3500 
L 2059 -325 
z
" id="DejaVuSans-79" transform="scale(0.015625)"/>
       <path id="DejaVuSans-20" transform="scale(0.015625)"/>
       <path d="M 1984 4856 
Q 1566 4138 1362 3434 
Q 1159 2731 1159 2009 
Q 1159 1288 1364 580 
Q 1569 -128 1984 -844 
L 1484 -844 
Q 1016 -109 783 600 
Q 550 1309 550 2009 
Q 550 2706 781 3412 
Q 1013 4119 1484 4856 
L 1984 4856 
z
" id="DejaVuSans-28" transform="scale(0.015625)"/>
       <path d="M 3328 2828 
Q 3544 3216 3844 3400 
Q 4144 3584 4550 3584 
Q 5097 3584 5394 3201 
Q 5691 2819 5691 2113 
L 5691 0 
L 5113 0 
L 5113 2094 
Q 5113 2597 4934 2840 
Q 4756 3084 4391 3084 
Q 3944 3084 3684 2787 
Q 3425 2491 3425 1978 
L 3425 0 
L 2847 0 
L 2847 2094 
Q 2847 2600 2669 2842 
Q 2491 3084 2119 3084 
Q 1678 3084 1418 2786 
Q 1159 2488 1159 1978 
L 1159 0 
L 581 0 
L 581 3500 
L 1159 3500 
L 1159 2956 
Q 1356 3278 1631 3431 
Q 1906 3584 2284 3584 
Q 2666 3584 2933 3390 
Q 3200 3197 3328 2828 
z
" id="DejaVuSans-6d" transform="scale(0.015625)"/>
       <path d="M 513 4856 
L 1013 4856 
Q 1481 4119 1714 3412 
Q 1947 2706 1947 2009 
Q 1947 1309 1714 600 
Q 1481 -109 1013 -844 
L 513 -844 
Q 928 -128 1133 580 
Q 1338 1288 1338 2009 
Q 1338 2731 1133 3434 
Q 928 4138 513 4856 
z
" id="DejaVuSans-29" transform="scale(0.015625)"/>
      </defs>
      <use xlink:href="#DejaVuSans-54"/>
      <use x="44.083984" xlink:href="#DejaVuSans-6f"/>
      <use x="105.265625" xlink:href="#DejaVuSans-70"/>
      <use x="168.742188" xlink:href="#DejaVuSans-6f"/>
      <use x="229.923828" xlink:href="#DejaVuSans-67"/>
      <use x="293.400391" xlink:href="#DejaVuSans-72"/>
      <use x="334.513672" xlink:href="#DejaVuSans-61"/>
      <use x="395.792969" xlink:href="#DejaVuSans-70"/>
      <use x="459.269531" xlink:href="#DejaVuSans-68"/>
      <use x="522.648438" xlink:href="#DejaVuSans-79"/>
      <use x="581.828125" xlink:href="#DejaVuSans-20"/>
      <use x="613.615234" xlink:href="#DejaVuSans-28"/>
      <use x="652.628906" xlink:href="#DejaVuSans-6d"/>
      <use x="750.041016" xlink:href="#DejaVuSans-29"/>
     </g>
    </g>
   </g>
   <g id="line2d_14">
    <path clip-path="url(#pba0a4162bb)" d="M 46.145455 137.042534 
L 95.815909 137.137915 
L 109.554545 137.482312 
L 109.554545 137.482312 
L 147.6 138.657388 
L 147.6 138.657388 
L 159.225 138.615003 
L 175.077273 138.312802 
L 175.077273 138.312802 
L 212.065909 137.557957 
L 235.315909 137.319425 
L 249.054545 137.279589 
L 249.054545 137.279589 
" style="fill:none;stroke:#1f77b4;stroke-linecap:square;stroke-width:1.5;"/>
   </g>
   <g id="line2d_15">
    <path clip-path="url(#pba0a4162bb)" d="M 46.145455 124.396722 
L 46.47571 124.659939 
L 46.673864 124.864147 
L 46.673864 124.864147 
L 47.136222 125.486229 
L 47.466477 125.588179 
L 47.466477 125.588179 
L 48.060937 125.845721 
L 50.042472 126.854606 
L 54.467898 128.069087 
L 54.467898 128.069087 
L 60.874858 129.468403 
L 70.716477 131.09284 
L 70.716477 131.09284 
L 84.124858 132.908019 
L 92.249148 133.886389 
L 92.249148 133.886389 
L 116.357812 136.974077 
L 124.35 138.081449 
L 124.35 138.081449 
L 127.586506 138.524084 
L 131.35142 139.035381 
L 131.35142 139.035381 
L 134.653977 139.431631 
L 134.653977 139.431631 
L 136.239205 139.902865 
L 136.239205 139.902865 
L 139.013352 140.827147 
L 139.013352 140.827147 
L 139.938068 140.83234 
L 139.938068 140.83234 
L 140.730682 140.604212 
L 140.730682 140.604212 
L 141.589347 140.10168 
L 142.580114 139.254396 
L 142.580114 139.254396 
L 145.024006 137.03606 
L 145.618466 136.782465 
L 145.618466 136.782465 
L 146.146875 136.789149 
L 146.146875 136.789149 
L 146.609233 137.058255 
L 147.00554 137.55294 
L 147.401847 138.371656 
L 147.864205 139.84752 
L 147.864205 139.84752 
L 148.392614 142.424157 
L 148.392614 142.424157 
L 148.987074 146.702414 
L 149.581534 152.54349 
L 149.581534 152.54349 
L 150.50625 164.286766 
L 150.50625 164.286766 
L 151.959375 182.977704 
L 151.959375 182.977704 
L 152.487784 186.887198 
L 152.487784 186.887198 
L 152.81804 187.740238 
L 152.950142 187.685499 
L 153.082244 187.376801 
L 153.280398 186.443795 
L 153.280398 186.443795 
L 153.610653 183.341994 
L 153.940909 178.357878 
L 153.940909 178.357878 
L 154.469318 165.936273 
L 154.469318 165.936273 
L 155.063778 145.321951 
L 155.790341 112.132328 
L 155.790341 112.132328 
L 156.450852 78.283636 
L 156.516903 78.357626 
L 156.582955 78.58523 
L 156.582955 78.58523 
L 156.91321 91.088189 
L 157.441619 116.650174 
L 157.837926 143.966895 
L 158.432386 195.839485 
L 158.432386 195.839485 
L 159.158949 260.692275 
L 159.225 261.556364 
L 159.291051 261.311277 
L 159.357102 261.07477 
L 159.357102 261.07477 
L 159.621307 254.151856 
L 159.621307 254.151856 
L 160.083665 229.050244 
L 161.999148 110.088186 
L 161.999148 110.088186 
L 162.527557 95.912736 
L 162.527557 95.912736 
L 162.923864 91.43024 
L 162.923864 91.43024 
L 163.122017 90.949535 
L 163.188068 90.940713 
L 163.188068 90.940713 
L 163.386222 91.726431 
L 163.650426 93.934739 
L 164.046733 99.248585 
L 164.773295 112.242664 
L 164.773295 112.242664 
L 165.896165 131.341014 
L 166.490625 138.3064 
L 166.490625 138.3064 
L 167.085085 142.689447 
L 167.547443 144.579297 
L 167.547443 144.579297 
L 167.94375 145.330269 
L 167.94375 145.330269 
L 168.274006 145.482169 
L 168.53821 145.376106 
L 168.868466 145.030295 
L 168.868466 145.030295 
L 169.528977 143.897209 
L 169.528977 143.897209 
L 171.246307 140.712115 
L 171.246307 140.712115 
L 172.03892 139.750838 
L 172.03892 139.750838 
L 172.831534 139.1681 
L 172.831534 139.1681 
L 173.624148 138.892215 
L 173.624148 138.892215 
L 174.548864 138.838796 
L 174.548864 138.838796 
L 176.001989 139.04368 
L 176.001989 139.04368 
L 178.181676 139.344047 
L 179.634801 139.312021 
L 181.550284 139.03372 
L 181.550284 139.03372 
L 185.183097 138.495601 
L 199.119886 137.078361 
L 199.119886 137.078361 
L 208.565199 135.868886 
L 217.94446 134.487524 
L 224.285369 133.407949 
L 230.824432 132.135366 
L 230.824432 132.135366 
L 236.306676 130.869671 
L 240.666051 129.657985 
L 242.779687 129.011226 
L 244.166761 128.54855 
L 244.166761 128.54855 
L 245.289631 127.920977 
L 245.81804 127.375721 
L 246.148295 126.753359 
L 246.148295 126.753359 
L 246.610653 125.274642 
L 247.997727 119.365518 
L 247.997727 119.365518 
L 248.327983 115.543492 
L 248.658239 111.974475 
L 248.658239 111.974475 
L 248.790341 111.003854 
L 248.856392 111.10333 
L 248.922443 112.239503 
L 248.922443 112.239503 
L 249.054545 118.494096 
L 249.054545 118.494096 
" style="fill:none;stroke:#ff7f0e;stroke-linecap:square;stroke-width:1.5;"/>
   </g>
   <g id="patch_3">
    <path d="M 36 270.72 
L 36 69.12 
" style="fill:none;stroke:#000000;stroke-linecap:square;stroke-linejoin:miter;stroke-width:0.8;"/>
   </g>
   <g id="patch_4">
    <path d="M 259.2 270.72 
L 259.2 69.12 
" style="fill:none;stroke:#000000;stroke-linecap:square;stroke-linejoin:miter;stroke-width:0.8;"/>
   </g>
   <g id="patch_5">
    <path d="M 36 270.72 
L 259.2 270.72 
" style="fill:none;stroke:#000000;stroke-linecap:square;stroke-linejoin:miter;stroke-width:0.8;"/>
   </g>
   <g id="patch_6">
    <path d="M 36 69.12 
L 259.2 69.12 
" style="fill:none;stroke:#000000;stroke-linecap:square;stroke-linejoin:miter;stroke-width:0.8;"/>
   </g>
   <g id="text_16">
    <!-- Topography -->
    <g transform="translate(112.688437 63.12)scale(0.12 -0.12)">
     <use xlink:href="#DejaVuSans-54"/>
     <use x="44.083984" xlink:href="#DejaVuSans-6f"/>
     <use x="105.265625" xlink:href="#DejaVuSans-70"/>
     <use x="168.742188" xlink:href="#DejaVuSans-6f"/>
     <use x="229.923828" xlink:href="#DejaVuSans-67"/>
     <use x="293.400391" xlink:href="#DejaVuSans-72"/>
     <use x="334.513672" xlink:href="#DejaVuSans-61"/>
     <use x="395.792969" xlink:href="#DejaVuSans-70"/>
     <use x="459.269531" xlink:href="#DejaVuSans-68"/>
     <use x="522.648438" xlink:href="#DejaVuSans-79"/>
    </g>
   </g>
   <g id="legend_1">
    <g id="patch_7">
     <path d="M 43 265.72 
L 188.460938 265.72 
Q 190.460938 265.72 190.460938 263.72 
L 190.460938 235.36375 
Q 190.460938 233.36375 188.460938 233.36375 
L 43 233.36375 
Q 41 233.36375 41 235.36375 
L 41 263.72 
Q 41 265.72 43 265.72 
z
" style="fill:#ffffff;opacity:0.8;stroke:#cccccc;stroke-linejoin:miter;"/>
    </g>
    <g id="line2d_16">
     <path d="M 45 241.462187 
L 65 241.462187 
" style="fill:none;stroke:#1f77b4;stroke-linecap:square;stroke-width:1.5;"/>
    </g>
    <g id="line2d_17"/>
    <g id="text_17">
     <!-- CMB Topography (x10) -->
     <g transform="translate(73 244.962187)scale(0.1 -0.1)">
      <defs>
       <path d="M 4122 4306 
L 4122 3641 
Q 3803 3938 3442 4084 
Q 3081 4231 2675 4231 
Q 1875 4231 1450 3742 
Q 1025 3253 1025 2328 
Q 1025 1406 1450 917 
Q 1875 428 2675 428 
Q 3081 428 3442 575 
Q 3803 722 4122 1019 
L 4122 359 
Q 3791 134 3420 21 
Q 3050 -91 2638 -91 
Q 1578 -91 968 557 
Q 359 1206 359 2328 
Q 359 3453 968 4101 
Q 1578 4750 2638 4750 
Q 3056 4750 3426 4639 
Q 3797 4528 4122 4306 
z
" id="DejaVuSans-43" transform="scale(0.015625)"/>
       <path d="M 628 4666 
L 1569 4666 
L 2759 1491 
L 3956 4666 
L 4897 4666 
L 4897 0 
L 4281 0 
L 4281 4097 
L 3078 897 
L 2444 897 
L 1241 4097 
L 1241 0 
L 628 0 
L 628 4666 
z
" id="DejaVuSans-4d" transform="scale(0.015625)"/>
       <path d="M 1259 2228 
L 1259 519 
L 2272 519 
Q 2781 519 3026 730 
Q 3272 941 3272 1375 
Q 3272 1813 3026 2020 
Q 2781 2228 2272 2228 
L 1259 2228 
z
M 1259 4147 
L 1259 2741 
L 2194 2741 
Q 2656 2741 2882 2914 
Q 3109 3088 3109 3444 
Q 3109 3797 2882 3972 
Q 2656 4147 2194 4147 
L 1259 4147 
z
M 628 4666 
L 2241 4666 
Q 2963 4666 3353 4366 
Q 3744 4066 3744 3513 
Q 3744 3084 3544 2831 
Q 3344 2578 2956 2516 
Q 3422 2416 3680 2098 
Q 3938 1781 3938 1306 
Q 3938 681 3513 340 
Q 3088 0 2303 0 
L 628 0 
L 628 4666 
z
" id="DejaVuSans-42" transform="scale(0.015625)"/>
       <path d="M 3513 3500 
L 2247 1797 
L 3578 0 
L 2900 0 
L 1881 1375 
L 863 0 
L 184 0 
L 1544 1831 
L 300 3500 
L 978 3500 
L 1906 2253 
L 2834 3500 
L 3513 3500 
z
" id="DejaVuSans-78" transform="scale(0.015625)"/>
      </defs>
      <use xlink:href="#DejaVuSans-43"/>
      <use x="69.824219" xlink:href="#DejaVuSans-4d"/>
      <use x="156.103516" xlink:href="#DejaVuSans-42"/>
      <use x="224.707031" xlink:href="#DejaVuSans-20"/>
      <use x="256.494141" xlink:href="#DejaVuSans-54"/>
      <use x="300.578125" xlink:href="#DejaVuSans-6f"/>
      <use x="361.759766" xlink:href="#DejaVuSans-70"/>
      <use x="425.236328" xlink:href="#DejaVuSans-6f"/>
      <use x="486.417969" xlink:href="#DejaVuSans-67"/>
      <use x="549.894531" xlink:href="#DejaVuSans-72"/>
      <use x="591.007812" xlink:href="#DejaVuSans-61"/>
      <use x="652.287109" xlink:href="#DejaVuSans-70"/>
      <use x="715.763672" xlink:href="#DejaVuSans-68"/>
      <use x="779.142578" xlink:href="#DejaVuSans-79"/>
      <use x="838.322266" xlink:href="#DejaVuSans-20"/>
      <use x="870.109375" xlink:href="#DejaVuSans-28"/>
      <use x="909.123047" xlink:href="#DejaVuSans-78"/>
      <use x="968.302734" xlink:href="#DejaVuSans-31"/>
      <use x="1031.925781" xlink:href="#DejaVuSans-30"/>
      <use x="1095.548828" xlink:href="#DejaVuSans-29"/>
     </g>
    </g>
    <g id="line2d_18">
     <path d="M 45 256.140312 
L 65 256.140312 
" style="fill:none;stroke:#ff7f0e;stroke-linecap:square;stroke-width:1.5;"/>
    </g>
    <g id="line2d_19"/>
    <g id="text_18">
     <!-- Surface Topography -->
     <g transform="translate(73 259.640312)scale(0.1 -0.1)">
      <defs>
       <path d="M 3425 4513 
L 3425 3897 
Q 3066 4069 2747 4153 
Q 2428 4238 2131 4238 
Q 1616 4238 1336 4038 
Q 1056 3838 1056 3469 
Q 1056 3159 1242 3001 
Q 1428 2844 1947 2747 
L 2328 2669 
Q 3034 2534 3370 2195 
Q 3706 1856 3706 1288 
Q 3706 609 3251 259 
Q 2797 -91 1919 -91 
Q 1588 -91 1214 -16 
Q 841 59 441 206 
L 441 856 
Q 825 641 1194 531 
Q 1563 422 1919 422 
Q 2459 422 2753 634 
Q 3047 847 3047 1241 
Q 3047 1584 2836 1778 
Q 2625 1972 2144 2069 
L 1759 2144 
Q 1053 2284 737 2584 
Q 422 2884 422 3419 
Q 422 4038 858 4394 
Q 1294 4750 2059 4750 
Q 2388 4750 2728 4690 
Q 3069 4631 3425 4513 
z
" id="DejaVuSans-53" transform="scale(0.015625)"/>
       <path d="M 544 1381 
L 544 3500 
L 1119 3500 
L 1119 1403 
Q 1119 906 1312 657 
Q 1506 409 1894 409 
Q 2359 409 2629 706 
Q 2900 1003 2900 1516 
L 2900 3500 
L 3475 3500 
L 3475 0 
L 2900 0 
L 2900 538 
Q 2691 219 2414 64 
Q 2138 -91 1772 -91 
Q 1169 -91 856 284 
Q 544 659 544 1381 
z
M 1991 3584 
L 1991 3584 
z
" id="DejaVuSans-75" transform="scale(0.015625)"/>
       <path d="M 2375 4863 
L 2375 4384 
L 1825 4384 
Q 1516 4384 1395 4259 
Q 1275 4134 1275 3809 
L 1275 3500 
L 2222 3500 
L 2222 3053 
L 1275 3053 
L 1275 0 
L 697 0 
L 697 3053 
L 147 3053 
L 147 3500 
L 697 3500 
L 697 3744 
Q 697 4328 969 4595 
Q 1241 4863 1831 4863 
L 2375 4863 
z
" id="DejaVuSans-66" transform="scale(0.015625)"/>
       <path d="M 3122 3366 
L 3122 2828 
Q 2878 2963 2633 3030 
Q 2388 3097 2138 3097 
Q 1578 3097 1268 2742 
Q 959 2388 959 1747 
Q 959 1106 1268 751 
Q 1578 397 2138 397 
Q 2388 397 2633 464 
Q 2878 531 3122 666 
L 3122 134 
Q 2881 22 2623 -34 
Q 2366 -91 2075 -91 
Q 1284 -91 818 406 
Q 353 903 353 1747 
Q 353 2603 823 3093 
Q 1294 3584 2113 3584 
Q 2378 3584 2631 3529 
Q 2884 3475 3122 3366 
z
" id="DejaVuSans-63" transform="scale(0.015625)"/>
      </defs>
      <use xlink:href="#DejaVuSans-53"/>
      <use x="63.476562" xlink:href="#DejaVuSans-75"/>
      <use x="126.855469" xlink:href="#DejaVuSans-72"/>
      <use x="167.96875" xlink:href="#DejaVuSans-66"/>
      <use x="203.173828" xlink:href="#DejaVuSans-61"/>
      <use x="264.453125" xlink:href="#DejaVuSans-63"/>
      <use x="319.433594" xlink:href="#DejaVuSans-65"/>
      <use x="380.957031" xlink:href="#DejaVuSans-20"/>
      <use x="412.744141" xlink:href="#DejaVuSans-54"/>
      <use x="456.828125" xlink:href="#DejaVuSans-6f"/>
      <use x="518.009766" xlink:href="#DejaVuSans-70"/>
      <use x="581.486328" xlink:href="#DejaVuSans-6f"/>
      <use x="642.667969" xlink:href="#DejaVuSans-67"/>
      <use x="706.144531" xlink:href="#DejaVuSans-72"/>
      <use x="747.257812" xlink:href="#DejaVuSans-61"/>
      <use x="808.537109" xlink:href="#DejaVuSans-70"/>
      <use x="872.013672" xlink:href="#DejaVuSans-68"/>
      <use x="935.392578" xlink:href="#DejaVuSans-79"/>
     </g>
    </g>
   </g>
  </g>
  <g id="axes_2">
   <g id="patch_8">
    <path d="M 36 512.64 
L 259.2 512.64 
L 259.2 311.04 
L 36 311.04 
z
" style="fill:#ffffff;"/>
   </g>
   <g id="matplotlib.axis_3">
    <g id="xtick_6">
     <g id="line2d_20">
      <g>
       <use style="stroke:#000000;stroke-width:0.8;" x="46.145455" xlink:href="#m523c214628" y="512.64"/>
      </g>
     </g>
     <g id="text_19">
      <!-- 0 -->
      <g transform="translate(42.964205 527.238438)scale(0.1 -0.1)">
       <use xlink:href="#DejaVuSans-30"/>
      </g>
     </g>
    </g>
    <g id="xtick_7">
     <g id="line2d_21">
      <g>
       <use style="stroke:#000000;stroke-width:0.8;" x="91.236364" xlink:href="#m523c214628" y="512.64"/>
      </g>
     </g>
     <g id="text_20">
      <!-- 2 -->
      <g transform="translate(88.055114 527.238438)scale(0.1 -0.1)">
       <use xlink:href="#DejaVuSans-32"/>
      </g>
     </g>
    </g>
    <g id="xtick_8">
     <g id="line2d_22">
      <g>
       <use style="stroke:#000000;stroke-width:0.8;" x="136.327273" xlink:href="#m523c214628" y="512.64"/>
      </g>
     </g>
     <g id="text_21">
      <!-- 4 -->
      <g transform="translate(133.146023 527.238438)scale(0.1 -0.1)">
       <use xlink:href="#DejaVuSans-34"/>
      </g>
     </g>
    </g>
    <g id="xtick_9">
     <g id="line2d_23">
      <g>
       <use style="stroke:#000000;stroke-width:0.8;" x="181.418182" xlink:href="#m523c214628" y="512.64"/>
      </g>
     </g>
     <g id="text_22">
      <!-- 6 -->
      <g transform="translate(178.236932 527.238438)scale(0.1 -0.1)">
       <use xlink:href="#DejaVuSans-36"/>
      </g>
     </g>
    </g>
    <g id="xtick_10">
     <g id="line2d_24">
      <g>
       <use style="stroke:#000000;stroke-width:0.8;" x="226.509091" xlink:href="#m523c214628" y="512.64"/>
      </g>
     </g>
     <g id="text_23">
      <!-- 8 -->
      <g transform="translate(223.327841 527.238438)scale(0.1 -0.1)">
       <use xlink:href="#DejaVuSans-38"/>
      </g>
     </g>
    </g>
    <g id="text_24">
     <!-- 1e6 -->
     <g transform="translate(240.321875 539.916563)scale(0.1 -0.1)">
      <use xlink:href="#DejaVuSans-31"/>
      <use x="63.623047" xlink:href="#DejaVuSans-65"/>
      <use x="125.146484" xlink:href="#DejaVuSans-36"/>
     </g>
    </g>
   </g>
   <g id="matplotlib.axis_4">
    <g id="ytick_9">
     <g id="line2d_25">
      <g>
       <use style="stroke:#000000;stroke-width:0.8;" x="36" xlink:href="#mff7d8c52c2" y="499.191299"/>
      </g>
     </g>
     <g id="text_25">
      <!-- 0 -->
      <g transform="translate(22.6375 502.990518)scale(0.1 -0.1)">
       <use xlink:href="#DejaVuSans-30"/>
      </g>
     </g>
    </g>
    <g id="ytick_10">
     <g id="line2d_26">
      <g>
       <use style="stroke:#000000;stroke-width:0.8;" x="36" xlink:href="#mff7d8c52c2" y="472.294821"/>
      </g>
     </g>
     <g id="text_26">
      <!-- 250 -->
      <g transform="translate(9.9125 476.09404)scale(0.1 -0.1)">
       <use xlink:href="#DejaVuSans-32"/>
       <use x="63.623047" xlink:href="#DejaVuSans-35"/>
       <use x="127.246094" xlink:href="#DejaVuSans-30"/>
      </g>
     </g>
    </g>
    <g id="ytick_11">
     <g id="line2d_27">
      <g>
       <use style="stroke:#000000;stroke-width:0.8;" x="36" xlink:href="#mff7d8c52c2" y="445.398343"/>
      </g>
     </g>
     <g id="text_27">
      <!-- 500 -->
      <g transform="translate(9.9125 449.197561)scale(0.1 -0.1)">
       <use xlink:href="#DejaVuSans-35"/>
       <use x="63.623047" xlink:href="#DejaVuSans-30"/>
       <use x="127.246094" xlink:href="#DejaVuSans-30"/>
      </g>
     </g>
    </g>
    <g id="ytick_12">
     <g id="line2d_28">
      <g>
       <use style="stroke:#000000;stroke-width:0.8;" x="36" xlink:href="#mff7d8c52c2" y="418.501865"/>
      </g>
     </g>
     <g id="text_28">
      <!-- 750 -->
      <g transform="translate(9.9125 422.301083)scale(0.1 -0.1)">
       <defs>
        <path d="M 525 4666 
L 3525 4666 
L 3525 4397 
L 1831 0 
L 1172 0 
L 2766 4134 
L 525 4134 
L 525 4666 
z
" id="DejaVuSans-37" transform="scale(0.015625)"/>
       </defs>
       <use xlink:href="#DejaVuSans-37"/>
       <use x="63.623047" xlink:href="#DejaVuSans-35"/>
       <use x="127.246094" xlink:href="#DejaVuSans-30"/>
      </g>
     </g>
    </g>
    <g id="ytick_13">
     <g id="line2d_29">
      <g>
       <use style="stroke:#000000;stroke-width:0.8;" x="36" xlink:href="#mff7d8c52c2" y="391.605386"/>
      </g>
     </g>
     <g id="text_29">
      <!-- 1000 -->
      <g transform="translate(3.55 395.404605)scale(0.1 -0.1)">
       <use xlink:href="#DejaVuSans-31"/>
       <use x="63.623047" xlink:href="#DejaVuSans-30"/>
       <use x="127.246094" xlink:href="#DejaVuSans-30"/>
       <use x="190.869141" xlink:href="#DejaVuSans-30"/>
      </g>
     </g>
    </g>
    <g id="ytick_14">
     <g id="line2d_30">
      <g>
       <use style="stroke:#000000;stroke-width:0.8;" x="36" xlink:href="#mff7d8c52c2" y="364.708908"/>
      </g>
     </g>
     <g id="text_30">
      <!-- 1250 -->
      <g transform="translate(3.55 368.508127)scale(0.1 -0.1)">
       <use xlink:href="#DejaVuSans-31"/>
       <use x="63.623047" xlink:href="#DejaVuSans-32"/>
       <use x="127.246094" xlink:href="#DejaVuSans-35"/>
       <use x="190.869141" xlink:href="#DejaVuSans-30"/>
      </g>
     </g>
    </g>
    <g id="ytick_15">
     <g id="line2d_31">
      <g>
       <use style="stroke:#000000;stroke-width:0.8;" x="36" xlink:href="#mff7d8c52c2" y="337.81243"/>
      </g>
     </g>
     <g id="text_31">
      <!-- 1500 -->
      <g transform="translate(3.55 341.611649)scale(0.1 -0.1)">
       <use xlink:href="#DejaVuSans-31"/>
       <use x="63.623047" xlink:href="#DejaVuSans-35"/>
       <use x="127.246094" xlink:href="#DejaVuSans-30"/>
       <use x="190.869141" xlink:href="#DejaVuSans-30"/>
      </g>
     </g>
    </g>
    <g id="text_32">
     <!-- Geoid anomaly (m) -->
     <g transform="translate(-2.529688 459.938437)rotate(-90)scale(0.1 -0.1)">
      <defs>
       <path d="M 3809 666 
L 3809 1919 
L 2778 1919 
L 2778 2438 
L 4434 2438 
L 4434 434 
Q 4069 175 3628 42 
Q 3188 -91 2688 -91 
Q 1594 -91 976 548 
Q 359 1188 359 2328 
Q 359 3472 976 4111 
Q 1594 4750 2688 4750 
Q 3144 4750 3555 4637 
Q 3966 4525 4313 4306 
L 4313 3634 
Q 3963 3931 3569 4081 
Q 3175 4231 2741 4231 
Q 1884 4231 1454 3753 
Q 1025 3275 1025 2328 
Q 1025 1384 1454 906 
Q 1884 428 2741 428 
Q 3075 428 3337 486 
Q 3600 544 3809 666 
z
" id="DejaVuSans-47" transform="scale(0.015625)"/>
       <path d="M 603 3500 
L 1178 3500 
L 1178 0 
L 603 0 
L 603 3500 
z
M 603 4863 
L 1178 4863 
L 1178 4134 
L 603 4134 
L 603 4863 
z
" id="DejaVuSans-69" transform="scale(0.015625)"/>
       <path d="M 2906 2969 
L 2906 4863 
L 3481 4863 
L 3481 0 
L 2906 0 
L 2906 525 
Q 2725 213 2448 61 
Q 2172 -91 1784 -91 
Q 1150 -91 751 415 
Q 353 922 353 1747 
Q 353 2572 751 3078 
Q 1150 3584 1784 3584 
Q 2172 3584 2448 3432 
Q 2725 3281 2906 2969 
z
M 947 1747 
Q 947 1113 1208 752 
Q 1469 391 1925 391 
Q 2381 391 2643 752 
Q 2906 1113 2906 1747 
Q 2906 2381 2643 2742 
Q 2381 3103 1925 3103 
Q 1469 3103 1208 2742 
Q 947 2381 947 1747 
z
" id="DejaVuSans-64" transform="scale(0.015625)"/>
       <path d="M 3513 2113 
L 3513 0 
L 2938 0 
L 2938 2094 
Q 2938 2591 2744 2837 
Q 2550 3084 2163 3084 
Q 1697 3084 1428 2787 
Q 1159 2491 1159 1978 
L 1159 0 
L 581 0 
L 581 3500 
L 1159 3500 
L 1159 2956 
Q 1366 3272 1645 3428 
Q 1925 3584 2291 3584 
Q 2894 3584 3203 3211 
Q 3513 2838 3513 2113 
z
" id="DejaVuSans-6e" transform="scale(0.015625)"/>
       <path d="M 603 4863 
L 1178 4863 
L 1178 0 
L 603 0 
L 603 4863 
z
" id="DejaVuSans-6c" transform="scale(0.015625)"/>
      </defs>
      <use xlink:href="#DejaVuSans-47"/>
      <use x="77.490234" xlink:href="#DejaVuSans-65"/>
      <use x="139.013672" xlink:href="#DejaVuSans-6f"/>
      <use x="200.195312" xlink:href="#DejaVuSans-69"/>
      <use x="227.978516" xlink:href="#DejaVuSans-64"/>
      <use x="291.455078" xlink:href="#DejaVuSans-20"/>
      <use x="323.242188" xlink:href="#DejaVuSans-61"/>
      <use x="384.521484" xlink:href="#DejaVuSans-6e"/>
      <use x="447.900391" xlink:href="#DejaVuSans-6f"/>
      <use x="509.082031" xlink:href="#DejaVuSans-6d"/>
      <use x="606.494141" xlink:href="#DejaVuSans-61"/>
      <use x="667.773438" xlink:href="#DejaVuSans-6c"/>
      <use x="695.556641" xlink:href="#DejaVuSans-79"/>
      <use x="754.736328" xlink:href="#DejaVuSans-20"/>
      <use x="786.523438" xlink:href="#DejaVuSans-28"/>
      <use x="825.537109" xlink:href="#DejaVuSans-6d"/>
      <use x="922.949219" xlink:href="#DejaVuSans-29"/>
     </g>
    </g>
   </g>
   <g id="line2d_32">
    <path clip-path="url(#p82618e7d3b)" d="M 46.145455 497.525009 
L 48.19304 496.625982 
L 52.684517 494.413147 
L 58.497017 491.297448 
L 65.300284 487.393008 
L 65.300284 487.393008 
L 73.094318 482.657634 
L 73.094318 482.657634 
L 82.143324 476.891932 
L 92.777557 469.844992 
L 92.777557 469.844992 
L 104.60071 461.74475 
L 114.970739 454.383117 
L 114.970739 454.383117 
L 123.359233 448.166598 
L 130.228551 442.806615 
L 136.371307 437.734729 
L 136.371307 437.734729 
L 146.807386 429.013464 
L 146.807386 429.013464 
L 148.590767 427.9009 
L 150.043892 427.246475 
L 151.232812 426.939774 
L 152.289631 426.888289 
L 153.280398 427.070978 
L 153.280398 427.070978 
L 154.271165 427.50007 
L 155.460085 428.282707 
L 157.309517 429.503878 
L 158.564489 429.957698 
L 158.564489 429.957698 
L 160.215767 430.627414 
L 163.84858 432.390473 
L 163.84858 432.390473 
L 176.530398 438.888961 
L 176.530398 438.888961 
L 184.984943 443.444213 
L 184.984943 443.444213 
L 192.38267 447.683839 
L 192.38267 447.683839 
L 199.582244 452.068486 
L 206.91392 456.796022 
L 206.91392 456.796022 
L 214.774006 462.134009 
L 223.955114 468.649719 
L 223.955114 468.649719 
L 249.054545 486.788184 
L 249.054545 486.788184 
" style="fill:none;stroke:#1f77b4;stroke-linecap:square;stroke-width:1.5;"/>
   </g>
   <g id="line2d_33">
    <path clip-path="url(#p82618e7d3b)" d="M 46.145455 499.870336 
L 46.47571 500.495068 
L 47.136222 501.243053 
L 48.060937 501.961991 
L 49.183807 502.544321 
L 49.183807 502.544321 
L 50.636932 503.037734 
L 50.636932 503.037734 
L 52.222159 503.344618 
L 52.222159 503.344618 
L 54.071591 503.474095 
L 54.071591 503.474095 
L 56.185227 503.393984 
L 56.185227 503.393984 
L 58.629119 503.066791 
L 61.403267 502.468924 
L 64.441619 501.58427 
L 68.008381 500.302672 
L 71.971449 498.636512 
L 76.330824 496.551798 
L 81.284659 493.936687 
L 81.284659 493.936687 
L 86.56875 490.88521 
L 86.56875 490.88521 
L 92.711506 487.081062 
L 99.250568 482.74523 
L 99.250568 482.74523 
L 106.185937 477.89946 
L 115.300994 471.227 
L 127.190199 462.176997 
L 135.182386 455.825975 
L 135.182386 455.825975 
L 141.457244 450.664826 
L 143.901136 448.720746 
L 143.901136 448.720746 
L 145.090057 447.472794 
L 145.090057 447.472794 
L 146.080824 446.119109 
L 147.00554 444.486015 
L 147.930256 442.390232 
L 148.921023 439.562876 
L 148.921023 439.562876 
L 150.638352 433.768105 
L 150.638352 433.768105 
L 151.563068 431.106379 
L 151.563068 431.106379 
L 152.091477 430.126181 
L 152.091477 430.126181 
L 152.487784 429.769525 
L 152.487784 429.769525 
L 152.81804 429.766402 
L 153.148295 430.057145 
L 153.148295 430.057145 
L 153.544602 430.813576 
L 153.544602 430.813576 
L 154.00696 432.256585 
L 154.60142 434.903745 
L 154.60142 434.903745 
L 156.31875 443.322155 
L 156.31875 443.322155 
L 156.516903 443.50081 
L 156.649006 443.349231 
L 156.91321 442.513644 
L 157.309517 440.325839 
L 157.903977 435.495672 
L 157.903977 435.495672 
L 159.026847 425.79959 
L 159.291051 425.201081 
L 159.423153 425.279566 
L 159.621307 425.820435 
L 159.621307 425.820435 
L 159.951562 427.687291 
L 160.479972 432.452501 
L 162.395455 451.481441 
L 162.395455 451.481441 
L 162.989915 454.689828 
L 163.452273 456.084034 
L 163.452273 456.084034 
L 163.84858 456.622225 
L 163.84858 456.622225 
L 164.178835 456.696686 
L 164.509091 456.510091 
L 164.509091 456.510091 
L 164.971449 455.948936 
L 167.217187 452.724961 
L 167.811648 452.396664 
L 167.811648 452.396664 
L 168.406108 452.324426 
L 169.066619 452.481768 
L 169.925284 452.933026 
L 169.925284 452.933026 
L 171.774716 454.244846 
L 171.774716 454.244846 
L 173.888352 455.627347 
L 173.888352 455.627347 
L 176.398295 456.966834 
L 176.398295 456.966834 
L 180.955824 459.390786 
L 192.712926 466.22398 
L 205.460795 473.970335 
L 205.460795 473.970335 
L 222.039631 484.040816 
L 228.050284 487.411666 
L 228.050284 487.411666 
L 232.673864 489.765386 
L 232.673864 489.765386 
L 236.570881 491.504906 
L 239.741335 492.679615 
L 242.383381 493.447101 
L 245.421733 494.056173 
L 247.865625 494.430362 
L 247.865625 494.430362 
L 248.460085 494.241337 
L 248.72429 493.939654 
L 248.988494 493.292219 
L 249.054545 493.021712 
L 249.054545 493.021712 
" style="fill:none;stroke:#ff7f0e;stroke-linecap:square;stroke-width:1.5;"/>
   </g>
   <g id="line2d_34">
    <path clip-path="url(#p82618e7d3b)" d="M 46.145455 460.296825 
L 124.878409 462.780305 
L 124.878409 462.780305 
L 144.033239 463.09271 
L 144.033239 463.09271 
L 161.272585 463.15208 
L 178.776136 462.986953 
L 178.776136 462.986953 
L 198.19517 462.574955 
L 198.19517 462.574955 
L 222.105682 461.833735 
L 222.105682 461.833735 
L 249.054545 460.847479 
L 249.054545 460.847479 
" style="fill:none;stroke:#2ca02c;stroke-linecap:square;stroke-width:1.5;"/>
   </g>
   <g id="line2d_35">
    <path clip-path="url(#p82618e7d3b)" d="M 46.145455 459.309572 
L 46.47571 459.812982 
L 47.07017 460.261565 
L 47.07017 460.261565 
L 47.862784 460.580397 
L 47.862784 460.580397 
L 48.7875 460.713602 
L 48.7875 460.713602 
L 49.97642 460.656181 
L 49.97642 460.656181 
L 51.429545 460.359853 
L 51.429545 460.359853 
L 53.080824 459.784779 
L 54.996307 458.87812 
L 54.996307 458.87812 
L 57.175994 457.596328 
L 59.751989 455.817789 
L 59.751989 455.817789 
L 62.658239 453.538592 
L 62.658239 453.538592 
L 65.894744 450.711101 
L 69.659659 447.121569 
L 69.659659 447.121569 
L 73.75483 442.906191 
L 73.75483 442.906191 
L 78.510511 437.679073 
L 78.510511 437.679073 
L 83.596449 431.758059 
L 89.541051 424.474806 
L 95.551705 416.771162 
L 95.551705 416.771162 
L 102.81733 407.075718 
L 102.81733 407.075718 
L 110.016903 397.079869 
L 117.414631 386.451335 
L 126.133381 373.45714 
L 132.342187 363.78386 
L 136.371307 357.15808 
L 136.371307 357.15808 
L 141.853551 348.065802 
L 144.429545 343.751905 
L 144.429545 343.751905 
L 145.816619 340.978056 
L 147.00554 338.098885 
L 148.128409 334.778705 
L 148.128409 334.778705 
L 149.383381 330.320801 
L 151.298864 323.461515 
L 151.298864 323.461515 
L 151.893324 322.077864 
L 152.355682 321.507712 
L 152.355682 321.507712 
L 152.685937 321.433989 
L 152.950142 321.598273 
L 153.280398 322.100201 
L 153.280398 322.100201 
L 153.676705 323.149569 
L 153.676705 323.149569 
L 154.205114 325.285376 
L 154.205114 325.285376 
L 154.931676 329.343043 
L 156.186648 336.563016 
L 156.186648 336.563016 
L 156.450852 337.273758 
L 156.450852 337.273758 
L 156.582955 337.318869 
L 156.582955 337.318869 
L 156.781108 337.002419 
L 157.111364 335.725716 
L 157.111364 335.725716 
L 157.573722 332.765453 
L 158.366335 325.761502 
L 159.026847 320.697754 
L 159.225 320.22889 
L 159.225 320.22889 
L 159.357102 320.240064 
L 159.357102 320.240064 
L 159.555256 320.698604 
L 159.81946 322.035941 
L 160.281818 325.905033 
L 160.281818 325.905033 
L 161.206534 336.332596 
L 161.206534 336.332596 
L 162.13125 345.823117 
L 162.13125 345.823117 
L 162.791761 350.431063 
L 162.791761 350.431063 
L 163.32017 352.663548 
L 163.32017 352.663548 
L 163.782528 353.686125 
L 164.112784 353.986191 
L 164.112784 353.986191 
L 164.44304 354.010572 
L 164.839347 353.779577 
L 165.499858 353.06186 
L 166.556676 351.922128 
L 167.151136 351.58046 
L 167.151136 351.58046 
L 167.679545 351.512694 
L 167.679545 351.512694 
L 168.274006 351.685435 
L 168.934517 352.129822 
L 169.859233 353.051295 
L 171.906818 355.52692 
L 171.906818 355.52692 
L 174.284659 358.241322 
L 174.284659 358.241322 
L 178.313778 362.383181 
L 182.276847 366.652962 
L 191.590057 377.12736 
L 191.590057 377.12736 
L 198.987784 385.867501 
L 198.987784 385.867501 
L 206.583665 395.194838 
L 216.75554 408.051014 
L 228.776847 423.167117 
L 234.126989 429.535828 
L 234.126989 429.535828 
L 238.156108 434.014036 
L 241.656818 437.572863 
L 241.656818 437.572863 
L 244.497017 440.133839 
L 247.931676 442.959959 
L 248.460085 443.121789 
L 248.72429 442.988363 
L 248.922443 442.676494 
L 248.922443 442.676494 
L 249.054545 442.274777 
L 249.054545 442.274777 
" style="fill:none;stroke:#000000;stroke-linecap:square;stroke-width:1.5;"/>
   </g>
   <g id="patch_9">
    <path d="M 36 512.64 
L 36 311.04 
" style="fill:none;stroke:#000000;stroke-linecap:square;stroke-linejoin:miter;stroke-width:0.8;"/>
   </g>
   <g id="patch_10">
    <path d="M 259.2 512.64 
L 259.2 311.04 
" style="fill:none;stroke:#000000;stroke-linecap:square;stroke-linejoin:miter;stroke-width:0.8;"/>
   </g>
   <g id="patch_11">
    <path d="M 36 512.64 
L 259.2 512.64 
" style="fill:none;stroke:#000000;stroke-linecap:square;stroke-linejoin:miter;stroke-width:0.8;"/>
   </g>
   <g id="patch_12">
    <path d="M 36 311.04 
L 259.2 311.04 
" style="fill:none;stroke:#000000;stroke-linecap:square;stroke-linejoin:miter;stroke-width:0.8;"/>
   </g>
   <g id="text_33">
    <!-- Geoid -->
    <g transform="translate(130.111875 305.04)scale(0.12 -0.12)">
     <use xlink:href="#DejaVuSans-47"/>
     <use x="77.490234" xlink:href="#DejaVuSans-65"/>
     <use x="139.013672" xlink:href="#DejaVuSans-6f"/>
     <use x="200.195312" xlink:href="#DejaVuSans-69"/>
     <use x="227.978516" xlink:href="#DejaVuSans-64"/>
    </g>
   </g>
   <g id="legend_2">
    <g id="patch_13">
     <path d="M 43 377.7525 
L 111.957813 377.7525 
Q 113.957813 377.7525 113.957813 375.7525 
L 113.957813 318.04 
Q 113.957813 316.04 111.957813 316.04 
L 43 316.04 
Q 41 316.04 41 318.04 
L 41 375.7525 
Q 41 377.7525 43 377.7525 
z
" style="fill:#ffffff;opacity:0.8;stroke:#cccccc;stroke-linejoin:miter;"/>
    </g>
    <g id="line2d_36">
     <path d="M 45 324.138437 
L 65 324.138437 
" style="fill:none;stroke:#1f77b4;stroke-linecap:square;stroke-width:1.5;"/>
    </g>
    <g id="line2d_37"/>
    <g id="text_34">
     <!-- interior -->
     <g transform="translate(73 327.638437)scale(0.1 -0.1)">
      <defs>
       <path d="M 1172 4494 
L 1172 3500 
L 2356 3500 
L 2356 3053 
L 1172 3053 
L 1172 1153 
Q 1172 725 1289 603 
Q 1406 481 1766 481 
L 2356 481 
L 2356 0 
L 1766 0 
Q 1100 0 847 248 
Q 594 497 594 1153 
L 594 3053 
L 172 3053 
L 172 3500 
L 594 3500 
L 594 4494 
L 1172 4494 
z
" id="DejaVuSans-74" transform="scale(0.015625)"/>
      </defs>
      <use xlink:href="#DejaVuSans-69"/>
      <use x="27.783203" xlink:href="#DejaVuSans-6e"/>
      <use x="91.162109" xlink:href="#DejaVuSans-74"/>
      <use x="130.371094" xlink:href="#DejaVuSans-65"/>
      <use x="191.894531" xlink:href="#DejaVuSans-72"/>
      <use x="233.007812" xlink:href="#DejaVuSans-69"/>
      <use x="260.791016" xlink:href="#DejaVuSans-6f"/>
      <use x="321.972656" xlink:href="#DejaVuSans-72"/>
     </g>
    </g>
    <g id="line2d_38">
     <path d="M 45 338.816562 
L 65 338.816562 
" style="fill:none;stroke:#ff7f0e;stroke-linecap:square;stroke-width:1.5;"/>
    </g>
    <g id="line2d_39"/>
    <g id="text_35">
     <!-- surface -->
     <g transform="translate(73 342.316562)scale(0.1 -0.1)">
      <defs>
       <path d="M 2834 3397 
L 2834 2853 
Q 2591 2978 2328 3040 
Q 2066 3103 1784 3103 
Q 1356 3103 1142 2972 
Q 928 2841 928 2578 
Q 928 2378 1081 2264 
Q 1234 2150 1697 2047 
L 1894 2003 
Q 2506 1872 2764 1633 
Q 3022 1394 3022 966 
Q 3022 478 2636 193 
Q 2250 -91 1575 -91 
Q 1294 -91 989 -36 
Q 684 19 347 128 
L 347 722 
Q 666 556 975 473 
Q 1284 391 1588 391 
Q 1994 391 2212 530 
Q 2431 669 2431 922 
Q 2431 1156 2273 1281 
Q 2116 1406 1581 1522 
L 1381 1569 
Q 847 1681 609 1914 
Q 372 2147 372 2553 
Q 372 3047 722 3315 
Q 1072 3584 1716 3584 
Q 2034 3584 2315 3537 
Q 2597 3491 2834 3397 
z
" id="DejaVuSans-73" transform="scale(0.015625)"/>
      </defs>
      <use xlink:href="#DejaVuSans-73"/>
      <use x="52.099609" xlink:href="#DejaVuSans-75"/>
      <use x="115.478516" xlink:href="#DejaVuSans-72"/>
      <use x="156.591797" xlink:href="#DejaVuSans-66"/>
      <use x="191.796875" xlink:href="#DejaVuSans-61"/>
      <use x="253.076172" xlink:href="#DejaVuSans-63"/>
      <use x="308.056641" xlink:href="#DejaVuSans-65"/>
     </g>
    </g>
    <g id="line2d_40">
     <path d="M 45 353.494687 
L 65 353.494687 
" style="fill:none;stroke:#2ca02c;stroke-linecap:square;stroke-width:1.5;"/>
    </g>
    <g id="line2d_41"/>
    <g id="text_36">
     <!-- cmb -->
     <g transform="translate(73 356.994687)scale(0.1 -0.1)">
      <defs>
       <path d="M 3116 1747 
Q 3116 2381 2855 2742 
Q 2594 3103 2138 3103 
Q 1681 3103 1420 2742 
Q 1159 2381 1159 1747 
Q 1159 1113 1420 752 
Q 1681 391 2138 391 
Q 2594 391 2855 752 
Q 3116 1113 3116 1747 
z
M 1159 2969 
Q 1341 3281 1617 3432 
Q 1894 3584 2278 3584 
Q 2916 3584 3314 3078 
Q 3713 2572 3713 1747 
Q 3713 922 3314 415 
Q 2916 -91 2278 -91 
Q 1894 -91 1617 61 
Q 1341 213 1159 525 
L 1159 0 
L 581 0 
L 581 4863 
L 1159 4863 
L 1159 2969 
z
" id="DejaVuSans-62" transform="scale(0.015625)"/>
      </defs>
      <use xlink:href="#DejaVuSans-63"/>
      <use x="54.980469" xlink:href="#DejaVuSans-6d"/>
      <use x="152.392578" xlink:href="#DejaVuSans-62"/>
     </g>
    </g>
    <g id="line2d_42">
     <path d="M 45 368.172812 
L 65 368.172812 
" style="fill:none;stroke:#000000;stroke-linecap:square;stroke-width:1.5;"/>
    </g>
    <g id="line2d_43"/>
    <g id="text_37">
     <!-- Total -->
     <g transform="translate(73 371.672812)scale(0.1 -0.1)">
      <use xlink:href="#DejaVuSans-54"/>
      <use x="44.083984" xlink:href="#DejaVuSans-6f"/>
      <use x="105.265625" xlink:href="#DejaVuSans-74"/>
      <use x="144.474609" xlink:href="#DejaVuSans-61"/>
      <use x="205.753906" xlink:href="#DejaVuSans-6c"/>
     </g>
    </g>
   </g>
  </g>
 </g>
 <defs>
  <clipPath id="pba0a4162bb">
   <rect height="201.6" width="223.2" x="36" y="69.12"/>
  </clipPath>
  <clipPath id="p82618e7d3b">
   <rect height="201.6" width="223.2" x="36" y="311.04"/>
  </clipPath>
 </defs>
</svg>
