<?xml version="1.0" encoding="utf-8" standalone="no"?>
<!DOCTYPE svg PUBLIC "-//W3C//DTD SVG 1.1//EN"
  "http://www.w3.org/Graphics/SVG/1.1/DTD/svg11.dtd">
<svg height="576pt" version="1.1" viewBox="0 0 288 576" width="288pt" xmlns="http://www.w3.org/2000/svg" xmlns:xlink="http://www.w3.org/1999/xlink">
 <metadata>
  <rdf:RDF xmlns:cc="http://creativecommons.org/ns#" xmlns:dc="http://purl.org/dc/elements/1.1/" xmlns:rdf="http://www.w3.org/1999/02/22-rdf-syntax-ns#">
   <cc:Work>
    <dc:type rdf:resource="http://purl.org/dc/dcmitype/StillImage"/>
    <dc:date>2021-07-12T11:02:26.017478</dc:date>
    <dc:format>image/svg+xml</dc:format>
    <dc:creator>
     <cc:Agent>
      <dc:title>Matplotlib v3.4.2, https://matplotlib.org/</dc:title>
     </cc:Agent>
    </dc:creator>
   </cc:Work>
  </rdf:RDF>
 </metadata>
 <defs>
  <style type="text/css">*{stroke-linecap:butt;stroke-linejoin:round;}</style>
 </defs>
 <g id="figure_1">
  <g id="patch_1">
   <path d="M 0 576 
L 288 576 
L 288 0 
L 0 0 
z
" style="fill:#ffffff;"/>
  </g>
  <g id="axes_1">
   <g id="patch_2">
    <path d="M 36 270.72 
L 259.2 270.72 
L 259.2 69.12 
L 36 69.12 
z
" style="fill:#ffffff;"/>
   </g>
   <g id="matplotlib.axis_1">
    <g id="xtick_1">
     <g id="line2d_1">
      <defs>
       <path d="M 0 0 
L 0 3.5 
" id="m69602da2e4" style="stroke:#000000;stroke-width:0.8;"/>
      </defs>
      <g>
       <use style="stroke:#000000;stroke-width:0.8;" x="46.145455" xlink:href="#m69602da2e4" y="270.72"/>
      </g>
     </g>
     <g id="text_1">
      <!-- 0 -->
      <g transform="translate(42.964205 285.318437)scale(0.1 -0.1)">
       <defs>
        <path d="M 2034 4250 
Q 1547 4250 1301 3770 
Q 1056 3291 1056 2328 
Q 1056 1369 1301 889 
Q 1547 409 2034 409 
Q 2525 409 2770 889 
Q 3016 1369 3016 2328 
Q 3016 3291 2770 3770 
Q 2525 4250 2034 4250 
z
M 2034 4750 
Q 2819 4750 3233 4129 
Q 3647 3509 3647 2328 
Q 3647 1150 3233 529 
Q 2819 -91 2034 -91 
Q 1250 -91 836 529 
Q 422 1150 422 2328 
Q 422 3509 836 4129 
Q 1250 4750 2034 4750 
z
" id="DejaVuSans-30" transform="scale(0.015625)"/>
       </defs>
       <use xlink:href="#DejaVuSans-30"/>
      </g>
     </g>
    </g>
    <g id="xtick_2">
     <g id="line2d_2">
      <g>
       <use style="stroke:#000000;stroke-width:0.8;" x="91.236364" xlink:href="#m69602da2e4" y="270.72"/>
      </g>
     </g>
     <g id="text_2">
      <!-- 1 -->
      <g transform="translate(88.055114 285.318437)scale(0.1 -0.1)">
       <defs>
        <path d="M 794 531 
L 1825 531 
L 1825 4091 
L 703 3866 
L 703 4441 
L 1819 4666 
L 2450 4666 
L 2450 531 
L 3481 531 
L 3481 0 
L 794 0 
L 794 531 
z
" id="DejaVuSans-31" transform="scale(0.015625)"/>
       </defs>
       <use xlink:href="#DejaVuSans-31"/>
      </g>
     </g>
    </g>
    <g id="xtick_3">
     <g id="line2d_3">
      <g>
       <use style="stroke:#000000;stroke-width:0.8;" x="136.327273" xlink:href="#m69602da2e4" y="270.72"/>
      </g>
     </g>
     <g id="text_3">
      <!-- 2 -->
      <g transform="translate(133.146023 285.318437)scale(0.1 -0.1)">
       <defs>
        <path d="M 1228 531 
L 3431 531 
L 3431 0 
L 469 0 
L 469 531 
Q 828 903 1448 1529 
Q 2069 2156 2228 2338 
Q 2531 2678 2651 2914 
Q 2772 3150 2772 3378 
Q 2772 3750 2511 3984 
Q 2250 4219 1831 4219 
Q 1534 4219 1204 4116 
Q 875 4013 500 3803 
L 500 4441 
Q 881 4594 1212 4672 
Q 1544 4750 1819 4750 
Q 2544 4750 2975 4387 
Q 3406 4025 3406 3419 
Q 3406 3131 3298 2873 
Q 3191 2616 2906 2266 
Q 2828 2175 2409 1742 
Q 1991 1309 1228 531 
z
" id="DejaVuSans-32" transform="scale(0.015625)"/>
       </defs>
       <use xlink:href="#DejaVuSans-32"/>
      </g>
     </g>
    </g>
    <g id="xtick_4">
     <g id="line2d_4">
      <g>
       <use style="stroke:#000000;stroke-width:0.8;" x="181.418182" xlink:href="#m69602da2e4" y="270.72"/>
      </g>
     </g>
     <g id="text_4">
      <!-- 3 -->
      <g transform="translate(178.236932 285.318437)scale(0.1 -0.1)">
       <defs>
        <path d="M 2597 2516 
Q 3050 2419 3304 2112 
Q 3559 1806 3559 1356 
Q 3559 666 3084 287 
Q 2609 -91 1734 -91 
Q 1441 -91 1130 -33 
Q 819 25 488 141 
L 488 750 
Q 750 597 1062 519 
Q 1375 441 1716 441 
Q 2309 441 2620 675 
Q 2931 909 2931 1356 
Q 2931 1769 2642 2001 
Q 2353 2234 1838 2234 
L 1294 2234 
L 1294 2753 
L 1863 2753 
Q 2328 2753 2575 2939 
Q 2822 3125 2822 3475 
Q 2822 3834 2567 4026 
Q 2313 4219 1838 4219 
Q 1578 4219 1281 4162 
Q 984 4106 628 3988 
L 628 4550 
Q 988 4650 1302 4700 
Q 1616 4750 1894 4750 
Q 2613 4750 3031 4423 
Q 3450 4097 3450 3541 
Q 3450 3153 3228 2886 
Q 3006 2619 2597 2516 
z
" id="DejaVuSans-33" transform="scale(0.015625)"/>
       </defs>
       <use xlink:href="#DejaVuSans-33"/>
      </g>
     </g>
    </g>
    <g id="xtick_5">
     <g id="line2d_5">
      <g>
       <use style="stroke:#000000;stroke-width:0.8;" x="226.509091" xlink:href="#m69602da2e4" y="270.72"/>
      </g>
     </g>
     <g id="text_5">
      <!-- 4 -->
      <g transform="translate(223.327841 285.318437)scale(0.1 -0.1)">
       <defs>
        <path d="M 2419 4116 
L 825 1625 
L 2419 1625 
L 2419 4116 
z
M 2253 4666 
L 3047 4666 
L 3047 1625 
L 3713 1625 
L 3713 1100 
L 3047 1100 
L 3047 0 
L 2419 0 
L 2419 1100 
L 313 1100 
L 313 1709 
L 2253 4666 
z
" id="DejaVuSans-34" transform="scale(0.015625)"/>
       </defs>
       <use xlink:href="#DejaVuSans-34"/>
      </g>
     </g>
    </g>
    <g id="text_6">
     <!-- 1e6 -->
     <g transform="translate(240.321875 297.996562)scale(0.1 -0.1)">
      <defs>
       <path d="M 3597 1894 
L 3597 1613 
L 953 1613 
Q 991 1019 1311 708 
Q 1631 397 2203 397 
Q 2534 397 2845 478 
Q 3156 559 3463 722 
L 3463 178 
Q 3153 47 2828 -22 
Q 2503 -91 2169 -91 
Q 1331 -91 842 396 
Q 353 884 353 1716 
Q 353 2575 817 3079 
Q 1281 3584 2069 3584 
Q 2775 3584 3186 3129 
Q 3597 2675 3597 1894 
z
M 3022 2063 
Q 3016 2534 2758 2815 
Q 2500 3097 2075 3097 
Q 1594 3097 1305 2825 
Q 1016 2553 972 2059 
L 3022 2063 
z
" id="DejaVuSans-65" transform="scale(0.015625)"/>
       <path d="M 2113 2584 
Q 1688 2584 1439 2293 
Q 1191 2003 1191 1497 
Q 1191 994 1439 701 
Q 1688 409 2113 409 
Q 2538 409 2786 701 
Q 3034 994 3034 1497 
Q 3034 2003 2786 2293 
Q 2538 2584 2113 2584 
z
M 3366 4563 
L 3366 3988 
Q 3128 4100 2886 4159 
Q 2644 4219 2406 4219 
Q 1781 4219 1451 3797 
Q 1122 3375 1075 2522 
Q 1259 2794 1537 2939 
Q 1816 3084 2150 3084 
Q 2853 3084 3261 2657 
Q 3669 2231 3669 1497 
Q 3669 778 3244 343 
Q 2819 -91 2113 -91 
Q 1303 -91 875 529 
Q 447 1150 447 2328 
Q 447 3434 972 4092 
Q 1497 4750 2381 4750 
Q 2619 4750 2861 4703 
Q 3103 4656 3366 4563 
z
" id="DejaVuSans-36" transform="scale(0.015625)"/>
      </defs>
      <use xlink:href="#DejaVuSans-31"/>
      <use x="63.623047" xlink:href="#DejaVuSans-65"/>
      <use x="125.146484" xlink:href="#DejaVuSans-36"/>
     </g>
    </g>
   </g>
   <g id="matplotlib.axis_2">
    <g id="ytick_1">
     <g id="line2d_6">
      <defs>
       <path d="M 0 0 
L -3.5 0 
" id="mb68fa74e56" style="stroke:#000000;stroke-width:0.8;"/>
      </defs>
      <g>
       <use style="stroke:#000000;stroke-width:0.8;" x="36" xlink:href="#mb68fa74e56" y="258.244187"/>
      </g>
     </g>
     <g id="text_7">
      <!-- −20000 -->
      <g transform="translate(-11.192188 262.043406)scale(0.1 -0.1)">
       <defs>
        <path d="M 678 2272 
L 4684 2272 
L 4684 1741 
L 678 1741 
L 678 2272 
z
" id="DejaVuSans-2212" transform="scale(0.015625)"/>
       </defs>
       <use xlink:href="#DejaVuSans-2212"/>
       <use x="83.789062" xlink:href="#DejaVuSans-32"/>
       <use x="147.412109" xlink:href="#DejaVuSans-30"/>
       <use x="211.035156" xlink:href="#DejaVuSans-30"/>
       <use x="274.658203" xlink:href="#DejaVuSans-30"/>
       <use x="338.28125" xlink:href="#DejaVuSans-30"/>
      </g>
     </g>
    </g>
    <g id="ytick_2">
     <g id="line2d_7">
      <g>
       <use style="stroke:#000000;stroke-width:0.8;" x="36" xlink:href="#mb68fa74e56" y="228.639072"/>
      </g>
     </g>
     <g id="text_8">
      <!-- −15000 -->
      <g transform="translate(-11.192188 232.438291)scale(0.1 -0.1)">
       <defs>
        <path d="M 691 4666 
L 3169 4666 
L 3169 4134 
L 1269 4134 
L 1269 2991 
Q 1406 3038 1543 3061 
Q 1681 3084 1819 3084 
Q 2600 3084 3056 2656 
Q 3513 2228 3513 1497 
Q 3513 744 3044 326 
Q 2575 -91 1722 -91 
Q 1428 -91 1123 -41 
Q 819 9 494 109 
L 494 744 
Q 775 591 1075 516 
Q 1375 441 1709 441 
Q 2250 441 2565 725 
Q 2881 1009 2881 1497 
Q 2881 1984 2565 2268 
Q 2250 2553 1709 2553 
Q 1456 2553 1204 2497 
Q 953 2441 691 2322 
L 691 4666 
z
" id="DejaVuSans-35" transform="scale(0.015625)"/>
       </defs>
       <use xlink:href="#DejaVuSans-2212"/>
       <use x="83.789062" xlink:href="#DejaVuSans-31"/>
       <use x="147.412109" xlink:href="#DejaVuSans-35"/>
       <use x="211.035156" xlink:href="#DejaVuSans-30"/>
       <use x="274.658203" xlink:href="#DejaVuSans-30"/>
       <use x="338.28125" xlink:href="#DejaVuSans-30"/>
      </g>
     </g>
    </g>
    <g id="ytick_3">
     <g id="line2d_8">
      <g>
       <use style="stroke:#000000;stroke-width:0.8;" x="36" xlink:href="#mb68fa74e56" y="199.033957"/>
      </g>
     </g>
     <g id="text_9">
      <!-- −10000 -->
      <g transform="translate(-11.192188 202.833175)scale(0.1 -0.1)">
       <use xlink:href="#DejaVuSans-2212"/>
       <use x="83.789062" xlink:href="#DejaVuSans-31"/>
       <use x="147.412109" xlink:href="#DejaVuSans-30"/>
       <use x="211.035156" xlink:href="#DejaVuSans-30"/>
       <use x="274.658203" xlink:href="#DejaVuSans-30"/>
       <use x="338.28125" xlink:href="#DejaVuSans-30"/>
      </g>
     </g>
    </g>
    <g id="ytick_4">
     <g id="line2d_9">
      <g>
       <use style="stroke:#000000;stroke-width:0.8;" x="36" xlink:href="#mb68fa74e56" y="169.428841"/>
      </g>
     </g>
     <g id="text_10">
      <!-- −5000 -->
      <g transform="translate(-4.829687 173.22806)scale(0.1 -0.1)">
       <use xlink:href="#DejaVuSans-2212"/>
       <use x="83.789062" xlink:href="#DejaVuSans-35"/>
       <use x="147.412109" xlink:href="#DejaVuSans-30"/>
       <use x="211.035156" xlink:href="#DejaVuSans-30"/>
       <use x="274.658203" xlink:href="#DejaVuSans-30"/>
      </g>
     </g>
    </g>
    <g id="ytick_5">
     <g id="line2d_10">
      <g>
       <use style="stroke:#000000;stroke-width:0.8;" x="36" xlink:href="#mb68fa74e56" y="139.823726"/>
      </g>
     </g>
     <g id="text_11">
      <!-- 0 -->
      <g transform="translate(22.6375 143.622945)scale(0.1 -0.1)">
       <use xlink:href="#DejaVuSans-30"/>
      </g>
     </g>
    </g>
    <g id="ytick_6">
     <g id="line2d_11">
      <g>
       <use style="stroke:#000000;stroke-width:0.8;" x="36" xlink:href="#mb68fa74e56" y="110.218611"/>
      </g>
     </g>
     <g id="text_12">
      <!-- 5000 -->
      <g transform="translate(3.55 114.017829)scale(0.1 -0.1)">
       <use xlink:href="#DejaVuSans-35"/>
       <use x="63.623047" xlink:href="#DejaVuSans-30"/>
       <use x="127.246094" xlink:href="#DejaVuSans-30"/>
       <use x="190.869141" xlink:href="#DejaVuSans-30"/>
      </g>
     </g>
    </g>
    <g id="ytick_7">
     <g id="line2d_12">
      <g>
       <use style="stroke:#000000;stroke-width:0.8;" x="36" xlink:href="#mb68fa74e56" y="80.613495"/>
      </g>
     </g>
     <g id="text_13">
      <!-- 10000 -->
      <g transform="translate(-2.8125 84.412714)scale(0.1 -0.1)">
       <use xlink:href="#DejaVuSans-31"/>
       <use x="63.623047" xlink:href="#DejaVuSans-30"/>
       <use x="127.246094" xlink:href="#DejaVuSans-30"/>
       <use x="190.869141" xlink:href="#DejaVuSans-30"/>
       <use x="254.492188" xlink:href="#DejaVuSans-30"/>
      </g>
     </g>
    </g>
    <g id="text_14">
     <!-- Topography (m) -->
     <g transform="translate(-17.271875 209.373906)rotate(-90)scale(0.1 -0.1)">
      <defs>
       <path d="M -19 4666 
L 3928 4666 
L 3928 4134 
L 2272 4134 
L 2272 0 
L 1638 0 
L 1638 4134 
L -19 4134 
L -19 4666 
z
" id="DejaVuSans-54" transform="scale(0.015625)"/>
       <path d="M 1959 3097 
Q 1497 3097 1228 2736 
Q 959 2375 959 1747 
Q 959 1119 1226 758 
Q 1494 397 1959 397 
Q 2419 397 2687 759 
Q 2956 1122 2956 1747 
Q 2956 2369 2687 2733 
Q 2419 3097 1959 3097 
z
M 1959 3584 
Q 2709 3584 3137 3096 
Q 3566 2609 3566 1747 
Q 3566 888 3137 398 
Q 2709 -91 1959 -91 
Q 1206 -91 779 398 
Q 353 888 353 1747 
Q 353 2609 779 3096 
Q 1206 3584 1959 3584 
z
" id="DejaVuSans-6f" transform="scale(0.015625)"/>
       <path d="M 1159 525 
L 1159 -1331 
L 581 -1331 
L 581 3500 
L 1159 3500 
L 1159 2969 
Q 1341 3281 1617 3432 
Q 1894 3584 2278 3584 
Q 2916 3584 3314 3078 
Q 3713 2572 3713 1747 
Q 3713 922 3314 415 
Q 2916 -91 2278 -91 
Q 1894 -91 1617 61 
Q 1341 213 1159 525 
z
M 3116 1747 
Q 3116 2381 2855 2742 
Q 2594 3103 2138 3103 
Q 1681 3103 1420 2742 
Q 1159 2381 1159 1747 
Q 1159 1113 1420 752 
Q 1681 391 2138 391 
Q 2594 391 2855 752 
Q 3116 1113 3116 1747 
z
" id="DejaVuSans-70" transform="scale(0.015625)"/>
       <path d="M 2906 1791 
Q 2906 2416 2648 2759 
Q 2391 3103 1925 3103 
Q 1463 3103 1205 2759 
Q 947 2416 947 1791 
Q 947 1169 1205 825 
Q 1463 481 1925 481 
Q 2391 481 2648 825 
Q 2906 1169 2906 1791 
z
M 3481 434 
Q 3481 -459 3084 -895 
Q 2688 -1331 1869 -1331 
Q 1566 -1331 1297 -1286 
Q 1028 -1241 775 -1147 
L 775 -588 
Q 1028 -725 1275 -790 
Q 1522 -856 1778 -856 
Q 2344 -856 2625 -561 
Q 2906 -266 2906 331 
L 2906 616 
Q 2728 306 2450 153 
Q 2172 0 1784 0 
Q 1141 0 747 490 
Q 353 981 353 1791 
Q 353 2603 747 3093 
Q 1141 3584 1784 3584 
Q 2172 3584 2450 3431 
Q 2728 3278 2906 2969 
L 2906 3500 
L 3481 3500 
L 3481 434 
z
" id="DejaVuSans-67" transform="scale(0.015625)"/>
       <path d="M 2631 2963 
Q 2534 3019 2420 3045 
Q 2306 3072 2169 3072 
Q 1681 3072 1420 2755 
Q 1159 2438 1159 1844 
L 1159 0 
L 581 0 
L 581 3500 
L 1159 3500 
L 1159 2956 
Q 1341 3275 1631 3429 
Q 1922 3584 2338 3584 
Q 2397 3584 2469 3576 
Q 2541 3569 2628 3553 
L 2631 2963 
z
" id="DejaVuSans-72" transform="scale(0.015625)"/>
       <path d="M 2194 1759 
Q 1497 1759 1228 1600 
Q 959 1441 959 1056 
Q 959 750 1161 570 
Q 1363 391 1709 391 
Q 2188 391 2477 730 
Q 2766 1069 2766 1631 
L 2766 1759 
L 2194 1759 
z
M 3341 1997 
L 3341 0 
L 2766 0 
L 2766 531 
Q 2569 213 2275 61 
Q 1981 -91 1556 -91 
Q 1019 -91 701 211 
Q 384 513 384 1019 
Q 384 1609 779 1909 
Q 1175 2209 1959 2209 
L 2766 2209 
L 2766 2266 
Q 2766 2663 2505 2880 
Q 2244 3097 1772 3097 
Q 1472 3097 1187 3025 
Q 903 2953 641 2809 
L 641 3341 
Q 956 3463 1253 3523 
Q 1550 3584 1831 3584 
Q 2591 3584 2966 3190 
Q 3341 2797 3341 1997 
z
" id="DejaVuSans-61" transform="scale(0.015625)"/>
       <path d="M 3513 2113 
L 3513 0 
L 2938 0 
L 2938 2094 
Q 2938 2591 2744 2837 
Q 2550 3084 2163 3084 
Q 1697 3084 1428 2787 
Q 1159 2491 1159 1978 
L 1159 0 
L 581 0 
L 581 4863 
L 1159 4863 
L 1159 2956 
Q 1366 3272 1645 3428 
Q 1925 3584 2291 3584 
Q 2894 3584 3203 3211 
Q 3513 2838 3513 2113 
z
" id="DejaVuSans-68" transform="scale(0.015625)"/>
       <path d="M 2059 -325 
Q 1816 -950 1584 -1140 
Q 1353 -1331 966 -1331 
L 506 -1331 
L 506 -850 
L 844 -850 
Q 1081 -850 1212 -737 
Q 1344 -625 1503 -206 
L 1606 56 
L 191 3500 
L 800 3500 
L 1894 763 
L 2988 3500 
L 3597 3500 
L 2059 -325 
z
" id="DejaVuSans-79" transform="scale(0.015625)"/>
       <path id="DejaVuSans-20" transform="scale(0.015625)"/>
       <path d="M 1984 4856 
Q 1566 4138 1362 3434 
Q 1159 2731 1159 2009 
Q 1159 1288 1364 580 
Q 1569 -128 1984 -844 
L 1484 -844 
Q 1016 -109 783 600 
Q 550 1309 550 2009 
Q 550 2706 781 3412 
Q 1013 4119 1484 4856 
L 1984 4856 
z
" id="DejaVuSans-28" transform="scale(0.015625)"/>
       <path d="M 3328 2828 
Q 3544 3216 3844 3400 
Q 4144 3584 4550 3584 
Q 5097 3584 5394 3201 
Q 5691 2819 5691 2113 
L 5691 0 
L 5113 0 
L 5113 2094 
Q 5113 2597 4934 2840 
Q 4756 3084 4391 3084 
Q 3944 3084 3684 2787 
Q 3425 2491 3425 1978 
L 3425 0 
L 2847 0 
L 2847 2094 
Q 2847 2600 2669 2842 
Q 2491 3084 2119 3084 
Q 1678 3084 1418 2786 
Q 1159 2488 1159 1978 
L 1159 0 
L 581 0 
L 581 3500 
L 1159 3500 
L 1159 2956 
Q 1356 3278 1631 3431 
Q 1906 3584 2284 3584 
Q 2666 3584 2933 3390 
Q 3200 3197 3328 2828 
z
" id="DejaVuSans-6d" transform="scale(0.015625)"/>
       <path d="M 513 4856 
L 1013 4856 
Q 1481 4119 1714 3412 
Q 1947 2706 1947 2009 
Q 1947 1309 1714 600 
Q 1481 -109 1013 -844 
L 513 -844 
Q 928 -128 1133 580 
Q 1338 1288 1338 2009 
Q 1338 2731 1133 3434 
Q 928 4138 513 4856 
z
" id="DejaVuSans-29" transform="scale(0.015625)"/>
      </defs>
      <use xlink:href="#DejaVuSans-54"/>
      <use x="44.083984" xlink:href="#DejaVuSans-6f"/>
      <use x="105.265625" xlink:href="#DejaVuSans-70"/>
      <use x="168.742188" xlink:href="#DejaVuSans-6f"/>
      <use x="229.923828" xlink:href="#DejaVuSans-67"/>
      <use x="293.400391" xlink:href="#DejaVuSans-72"/>
      <use x="334.513672" xlink:href="#DejaVuSans-61"/>
      <use x="395.792969" xlink:href="#DejaVuSans-70"/>
      <use x="459.269531" xlink:href="#DejaVuSans-68"/>
      <use x="522.648438" xlink:href="#DejaVuSans-79"/>
      <use x="581.828125" xlink:href="#DejaVuSans-20"/>
      <use x="613.615234" xlink:href="#DejaVuSans-28"/>
      <use x="652.628906" xlink:href="#DejaVuSans-6d"/>
      <use x="750.041016" xlink:href="#DejaVuSans-29"/>
     </g>
    </g>
   </g>
   <g id="line2d_13">
    <path clip-path="url(#pf73069a9ea)" d="M 46.145455 141.175246 
L 67.281818 141.30622 
L 67.281818 141.30622 
L 101.1 141.840709 
L 101.1 141.840709 
L 124.35 142.085078 
L 143.372727 142.052477 
L 143.372727 142.052477 
L 166.622727 141.749477 
L 232.145455 140.709421 
L 232.145455 140.709421 
L 249.054545 140.647089 
L 249.054545 140.647089 
" style="fill:none;stroke:#1f77b4;stroke-linecap:square;stroke-width:1.5;"/>
   </g>
   <g id="line2d_14">
    <path clip-path="url(#pf73069a9ea)" d="M 46.145455 128.693095 
L 46.673864 128.83571 
L 46.673864 128.83571 
L 47.334375 129.328528 
L 48.126989 130.017503 
L 48.523295 130.077363 
L 48.523295 130.077363 
L 49.315909 130.148228 
L 49.315909 130.148228 
L 50.769034 130.639422 
L 53.675284 131.553309 
L 61.337216 132.820273 
L 73.490625 134.607053 
L 106.648295 138.616389 
L 106.648295 138.616389 
L 123.293182 140.215252 
L 123.293182 140.215252 
L 125.406818 140.711389 
L 125.406818 140.711389 
L 130.1625 142.033197 
L 130.1625 142.033197 
L 131.219318 141.975692 
L 131.219318 141.975692 
L 132.144034 141.675586 
L 132.936648 141.201002 
L 133.729261 140.508859 
L 134.653977 139.439731 
L 134.653977 139.439731 
L 136.239205 137.153688 
L 136.239205 137.153688 
L 137.560227 135.361789 
L 137.560227 135.361789 
L 138.220739 134.795848 
L 138.617045 134.627049 
L 138.617045 134.627049 
L 139.145455 134.698502 
L 139.145455 134.698502 
L 139.673864 135.174266 
L 139.673864 135.174266 
L 140.202273 136.13802 
L 140.202273 136.13802 
L 140.862784 138.165988 
L 141.391193 140.493521 
L 142.051705 144.349107 
L 142.051705 144.349107 
L 142.97642 151.639137 
L 143.901136 160.87452 
L 143.901136 160.87452 
L 145.486364 179.823755 
L 145.486364 179.823755 
L 147.071591 198.33401 
L 147.071591 198.33401 
L 147.864205 205.212307 
L 147.864205 205.212307 
L 148.392614 208.21744 
L 148.392614 208.21744 
L 148.78892 209.362649 
L 148.921023 209.595975 
L 148.921023 209.595975 
L 149.185227 209.581774 
L 149.185227 209.581774 
L 149.449432 209.051293 
L 149.449432 209.051293 
L 149.845739 207.140612 
L 150.242045 204.036851 
L 150.242045 204.036851 
L 150.770455 197.553551 
L 150.770455 197.553551 
L 151.430966 185.514596 
L 152.091477 169.237218 
L 152.091477 169.237218 
L 153.016193 139.138535 
L 153.544602 116.336255 
L 153.940909 100.129303 
L 153.940909 100.129303 
L 154.205114 99.129948 
L 154.205114 99.129948 
L 154.60142 106.560404 
L 155.394034 128.159856 
L 156.31875 158.747453 
L 156.31875 158.747453 
L 158.564489 248.874203 
L 158.960795 261.556364 
L 159.092898 261.03632 
L 159.225 258.979921 
L 159.225 258.979921 
L 159.885511 236.42583 
L 160.678125 199.672213 
L 162.13125 132.524394 
L 162.13125 132.524394 
L 162.923864 105.508787 
L 162.923864 105.508787 
L 163.584375 90.284209 
L 163.980682 84.090125 
L 163.980682 84.090125 
L 164.509091 79.433425 
L 164.509091 79.433425 
L 164.905398 78.367462 
L 165.0375 78.283636 
L 165.0375 78.283636 
L 165.301705 78.852968 
L 165.301705 78.852968 
L 165.698011 80.99288 
L 166.094318 84.223325 
L 166.094318 84.223325 
L 166.886932 93.453086 
L 166.886932 93.453086 
L 169.925284 133.624546 
L 170.717898 140.473066 
L 171.378409 144.537474 
L 171.378409 144.537474 
L 172.03892 147.122409 
L 172.435227 148.103482 
L 172.435227 148.103482 
L 172.963636 148.769764 
L 172.963636 148.769764 
L 173.359943 148.867349 
L 173.624148 148.790436 
L 174.020455 148.494074 
L 174.020455 148.494074 
L 174.680966 147.587673 
L 175.605682 145.873514 
L 175.605682 145.873514 
L 177.455114 142.348 
L 177.455114 142.348 
L 178.511932 140.84499 
L 178.511932 140.84499 
L 179.436648 139.942621 
L 180.229261 139.446718 
L 181.021875 139.166308 
L 181.946591 139.04378 
L 181.946591 139.04378 
L 183.399716 139.129515 
L 188.2875 139.64399 
L 188.2875 139.64399 
L 190.401136 139.514812 
L 190.401136 139.514812 
L 193.439489 139.055473 
L 197.534659 138.46925 
L 197.534659 138.46925 
L 210.216477 137.037991 
L 210.216477 137.037991 
L 220.388352 135.726396 
L 233.59858 133.576105 
L 236.636932 133.118008 
L 236.636932 133.118008 
L 239.014773 132.694012 
L 239.014773 132.694012 
L 240.996307 132.086368 
L 241.921023 131.634843 
L 241.921023 131.634843 
L 242.581534 131.104148 
L 243.109943 130.423319 
L 243.638352 129.398655 
L 244.430966 127.274054 
L 246.808807 120.001033 
L 247.073011 118.554418 
L 247.469318 115.136457 
L 247.469318 115.136457 
L 248.12983 109.110284 
L 248.526136 107.149202 
L 248.526136 107.149202 
L 248.658239 107.362561 
L 248.790341 109.155747 
L 248.790341 109.155747 
L 249.054545 118.708654 
L 249.054545 118.708654 
" style="fill:none;stroke:#ff7f0e;stroke-linecap:square;stroke-width:1.5;"/>
   </g>
   <g id="patch_3">
    <path d="M 36 270.72 
L 36 69.12 
" style="fill:none;stroke:#000000;stroke-linecap:square;stroke-linejoin:miter;stroke-width:0.8;"/>
   </g>
   <g id="patch_4">
    <path d="M 259.2 270.72 
L 259.2 69.12 
" style="fill:none;stroke:#000000;stroke-linecap:square;stroke-linejoin:miter;stroke-width:0.8;"/>
   </g>
   <g id="patch_5">
    <path d="M 36 270.72 
L 259.2 270.72 
" style="fill:none;stroke:#000000;stroke-linecap:square;stroke-linejoin:miter;stroke-width:0.8;"/>
   </g>
   <g id="patch_6">
    <path d="M 36 69.12 
L 259.2 69.12 
" style="fill:none;stroke:#000000;stroke-linecap:square;stroke-linejoin:miter;stroke-width:0.8;"/>
   </g>
   <g id="text_15">
    <!-- Topography -->
    <g transform="translate(112.688437 63.12)scale(0.12 -0.12)">
     <use xlink:href="#DejaVuSans-54"/>
     <use x="44.083984" xlink:href="#DejaVuSans-6f"/>
     <use x="105.265625" xlink:href="#DejaVuSans-70"/>
     <use x="168.742188" xlink:href="#DejaVuSans-6f"/>
     <use x="229.923828" xlink:href="#DejaVuSans-67"/>
     <use x="293.400391" xlink:href="#DejaVuSans-72"/>
     <use x="334.513672" xlink:href="#DejaVuSans-61"/>
     <use x="395.792969" xlink:href="#DejaVuSans-70"/>
     <use x="459.269531" xlink:href="#DejaVuSans-68"/>
     <use x="522.648438" xlink:href="#DejaVuSans-79"/>
    </g>
   </g>
   <g id="legend_1">
    <g id="patch_7">
     <path d="M 43 265.72 
L 188.460938 265.72 
Q 190.460938 265.72 190.460938 263.72 
L 190.460938 235.36375 
Q 190.460938 233.36375 188.460938 233.36375 
L 43 233.36375 
Q 41 233.36375 41 235.36375 
L 41 263.72 
Q 41 265.72 43 265.72 
z
" style="fill:#ffffff;opacity:0.8;stroke:#cccccc;stroke-linejoin:miter;"/>
    </g>
    <g id="line2d_15">
     <path d="M 45 241.462187 
L 65 241.462187 
" style="fill:none;stroke:#1f77b4;stroke-linecap:square;stroke-width:1.5;"/>
    </g>
    <g id="line2d_16"/>
    <g id="text_16">
     <!-- CMB Topography (x10) -->
     <g transform="translate(73 244.962187)scale(0.1 -0.1)">
      <defs>
       <path d="M 4122 4306 
L 4122 3641 
Q 3803 3938 3442 4084 
Q 3081 4231 2675 4231 
Q 1875 4231 1450 3742 
Q 1025 3253 1025 2328 
Q 1025 1406 1450 917 
Q 1875 428 2675 428 
Q 3081 428 3442 575 
Q 3803 722 4122 1019 
L 4122 359 
Q 3791 134 3420 21 
Q 3050 -91 2638 -91 
Q 1578 -91 968 557 
Q 359 1206 359 2328 
Q 359 3453 968 4101 
Q 1578 4750 2638 4750 
Q 3056 4750 3426 4639 
Q 3797 4528 4122 4306 
z
" id="DejaVuSans-43" transform="scale(0.015625)"/>
       <path d="M 628 4666 
L 1569 4666 
L 2759 1491 
L 3956 4666 
L 4897 4666 
L 4897 0 
L 4281 0 
L 4281 4097 
L 3078 897 
L 2444 897 
L 1241 4097 
L 1241 0 
L 628 0 
L 628 4666 
z
" id="DejaVuSans-4d" transform="scale(0.015625)"/>
       <path d="M 1259 2228 
L 1259 519 
L 2272 519 
Q 2781 519 3026 730 
Q 3272 941 3272 1375 
Q 3272 1813 3026 2020 
Q 2781 2228 2272 2228 
L 1259 2228 
z
M 1259 4147 
L 1259 2741 
L 2194 2741 
Q 2656 2741 2882 2914 
Q 3109 3088 3109 3444 
Q 3109 3797 2882 3972 
Q 2656 4147 2194 4147 
L 1259 4147 
z
M 628 4666 
L 2241 4666 
Q 2963 4666 3353 4366 
Q 3744 4066 3744 3513 
Q 3744 3084 3544 2831 
Q 3344 2578 2956 2516 
Q 3422 2416 3680 2098 
Q 3938 1781 3938 1306 
Q 3938 681 3513 340 
Q 3088 0 2303 0 
L 628 0 
L 628 4666 
z
" id="DejaVuSans-42" transform="scale(0.015625)"/>
       <path d="M 3513 3500 
L 2247 1797 
L 3578 0 
L 2900 0 
L 1881 1375 
L 863 0 
L 184 0 
L 1544 1831 
L 300 3500 
L 978 3500 
L 1906 2253 
L 2834 3500 
L 3513 3500 
z
" id="DejaVuSans-78" transform="scale(0.015625)"/>
      </defs>
      <use xlink:href="#DejaVuSans-43"/>
      <use x="69.824219" xlink:href="#DejaVuSans-4d"/>
      <use x="156.103516" xlink:href="#DejaVuSans-42"/>
      <use x="224.707031" xlink:href="#DejaVuSans-20"/>
      <use x="256.494141" xlink:href="#DejaVuSans-54"/>
      <use x="300.578125" xlink:href="#DejaVuSans-6f"/>
      <use x="361.759766" xlink:href="#DejaVuSans-70"/>
      <use x="425.236328" xlink:href="#DejaVuSans-6f"/>
      <use x="486.417969" xlink:href="#DejaVuSans-67"/>
      <use x="549.894531" xlink:href="#DejaVuSans-72"/>
      <use x="591.007812" xlink:href="#DejaVuSans-61"/>
      <use x="652.287109" xlink:href="#DejaVuSans-70"/>
      <use x="715.763672" xlink:href="#DejaVuSans-68"/>
      <use x="779.142578" xlink:href="#DejaVuSans-79"/>
      <use x="838.322266" xlink:href="#DejaVuSans-20"/>
      <use x="870.109375" xlink:href="#DejaVuSans-28"/>
      <use x="909.123047" xlink:href="#DejaVuSans-78"/>
      <use x="968.302734" xlink:href="#DejaVuSans-31"/>
      <use x="1031.925781" xlink:href="#DejaVuSans-30"/>
      <use x="1095.548828" xlink:href="#DejaVuSans-29"/>
     </g>
    </g>
    <g id="line2d_17">
     <path d="M 45 256.140312 
L 65 256.140312 
" style="fill:none;stroke:#ff7f0e;stroke-linecap:square;stroke-width:1.5;"/>
    </g>
    <g id="line2d_18"/>
    <g id="text_17">
     <!-- Surface Topography -->
     <g transform="translate(73 259.640312)scale(0.1 -0.1)">
      <defs>
       <path d="M 3425 4513 
L 3425 3897 
Q 3066 4069 2747 4153 
Q 2428 4238 2131 4238 
Q 1616 4238 1336 4038 
Q 1056 3838 1056 3469 
Q 1056 3159 1242 3001 
Q 1428 2844 1947 2747 
L 2328 2669 
Q 3034 2534 3370 2195 
Q 3706 1856 3706 1288 
Q 3706 609 3251 259 
Q 2797 -91 1919 -91 
Q 1588 -91 1214 -16 
Q 841 59 441 206 
L 441 856 
Q 825 641 1194 531 
Q 1563 422 1919 422 
Q 2459 422 2753 634 
Q 3047 847 3047 1241 
Q 3047 1584 2836 1778 
Q 2625 1972 2144 2069 
L 1759 2144 
Q 1053 2284 737 2584 
Q 422 2884 422 3419 
Q 422 4038 858 4394 
Q 1294 4750 2059 4750 
Q 2388 4750 2728 4690 
Q 3069 4631 3425 4513 
z
" id="DejaVuSans-53" transform="scale(0.015625)"/>
       <path d="M 544 1381 
L 544 3500 
L 1119 3500 
L 1119 1403 
Q 1119 906 1312 657 
Q 1506 409 1894 409 
Q 2359 409 2629 706 
Q 2900 1003 2900 1516 
L 2900 3500 
L 3475 3500 
L 3475 0 
L 2900 0 
L 2900 538 
Q 2691 219 2414 64 
Q 2138 -91 1772 -91 
Q 1169 -91 856 284 
Q 544 659 544 1381 
z
M 1991 3584 
L 1991 3584 
z
" id="DejaVuSans-75" transform="scale(0.015625)"/>
       <path d="M 2375 4863 
L 2375 4384 
L 1825 4384 
Q 1516 4384 1395 4259 
Q 1275 4134 1275 3809 
L 1275 3500 
L 2222 3500 
L 2222 3053 
L 1275 3053 
L 1275 0 
L 697 0 
L 697 3053 
L 147 3053 
L 147 3500 
L 697 3500 
L 697 3744 
Q 697 4328 969 4595 
Q 1241 4863 1831 4863 
L 2375 4863 
z
" id="DejaVuSans-66" transform="scale(0.015625)"/>
       <path d="M 3122 3366 
L 3122 2828 
Q 2878 2963 2633 3030 
Q 2388 3097 2138 3097 
Q 1578 3097 1268 2742 
Q 959 2388 959 1747 
Q 959 1106 1268 751 
Q 1578 397 2138 397 
Q 2388 397 2633 464 
Q 2878 531 3122 666 
L 3122 134 
Q 2881 22 2623 -34 
Q 2366 -91 2075 -91 
Q 1284 -91 818 406 
Q 353 903 353 1747 
Q 353 2603 823 3093 
Q 1294 3584 2113 3584 
Q 2378 3584 2631 3529 
Q 2884 3475 3122 3366 
z
" id="DejaVuSans-63" transform="scale(0.015625)"/>
      </defs>
      <use xlink:href="#DejaVuSans-53"/>
      <use x="63.476562" xlink:href="#DejaVuSans-75"/>
      <use x="126.855469" xlink:href="#DejaVuSans-72"/>
      <use x="167.96875" xlink:href="#DejaVuSans-66"/>
      <use x="203.173828" xlink:href="#DejaVuSans-61"/>
      <use x="264.453125" xlink:href="#DejaVuSans-63"/>
      <use x="319.433594" xlink:href="#DejaVuSans-65"/>
      <use x="380.957031" xlink:href="#DejaVuSans-20"/>
      <use x="412.744141" xlink:href="#DejaVuSans-54"/>
      <use x="456.828125" xlink:href="#DejaVuSans-6f"/>
      <use x="518.009766" xlink:href="#DejaVuSans-70"/>
      <use x="581.486328" xlink:href="#DejaVuSans-6f"/>
      <use x="642.667969" xlink:href="#DejaVuSans-67"/>
      <use x="706.144531" xlink:href="#DejaVuSans-72"/>
      <use x="747.257812" xlink:href="#DejaVuSans-61"/>
      <use x="808.537109" xlink:href="#DejaVuSans-70"/>
      <use x="872.013672" xlink:href="#DejaVuSans-68"/>
      <use x="935.392578" xlink:href="#DejaVuSans-79"/>
     </g>
    </g>
   </g>
  </g>
  <g id="axes_2">
   <g id="patch_8">
    <path d="M 36 512.64 
L 259.2 512.64 
L 259.2 311.04 
L 36 311.04 
z
" style="fill:#ffffff;"/>
   </g>
   <g id="matplotlib.axis_3">
    <g id="xtick_6">
     <g id="line2d_19">
      <g>
       <use style="stroke:#000000;stroke-width:0.8;" x="46.145455" xlink:href="#m69602da2e4" y="512.64"/>
      </g>
     </g>
     <g id="text_18">
      <!-- 0 -->
      <g transform="translate(42.964205 527.238438)scale(0.1 -0.1)">
       <use xlink:href="#DejaVuSans-30"/>
      </g>
     </g>
    </g>
    <g id="xtick_7">
     <g id="line2d_20">
      <g>
       <use style="stroke:#000000;stroke-width:0.8;" x="91.236364" xlink:href="#m69602da2e4" y="512.64"/>
      </g>
     </g>
     <g id="text_19">
      <!-- 1 -->
      <g transform="translate(88.055114 527.238438)scale(0.1 -0.1)">
       <use xlink:href="#DejaVuSans-31"/>
      </g>
     </g>
    </g>
    <g id="xtick_8">
     <g id="line2d_21">
      <g>
       <use style="stroke:#000000;stroke-width:0.8;" x="136.327273" xlink:href="#m69602da2e4" y="512.64"/>
      </g>
     </g>
     <g id="text_20">
      <!-- 2 -->
      <g transform="translate(133.146023 527.238438)scale(0.1 -0.1)">
       <use xlink:href="#DejaVuSans-32"/>
      </g>
     </g>
    </g>
    <g id="xtick_9">
     <g id="line2d_22">
      <g>
       <use style="stroke:#000000;stroke-width:0.8;" x="181.418182" xlink:href="#m69602da2e4" y="512.64"/>
      </g>
     </g>
     <g id="text_21">
      <!-- 3 -->
      <g transform="translate(178.236932 527.238438)scale(0.1 -0.1)">
       <use xlink:href="#DejaVuSans-33"/>
      </g>
     </g>
    </g>
    <g id="xtick_10">
     <g id="line2d_23">
      <g>
       <use style="stroke:#000000;stroke-width:0.8;" x="226.509091" xlink:href="#m69602da2e4" y="512.64"/>
      </g>
     </g>
     <g id="text_22">
      <!-- 4 -->
      <g transform="translate(223.327841 527.238438)scale(0.1 -0.1)">
       <use xlink:href="#DejaVuSans-34"/>
      </g>
     </g>
    </g>
    <g id="text_23">
     <!-- 1e6 -->
     <g transform="translate(240.321875 539.916563)scale(0.1 -0.1)">
      <use xlink:href="#DejaVuSans-31"/>
      <use x="63.623047" xlink:href="#DejaVuSans-65"/>
      <use x="125.146484" xlink:href="#DejaVuSans-36"/>
     </g>
    </g>
   </g>
   <g id="matplotlib.axis_4">
    <g id="ytick_8">
     <g id="line2d_24">
      <g>
       <use style="stroke:#000000;stroke-width:0.8;" x="36" xlink:href="#mb68fa74e56" y="507.385098"/>
      </g>
     </g>
     <g id="text_24">
      <!-- −600 -->
      <g transform="translate(1.532812 511.184317)scale(0.1 -0.1)">
       <use xlink:href="#DejaVuSans-2212"/>
       <use x="83.789062" xlink:href="#DejaVuSans-36"/>
       <use x="147.412109" xlink:href="#DejaVuSans-30"/>
       <use x="211.035156" xlink:href="#DejaVuSans-30"/>
      </g>
     </g>
    </g>
    <g id="ytick_9">
     <g id="line2d_25">
      <g>
       <use style="stroke:#000000;stroke-width:0.8;" x="36" xlink:href="#mb68fa74e56" y="470.601099"/>
      </g>
     </g>
     <g id="text_25">
      <!-- −400 -->
      <g transform="translate(1.532812 474.400318)scale(0.1 -0.1)">
       <use xlink:href="#DejaVuSans-2212"/>
       <use x="83.789062" xlink:href="#DejaVuSans-34"/>
       <use x="147.412109" xlink:href="#DejaVuSans-30"/>
       <use x="211.035156" xlink:href="#DejaVuSans-30"/>
      </g>
     </g>
    </g>
    <g id="ytick_10">
     <g id="line2d_26">
      <g>
       <use style="stroke:#000000;stroke-width:0.8;" x="36" xlink:href="#mb68fa74e56" y="433.8171"/>
      </g>
     </g>
     <g id="text_26">
      <!-- −200 -->
      <g transform="translate(1.532812 437.616319)scale(0.1 -0.1)">
       <use xlink:href="#DejaVuSans-2212"/>
       <use x="83.789062" xlink:href="#DejaVuSans-32"/>
       <use x="147.412109" xlink:href="#DejaVuSans-30"/>
       <use x="211.035156" xlink:href="#DejaVuSans-30"/>
      </g>
     </g>
    </g>
    <g id="ytick_11">
     <g id="line2d_27">
      <g>
       <use style="stroke:#000000;stroke-width:0.8;" x="36" xlink:href="#mb68fa74e56" y="397.033101"/>
      </g>
     </g>
     <g id="text_27">
      <!-- 0 -->
      <g transform="translate(22.6375 400.83232)scale(0.1 -0.1)">
       <use xlink:href="#DejaVuSans-30"/>
      </g>
     </g>
    </g>
    <g id="ytick_12">
     <g id="line2d_28">
      <g>
       <use style="stroke:#000000;stroke-width:0.8;" x="36" xlink:href="#mb68fa74e56" y="360.249102"/>
      </g>
     </g>
     <g id="text_28">
      <!-- 200 -->
      <g transform="translate(9.9125 364.048321)scale(0.1 -0.1)">
       <use xlink:href="#DejaVuSans-32"/>
       <use x="63.623047" xlink:href="#DejaVuSans-30"/>
       <use x="127.246094" xlink:href="#DejaVuSans-30"/>
      </g>
     </g>
    </g>
    <g id="ytick_13">
     <g id="line2d_29">
      <g>
       <use style="stroke:#000000;stroke-width:0.8;" x="36" xlink:href="#mb68fa74e56" y="323.465103"/>
      </g>
     </g>
     <g id="text_29">
      <!-- 400 -->
      <g transform="translate(9.9125 327.264321)scale(0.1 -0.1)">
       <use xlink:href="#DejaVuSans-34"/>
       <use x="63.623047" xlink:href="#DejaVuSans-30"/>
       <use x="127.246094" xlink:href="#DejaVuSans-30"/>
      </g>
     </g>
    </g>
    <g id="text_30">
     <!-- Geoid anomaly (m) -->
     <g transform="translate(-4.546875 459.938437)rotate(-90)scale(0.1 -0.1)">
      <defs>
       <path d="M 3809 666 
L 3809 1919 
L 2778 1919 
L 2778 2438 
L 4434 2438 
L 4434 434 
Q 4069 175 3628 42 
Q 3188 -91 2688 -91 
Q 1594 -91 976 548 
Q 359 1188 359 2328 
Q 359 3472 976 4111 
Q 1594 4750 2688 4750 
Q 3144 4750 3555 4637 
Q 3966 4525 4313 4306 
L 4313 3634 
Q 3963 3931 3569 4081 
Q 3175 4231 2741 4231 
Q 1884 4231 1454 3753 
Q 1025 3275 1025 2328 
Q 1025 1384 1454 906 
Q 1884 428 2741 428 
Q 3075 428 3337 486 
Q 3600 544 3809 666 
z
" id="DejaVuSans-47" transform="scale(0.015625)"/>
       <path d="M 603 3500 
L 1178 3500 
L 1178 0 
L 603 0 
L 603 3500 
z
M 603 4863 
L 1178 4863 
L 1178 4134 
L 603 4134 
L 603 4863 
z
" id="DejaVuSans-69" transform="scale(0.015625)"/>
       <path d="M 2906 2969 
L 2906 4863 
L 3481 4863 
L 3481 0 
L 2906 0 
L 2906 525 
Q 2725 213 2448 61 
Q 2172 -91 1784 -91 
Q 1150 -91 751 415 
Q 353 922 353 1747 
Q 353 2572 751 3078 
Q 1150 3584 1784 3584 
Q 2172 3584 2448 3432 
Q 2725 3281 2906 2969 
z
M 947 1747 
Q 947 1113 1208 752 
Q 1469 391 1925 391 
Q 2381 391 2643 752 
Q 2906 1113 2906 1747 
Q 2906 2381 2643 2742 
Q 2381 3103 1925 3103 
Q 1469 3103 1208 2742 
Q 947 2381 947 1747 
z
" id="DejaVuSans-64" transform="scale(0.015625)"/>
       <path d="M 3513 2113 
L 3513 0 
L 2938 0 
L 2938 2094 
Q 2938 2591 2744 2837 
Q 2550 3084 2163 3084 
Q 1697 3084 1428 2787 
Q 1159 2491 1159 1978 
L 1159 0 
L 581 0 
L 581 3500 
L 1159 3500 
L 1159 2956 
Q 1366 3272 1645 3428 
Q 1925 3584 2291 3584 
Q 2894 3584 3203 3211 
Q 3513 2838 3513 2113 
z
" id="DejaVuSans-6e" transform="scale(0.015625)"/>
       <path d="M 603 4863 
L 1178 4863 
L 1178 0 
L 603 0 
L 603 4863 
z
" id="DejaVuSans-6c" transform="scale(0.015625)"/>
      </defs>
      <use xlink:href="#DejaVuSans-47"/>
      <use x="77.490234" xlink:href="#DejaVuSans-65"/>
      <use x="139.013672" xlink:href="#DejaVuSans-6f"/>
      <use x="200.195312" xlink:href="#DejaVuSans-69"/>
      <use x="227.978516" xlink:href="#DejaVuSans-64"/>
      <use x="291.455078" xlink:href="#DejaVuSans-20"/>
      <use x="323.242188" xlink:href="#DejaVuSans-61"/>
      <use x="384.521484" xlink:href="#DejaVuSans-6e"/>
      <use x="447.900391" xlink:href="#DejaVuSans-6f"/>
      <use x="509.082031" xlink:href="#DejaVuSans-6d"/>
      <use x="606.494141" xlink:href="#DejaVuSans-61"/>
      <use x="667.773438" xlink:href="#DejaVuSans-6c"/>
      <use x="695.556641" xlink:href="#DejaVuSans-79"/>
      <use x="754.736328" xlink:href="#DejaVuSans-20"/>
      <use x="786.523438" xlink:href="#DejaVuSans-28"/>
      <use x="825.537109" xlink:href="#DejaVuSans-6d"/>
      <use x="922.949219" xlink:href="#DejaVuSans-29"/>
     </g>
    </g>
   </g>
   <g id="line2d_30">
    <path clip-path="url(#p61073cd055)" d="M 46.145455 382.444215 
L 49.051705 381.109294 
L 49.051705 381.109294 
L 54.996307 378.130377 
L 62.394034 374.174148 
L 70.452273 369.612645 
L 70.452273 369.612645 
L 78.774716 364.64402 
L 86.965057 359.498008 
L 95.023295 354.175912 
L 95.023295 354.175912 
L 102.949432 348.674671 
L 102.949432 348.674671 
L 110.743466 342.992059 
L 118.801705 336.835278 
L 118.801705 336.835278 
L 132.804545 326.05774 
L 132.804545 326.05774 
L 136.107102 323.859791 
L 138.749148 322.359831 
L 140.994886 321.333094 
L 140.994886 321.333094 
L 142.97642 320.666836 
L 144.69375 320.311574 
L 144.69375 320.311574 
L 146.278977 320.203636 
L 146.278977 320.203636 
L 147.732102 320.321427 
L 149.185227 320.668862 
L 149.185227 320.668862 
L 150.638352 321.24482 
L 152.487784 322.240302 
L 155.922443 324.169163 
L 161.074432 326.619692 
L 161.074432 326.619692 
L 168.472159 330.852135 
L 168.472159 330.852135 
L 196.609943 347.273961 
L 214.311648 357.884673 
L 249.054545 378.919824 
L 249.054545 378.919824 
" style="fill:none;stroke:#1f77b4;stroke-linecap:square;stroke-width:1.5;"/>
   </g>
   <g id="line2d_31">
    <path clip-path="url(#p61073cd055)" d="M 46.145455 433.625369 
L 46.541761 433.092523 
L 47.334375 432.455318 
L 48.523295 431.828292 
L 48.523295 431.828292 
L 49.97642 431.306085 
L 51.69375 430.947952 
L 51.69375 430.947952 
L 53.939489 430.725734 
L 56.449432 430.694358 
L 56.449432 430.694358 
L 59.22358 430.892382 
L 62.394034 431.351298 
L 65.828693 432.076 
L 69.659659 433.122552 
L 69.659659 433.122552 
L 74.151136 434.582603 
L 74.151136 434.582603 
L 78.774716 436.318244 
L 83.926705 438.495074 
L 83.926705 438.495074 
L 89.475 441.08565 
L 89.475 441.08565 
L 96.080114 444.416927 
L 96.080114 444.416927 
L 101.892614 447.598416 
L 101.892614 447.598416 
L 109.422443 451.991343 
L 114.970739 455.473584 
L 120.386932 459.129211 
L 120.386932 459.129211 
L 124.085795 461.879684 
L 124.085795 461.879684 
L 128.048864 465.13234 
L 128.048864 465.13234 
L 132.804545 468.992989 
L 132.804545 468.992989 
L 135.842898 471.470045 
L 137.16392 472.846143 
L 138.220739 474.252506 
L 139.277557 476.052682 
L 140.334375 478.349685 
L 141.391193 481.207859 
L 142.580114 485.082579 
L 142.580114 485.082579 
L 144.297443 491.550169 
L 146.278977 498.82887 
L 146.278977 498.82887 
L 147.203693 501.418365 
L 147.864205 502.700885 
L 147.864205 502.700885 
L 148.392614 503.302652 
L 148.392614 503.302652 
L 148.78892 503.475213 
L 149.185227 503.391189 
L 149.185227 503.391189 
L 149.581534 503.039469 
L 150.109943 502.145064 
L 150.638352 500.769742 
L 151.298864 498.422092 
L 151.298864 498.422092 
L 152.22358 494.217396 
L 153.808807 486.822245 
L 154.205114 486.046301 
L 154.205114 486.046301 
L 154.469318 485.998889 
L 154.469318 485.998889 
L 154.733523 486.249355 
L 154.733523 486.249355 
L 155.12983 487.036585 
L 155.658239 488.663623 
L 156.450852 491.882975 
L 157.771875 497.462273 
L 158.300284 498.808324 
L 158.564489 499.078164 
L 158.828693 499.034849 
L 159.092898 498.571145 
L 159.489205 496.933922 
L 159.489205 496.933922 
L 160.017614 493.476246 
L 160.017614 493.476246 
L 160.810227 486.526063 
L 160.810227 486.526063 
L 163.188068 464.414291 
L 163.188068 464.414291 
L 163.980682 459.216729 
L 163.980682 459.216729 
L 164.641193 456.106292 
L 165.301705 454.077727 
L 165.301705 454.077727 
L 165.830114 453.161212 
L 165.830114 453.161212 
L 166.22642 452.833733 
L 166.622727 452.77138 
L 166.622727 452.77138 
L 167.019034 452.932739 
L 167.547443 453.423561 
L 168.340057 454.557028 
L 170.982102 458.742459 
L 171.774716 459.520433 
L 172.56733 459.975659 
L 173.227841 460.119792 
L 173.227841 460.119792 
L 174.020455 460.046844 
L 174.020455 460.046844 
L 174.94517 459.693645 
L 176.134091 458.959741 
L 176.134091 458.959741 
L 182.607102 454.487476 
L 186.173864 452.642514 
L 186.173864 452.642514 
L 192.250568 449.47157 
L 192.250568 449.47157 
L 201.761932 444.432746 
L 201.761932 444.432746 
L 211.801705 439.414567 
L 211.801705 439.414567 
L 219.463636 435.873883 
L 219.463636 435.873883 
L 225.276136 433.408643 
L 225.276136 433.408643 
L 231.352841 431.092185 
L 231.352841 431.092185 
L 235.712216 429.631186 
L 243.109943 427.255303 
L 246.280398 425.983834 
L 247.469318 425.831459 
L 247.469318 425.831459 
L 247.997727 425.978243 
L 247.997727 425.978243 
L 248.394034 426.353899 
L 248.790341 427.116956 
L 248.790341 427.116956 
L 249.054545 427.995292 
L 249.054545 427.995292 
" style="fill:none;stroke:#ff7f0e;stroke-linecap:square;stroke-width:1.5;"/>
   </g>
   <g id="line2d_32">
    <path clip-path="url(#p61073cd055)" d="M 46.145455 365.938698 
L 87.229261 366.687083 
L 116.423864 366.996689 
L 116.423864 366.996689 
L 143.240625 367.058676 
L 170.585795 366.896086 
L 170.585795 366.896086 
L 201.233523 366.483539 
L 201.233523 366.483539 
L 243.242045 365.673262 
L 243.242045 365.673262 
L 249.054545 365.551005 
L 249.054545 365.551005 
" style="fill:none;stroke:#2ca02c;stroke-linecap:square;stroke-width:1.5;"/>
   </g>
   <g id="line2d_33">
    <path clip-path="url(#p61073cd055)" d="M 46.145455 387.942081 
L 46.673864 387.063747 
L 46.673864 387.063747 
L 47.59858 385.994458 
L 49.183807 384.541165 
L 50.901136 383.264008 
L 50.901136 383.264008 
L 53.146875 381.878546 
L 56.053125 380.340219 
L 59.22358 378.929124 
L 62.922443 377.540236 
L 66.885511 376.288728 
L 71.773295 374.994677 
L 71.773295 374.994677 
L 77.453693 373.718604 
L 83.926705 372.504279 
L 83.926705 372.504279 
L 92.513352 371.142003 
L 102.156818 369.793734 
L 102.156818 369.793734 
L 116.952273 367.983045 
L 116.952273 367.983045 
L 121.972159 367.586409 
L 121.972159 367.586409 
L 125.142614 367.555907 
L 125.142614 367.555907 
L 128.841477 367.772188 
L 128.841477 367.772188 
L 135.446591 368.384422 
L 135.446591 368.384422 
L 136.635511 368.791401 
L 137.560227 369.333146 
L 137.560227 369.333146 
L 138.484943 370.155961 
L 139.277557 371.14549 
L 140.202273 372.694875 
L 140.202273 372.694875 
L 141.126989 374.716401 
L 142.183807 377.616916 
L 143.50483 382.009909 
L 146.939489 393.975498 
L 147.732102 395.791224 
L 148.260511 396.590478 
L 148.78892 397.003382 
L 149.185227 397.036002 
L 149.185227 397.036002 
L 149.581534 396.818115 
L 149.977841 396.343498 
L 149.977841 396.343498 
L 150.50625 395.31211 
L 150.50625 395.31211 
L 151.166761 393.415358 
L 151.959375 390.397765 
L 153.808807 382.81993 
L 154.073011 382.360255 
L 154.337216 382.289915 
L 154.60142 382.552315 
L 154.997727 383.40023 
L 154.997727 383.40023 
L 155.526136 385.138997 
L 155.526136 385.138997 
L 156.31875 388.587125 
L 156.31875 388.587125 
L 157.903977 395.818643 
L 157.903977 395.818643 
L 158.432386 397.145234 
L 158.432386 397.145234 
L 158.696591 397.384717 
L 158.696591 397.384717 
L 158.960795 397.285083 
L 158.960795 397.285083 
L 159.225 396.686077 
L 159.225 396.686077 
L 159.621307 394.940852 
L 160.149716 391.466343 
L 161.074432 383.480125 
L 161.074432 383.480125 
L 162.923864 367.03905 
L 162.923864 367.03905 
L 163.716477 361.776352 
L 163.716477 361.776352 
L 164.376989 358.591738 
L 165.0375 356.513837 
L 165.0375 356.513837 
L 165.565909 355.594944 
L 165.565909 355.594944 
L 165.962216 355.293718 
L 166.358523 355.284368 
L 166.358523 355.284368 
L 166.75483 355.526642 
L 167.283239 356.168872 
L 168.075852 357.6177 
L 171.642614 364.922311 
L 171.642614 364.922311 
L 172.56733 366.011785 
L 173.359943 366.612752 
L 174.152557 366.951266 
L 175.077273 367.090512 
L 175.077273 367.090512 
L 176.266193 367.008507 
L 181.946591 366.237425 
L 181.946591 366.237425 
L 184.588636 366.320708 
L 184.588636 366.320708 
L 193.703693 366.775192 
L 200.440909 367.090014 
L 200.440909 367.090014 
L 209.555966 367.785087 
L 216.028977 368.511704 
L 216.028977 368.511704 
L 222.501989 369.447291 
L 227.78608 370.441519 
L 233.59858 371.758515 
L 238.354261 373.089773 
L 242.449432 374.166825 
L 242.449432 374.166825 
L 244.430966 374.443306 
L 245.884091 374.71711 
L 245.884091 374.71711 
L 247.073011 375.156964 
L 247.733523 375.544592 
L 247.733523 375.544592 
L 248.12983 375.973147 
L 248.526136 376.671021 
L 248.526136 376.671021 
L 248.922443 377.838632 
L 249.054545 378.399919 
L 249.054545 378.399919 
" style="fill:none;stroke:#000000;stroke-linecap:square;stroke-width:1.5;"/>
   </g>
   <g id="patch_9">
    <path d="M 36 512.64 
L 36 311.04 
" style="fill:none;stroke:#000000;stroke-linecap:square;stroke-linejoin:miter;stroke-width:0.8;"/>
   </g>
   <g id="patch_10">
    <path d="M 259.2 512.64 
L 259.2 311.04 
" style="fill:none;stroke:#000000;stroke-linecap:square;stroke-linejoin:miter;stroke-width:0.8;"/>
   </g>
   <g id="patch_11">
    <path d="M 36 512.64 
L 259.2 512.64 
" style="fill:none;stroke:#000000;stroke-linecap:square;stroke-linejoin:miter;stroke-width:0.8;"/>
   </g>
   <g id="patch_12">
    <path d="M 36 311.04 
L 259.2 311.04 
" style="fill:none;stroke:#000000;stroke-linecap:square;stroke-linejoin:miter;stroke-width:0.8;"/>
   </g>
   <g id="text_31">
    <!-- Geoid -->
    <g transform="translate(130.111875 305.04)scale(0.12 -0.12)">
     <use xlink:href="#DejaVuSans-47"/>
     <use x="77.490234" xlink:href="#DejaVuSans-65"/>
     <use x="139.013672" xlink:href="#DejaVuSans-6f"/>
     <use x="200.195312" xlink:href="#DejaVuSans-69"/>
     <use x="227.978516" xlink:href="#DejaVuSans-64"/>
    </g>
   </g>
   <g id="legend_2">
    <g id="patch_13">
     <path d="M 43 507.64 
L 111.957813 507.64 
Q 113.957813 507.64 113.957813 505.64 
L 113.957813 447.9275 
Q 113.957813 445.9275 111.957813 445.9275 
L 43 445.9275 
Q 41 445.9275 41 447.9275 
L 41 505.64 
Q 41 507.64 43 507.64 
z
" style="fill:#ffffff;opacity:0.8;stroke:#cccccc;stroke-linejoin:miter;"/>
    </g>
    <g id="line2d_34">
     <path d="M 45 454.025937 
L 65 454.025937 
" style="fill:none;stroke:#1f77b4;stroke-linecap:square;stroke-width:1.5;"/>
    </g>
    <g id="line2d_35"/>
    <g id="text_32">
     <!-- interior -->
     <g transform="translate(73 457.525937)scale(0.1 -0.1)">
      <defs>
       <path d="M 1172 4494 
L 1172 3500 
L 2356 3500 
L 2356 3053 
L 1172 3053 
L 1172 1153 
Q 1172 725 1289 603 
Q 1406 481 1766 481 
L 2356 481 
L 2356 0 
L 1766 0 
Q 1100 0 847 248 
Q 594 497 594 1153 
L 594 3053 
L 172 3053 
L 172 3500 
L 594 3500 
L 594 4494 
L 1172 4494 
z
" id="DejaVuSans-74" transform="scale(0.015625)"/>
      </defs>
      <use xlink:href="#DejaVuSans-69"/>
      <use x="27.783203" xlink:href="#DejaVuSans-6e"/>
      <use x="91.162109" xlink:href="#DejaVuSans-74"/>
      <use x="130.371094" xlink:href="#DejaVuSans-65"/>
      <use x="191.894531" xlink:href="#DejaVuSans-72"/>
      <use x="233.007812" xlink:href="#DejaVuSans-69"/>
      <use x="260.791016" xlink:href="#DejaVuSans-6f"/>
      <use x="321.972656" xlink:href="#DejaVuSans-72"/>
     </g>
    </g>
    <g id="line2d_36">
     <path d="M 45 468.704063 
L 65 468.704063 
" style="fill:none;stroke:#ff7f0e;stroke-linecap:square;stroke-width:1.5;"/>
    </g>
    <g id="line2d_37"/>
    <g id="text_33">
     <!-- surface -->
     <g transform="translate(73 472.204063)scale(0.1 -0.1)">
      <defs>
       <path d="M 2834 3397 
L 2834 2853 
Q 2591 2978 2328 3040 
Q 2066 3103 1784 3103 
Q 1356 3103 1142 2972 
Q 928 2841 928 2578 
Q 928 2378 1081 2264 
Q 1234 2150 1697 2047 
L 1894 2003 
Q 2506 1872 2764 1633 
Q 3022 1394 3022 966 
Q 3022 478 2636 193 
Q 2250 -91 1575 -91 
Q 1294 -91 989 -36 
Q 684 19 347 128 
L 347 722 
Q 666 556 975 473 
Q 1284 391 1588 391 
Q 1994 391 2212 530 
Q 2431 669 2431 922 
Q 2431 1156 2273 1281 
Q 2116 1406 1581 1522 
L 1381 1569 
Q 847 1681 609 1914 
Q 372 2147 372 2553 
Q 372 3047 722 3315 
Q 1072 3584 1716 3584 
Q 2034 3584 2315 3537 
Q 2597 3491 2834 3397 
z
" id="DejaVuSans-73" transform="scale(0.015625)"/>
      </defs>
      <use xlink:href="#DejaVuSans-73"/>
      <use x="52.099609" xlink:href="#DejaVuSans-75"/>
      <use x="115.478516" xlink:href="#DejaVuSans-72"/>
      <use x="156.591797" xlink:href="#DejaVuSans-66"/>
      <use x="191.796875" xlink:href="#DejaVuSans-61"/>
      <use x="253.076172" xlink:href="#DejaVuSans-63"/>
      <use x="308.056641" xlink:href="#DejaVuSans-65"/>
     </g>
    </g>
    <g id="line2d_38">
     <path d="M 45 483.382187 
L 65 483.382187 
" style="fill:none;stroke:#2ca02c;stroke-linecap:square;stroke-width:1.5;"/>
    </g>
    <g id="line2d_39"/>
    <g id="text_34">
     <!-- cmb -->
     <g transform="translate(73 486.882187)scale(0.1 -0.1)">
      <defs>
       <path d="M 3116 1747 
Q 3116 2381 2855 2742 
Q 2594 3103 2138 3103 
Q 1681 3103 1420 2742 
Q 1159 2381 1159 1747 
Q 1159 1113 1420 752 
Q 1681 391 2138 391 
Q 2594 391 2855 752 
Q 3116 1113 3116 1747 
z
M 1159 2969 
Q 1341 3281 1617 3432 
Q 1894 3584 2278 3584 
Q 2916 3584 3314 3078 
Q 3713 2572 3713 1747 
Q 3713 922 3314 415 
Q 2916 -91 2278 -91 
Q 1894 -91 1617 61 
Q 1341 213 1159 525 
L 1159 0 
L 581 0 
L 581 4863 
L 1159 4863 
L 1159 2969 
z
" id="DejaVuSans-62" transform="scale(0.015625)"/>
      </defs>
      <use xlink:href="#DejaVuSans-63"/>
      <use x="54.980469" xlink:href="#DejaVuSans-6d"/>
      <use x="152.392578" xlink:href="#DejaVuSans-62"/>
     </g>
    </g>
    <g id="line2d_40">
     <path d="M 45 498.060313 
L 65 498.060313 
" style="fill:none;stroke:#000000;stroke-linecap:square;stroke-width:1.5;"/>
    </g>
    <g id="line2d_41"/>
    <g id="text_35">
     <!-- Total -->
     <g transform="translate(73 501.560313)scale(0.1 -0.1)">
      <use xlink:href="#DejaVuSans-54"/>
      <use x="44.083984" xlink:href="#DejaVuSans-6f"/>
      <use x="105.265625" xlink:href="#DejaVuSans-74"/>
      <use x="144.474609" xlink:href="#DejaVuSans-61"/>
      <use x="205.753906" xlink:href="#DejaVuSans-6c"/>
     </g>
    </g>
   </g>
  </g>
 </g>
 <defs>
  <clipPath id="pf73069a9ea">
   <rect height="201.6" width="223.2" x="36" y="69.12"/>
  </clipPath>
  <clipPath id="p61073cd055">
   <rect height="201.6" width="223.2" x="36" y="311.04"/>
  </clipPath>
 </defs>
</svg>
