<?xml version="1.0" encoding="utf-8" standalone="no"?>
<!DOCTYPE svg PUBLIC "-//W3C//DTD SVG 1.1//EN"
  "http://www.w3.org/Graphics/SVG/1.1/DTD/svg11.dtd">
<svg height="576pt" version="1.1" viewBox="0 0 288 576" width="288pt" xmlns="http://www.w3.org/2000/svg" xmlns:xlink="http://www.w3.org/1999/xlink">
 <metadata>
  <rdf:RDF xmlns:cc="http://creativecommons.org/ns#" xmlns:dc="http://purl.org/dc/elements/1.1/" xmlns:rdf="http://www.w3.org/1999/02/22-rdf-syntax-ns#">
   <cc:Work>
    <dc:type rdf:resource="http://purl.org/dc/dcmitype/StillImage"/>
    <dc:date>2021-07-13T12:28:24.146817</dc:date>
    <dc:format>image/svg+xml</dc:format>
    <dc:creator>
     <cc:Agent>
      <dc:title>Matplotlib v3.4.2, https://matplotlib.org/</dc:title>
     </cc:Agent>
    </dc:creator>
   </cc:Work>
  </rdf:RDF>
 </metadata>
 <defs>
  <style type="text/css">*{stroke-linecap:butt;stroke-linejoin:round;}</style>
 </defs>
 <g id="figure_1">
  <g id="patch_1">
   <path d="M 0 576 
L 288 576 
L 288 0 
L 0 0 
z
" style="fill:#ffffff;"/>
  </g>
  <g id="axes_1">
   <g id="patch_2">
    <path d="M 36 270.72 
L 259.2 270.72 
L 259.2 69.12 
L 36 69.12 
z
" style="fill:#ffffff;"/>
   </g>
   <g id="matplotlib.axis_1">
    <g id="xtick_1">
     <g id="line2d_1">
      <defs>
       <path d="M 0 0 
L 0 3.5 
" id="m17a460014a" style="stroke:#000000;stroke-width:0.8;"/>
      </defs>
      <g>
       <use style="stroke:#000000;stroke-width:0.8;" x="46.145455" xlink:href="#m17a460014a" y="270.72"/>
      </g>
     </g>
     <g id="text_1">
      <!-- 0 -->
      <g transform="translate(42.964205 285.318437)scale(0.1 -0.1)">
       <defs>
        <path d="M 2034 4250 
Q 1547 4250 1301 3770 
Q 1056 3291 1056 2328 
Q 1056 1369 1301 889 
Q 1547 409 2034 409 
Q 2525 409 2770 889 
Q 3016 1369 3016 2328 
Q 3016 3291 2770 3770 
Q 2525 4250 2034 4250 
z
M 2034 4750 
Q 2819 4750 3233 4129 
Q 3647 3509 3647 2328 
Q 3647 1150 3233 529 
Q 2819 -91 2034 -91 
Q 1250 -91 836 529 
Q 422 1150 422 2328 
Q 422 3509 836 4129 
Q 1250 4750 2034 4750 
z
" id="DejaVuSans-30" transform="scale(0.015625)"/>
       </defs>
       <use xlink:href="#DejaVuSans-30"/>
      </g>
     </g>
    </g>
    <g id="xtick_2">
     <g id="line2d_2">
      <g>
       <use style="stroke:#000000;stroke-width:0.8;" x="91.236364" xlink:href="#m17a460014a" y="270.72"/>
      </g>
     </g>
     <g id="text_2">
      <!-- 1 -->
      <g transform="translate(88.055114 285.318437)scale(0.1 -0.1)">
       <defs>
        <path d="M 794 531 
L 1825 531 
L 1825 4091 
L 703 3866 
L 703 4441 
L 1819 4666 
L 2450 4666 
L 2450 531 
L 3481 531 
L 3481 0 
L 794 0 
L 794 531 
z
" id="DejaVuSans-31" transform="scale(0.015625)"/>
       </defs>
       <use xlink:href="#DejaVuSans-31"/>
      </g>
     </g>
    </g>
    <g id="xtick_3">
     <g id="line2d_3">
      <g>
       <use style="stroke:#000000;stroke-width:0.8;" x="136.327273" xlink:href="#m17a460014a" y="270.72"/>
      </g>
     </g>
     <g id="text_3">
      <!-- 2 -->
      <g transform="translate(133.146023 285.318437)scale(0.1 -0.1)">
       <defs>
        <path d="M 1228 531 
L 3431 531 
L 3431 0 
L 469 0 
L 469 531 
Q 828 903 1448 1529 
Q 2069 2156 2228 2338 
Q 2531 2678 2651 2914 
Q 2772 3150 2772 3378 
Q 2772 3750 2511 3984 
Q 2250 4219 1831 4219 
Q 1534 4219 1204 4116 
Q 875 4013 500 3803 
L 500 4441 
Q 881 4594 1212 4672 
Q 1544 4750 1819 4750 
Q 2544 4750 2975 4387 
Q 3406 4025 3406 3419 
Q 3406 3131 3298 2873 
Q 3191 2616 2906 2266 
Q 2828 2175 2409 1742 
Q 1991 1309 1228 531 
z
" id="DejaVuSans-32" transform="scale(0.015625)"/>
       </defs>
       <use xlink:href="#DejaVuSans-32"/>
      </g>
     </g>
    </g>
    <g id="xtick_4">
     <g id="line2d_4">
      <g>
       <use style="stroke:#000000;stroke-width:0.8;" x="181.418182" xlink:href="#m17a460014a" y="270.72"/>
      </g>
     </g>
     <g id="text_4">
      <!-- 3 -->
      <g transform="translate(178.236932 285.318437)scale(0.1 -0.1)">
       <defs>
        <path d="M 2597 2516 
Q 3050 2419 3304 2112 
Q 3559 1806 3559 1356 
Q 3559 666 3084 287 
Q 2609 -91 1734 -91 
Q 1441 -91 1130 -33 
Q 819 25 488 141 
L 488 750 
Q 750 597 1062 519 
Q 1375 441 1716 441 
Q 2309 441 2620 675 
Q 2931 909 2931 1356 
Q 2931 1769 2642 2001 
Q 2353 2234 1838 2234 
L 1294 2234 
L 1294 2753 
L 1863 2753 
Q 2328 2753 2575 2939 
Q 2822 3125 2822 3475 
Q 2822 3834 2567 4026 
Q 2313 4219 1838 4219 
Q 1578 4219 1281 4162 
Q 984 4106 628 3988 
L 628 4550 
Q 988 4650 1302 4700 
Q 1616 4750 1894 4750 
Q 2613 4750 3031 4423 
Q 3450 4097 3450 3541 
Q 3450 3153 3228 2886 
Q 3006 2619 2597 2516 
z
" id="DejaVuSans-33" transform="scale(0.015625)"/>
       </defs>
       <use xlink:href="#DejaVuSans-33"/>
      </g>
     </g>
    </g>
    <g id="xtick_5">
     <g id="line2d_5">
      <g>
       <use style="stroke:#000000;stroke-width:0.8;" x="226.509091" xlink:href="#m17a460014a" y="270.72"/>
      </g>
     </g>
     <g id="text_5">
      <!-- 4 -->
      <g transform="translate(223.327841 285.318437)scale(0.1 -0.1)">
       <defs>
        <path d="M 2419 4116 
L 825 1625 
L 2419 1625 
L 2419 4116 
z
M 2253 4666 
L 3047 4666 
L 3047 1625 
L 3713 1625 
L 3713 1100 
L 3047 1100 
L 3047 0 
L 2419 0 
L 2419 1100 
L 313 1100 
L 313 1709 
L 2253 4666 
z
" id="DejaVuSans-34" transform="scale(0.015625)"/>
       </defs>
       <use xlink:href="#DejaVuSans-34"/>
      </g>
     </g>
    </g>
    <g id="text_6">
     <!-- 1e6 -->
     <g transform="translate(240.321875 297.996562)scale(0.1 -0.1)">
      <defs>
       <path d="M 3597 1894 
L 3597 1613 
L 953 1613 
Q 991 1019 1311 708 
Q 1631 397 2203 397 
Q 2534 397 2845 478 
Q 3156 559 3463 722 
L 3463 178 
Q 3153 47 2828 -22 
Q 2503 -91 2169 -91 
Q 1331 -91 842 396 
Q 353 884 353 1716 
Q 353 2575 817 3079 
Q 1281 3584 2069 3584 
Q 2775 3584 3186 3129 
Q 3597 2675 3597 1894 
z
M 3022 2063 
Q 3016 2534 2758 2815 
Q 2500 3097 2075 3097 
Q 1594 3097 1305 2825 
Q 1016 2553 972 2059 
L 3022 2063 
z
" id="DejaVuSans-65" transform="scale(0.015625)"/>
       <path d="M 2113 2584 
Q 1688 2584 1439 2293 
Q 1191 2003 1191 1497 
Q 1191 994 1439 701 
Q 1688 409 2113 409 
Q 2538 409 2786 701 
Q 3034 994 3034 1497 
Q 3034 2003 2786 2293 
Q 2538 2584 2113 2584 
z
M 3366 4563 
L 3366 3988 
Q 3128 4100 2886 4159 
Q 2644 4219 2406 4219 
Q 1781 4219 1451 3797 
Q 1122 3375 1075 2522 
Q 1259 2794 1537 2939 
Q 1816 3084 2150 3084 
Q 2853 3084 3261 2657 
Q 3669 2231 3669 1497 
Q 3669 778 3244 343 
Q 2819 -91 2113 -91 
Q 1303 -91 875 529 
Q 447 1150 447 2328 
Q 447 3434 972 4092 
Q 1497 4750 2381 4750 
Q 2619 4750 2861 4703 
Q 3103 4656 3366 4563 
z
" id="DejaVuSans-36" transform="scale(0.015625)"/>
      </defs>
      <use xlink:href="#DejaVuSans-31"/>
      <use x="63.623047" xlink:href="#DejaVuSans-65"/>
      <use x="125.146484" xlink:href="#DejaVuSans-36"/>
     </g>
    </g>
   </g>
   <g id="matplotlib.axis_2">
    <g id="ytick_1">
     <g id="line2d_6">
      <defs>
       <path d="M 0 0 
L -3.5 0 
" id="m6745a52cee" style="stroke:#000000;stroke-width:0.8;"/>
      </defs>
      <g>
       <use style="stroke:#000000;stroke-width:0.8;" x="36" xlink:href="#m6745a52cee" y="264.853035"/>
      </g>
     </g>
     <g id="text_7">
      <!-- −10000 -->
      <g transform="translate(-11.192188 268.652254)scale(0.1 -0.1)">
       <defs>
        <path d="M 678 2272 
L 4684 2272 
L 4684 1741 
L 678 1741 
L 678 2272 
z
" id="DejaVuSans-2212" transform="scale(0.015625)"/>
       </defs>
       <use xlink:href="#DejaVuSans-2212"/>
       <use x="83.789062" xlink:href="#DejaVuSans-31"/>
       <use x="147.412109" xlink:href="#DejaVuSans-30"/>
       <use x="211.035156" xlink:href="#DejaVuSans-30"/>
       <use x="274.658203" xlink:href="#DejaVuSans-30"/>
       <use x="338.28125" xlink:href="#DejaVuSans-30"/>
      </g>
     </g>
    </g>
    <g id="ytick_2">
     <g id="line2d_7">
      <g>
       <use style="stroke:#000000;stroke-width:0.8;" x="36" xlink:href="#m6745a52cee" y="238.160014"/>
      </g>
     </g>
     <g id="text_8">
      <!-- −7500 -->
      <g transform="translate(-4.829687 241.959232)scale(0.1 -0.1)">
       <defs>
        <path d="M 525 4666 
L 3525 4666 
L 3525 4397 
L 1831 0 
L 1172 0 
L 2766 4134 
L 525 4134 
L 525 4666 
z
" id="DejaVuSans-37" transform="scale(0.015625)"/>
        <path d="M 691 4666 
L 3169 4666 
L 3169 4134 
L 1269 4134 
L 1269 2991 
Q 1406 3038 1543 3061 
Q 1681 3084 1819 3084 
Q 2600 3084 3056 2656 
Q 3513 2228 3513 1497 
Q 3513 744 3044 326 
Q 2575 -91 1722 -91 
Q 1428 -91 1123 -41 
Q 819 9 494 109 
L 494 744 
Q 775 591 1075 516 
Q 1375 441 1709 441 
Q 2250 441 2565 725 
Q 2881 1009 2881 1497 
Q 2881 1984 2565 2268 
Q 2250 2553 1709 2553 
Q 1456 2553 1204 2497 
Q 953 2441 691 2322 
L 691 4666 
z
" id="DejaVuSans-35" transform="scale(0.015625)"/>
       </defs>
       <use xlink:href="#DejaVuSans-2212"/>
       <use x="83.789062" xlink:href="#DejaVuSans-37"/>
       <use x="147.412109" xlink:href="#DejaVuSans-35"/>
       <use x="211.035156" xlink:href="#DejaVuSans-30"/>
       <use x="274.658203" xlink:href="#DejaVuSans-30"/>
      </g>
     </g>
    </g>
    <g id="ytick_3">
     <g id="line2d_8">
      <g>
       <use style="stroke:#000000;stroke-width:0.8;" x="36" xlink:href="#m6745a52cee" y="211.466992"/>
      </g>
     </g>
     <g id="text_9">
      <!-- −5000 -->
      <g transform="translate(-4.829687 215.266211)scale(0.1 -0.1)">
       <use xlink:href="#DejaVuSans-2212"/>
       <use x="83.789062" xlink:href="#DejaVuSans-35"/>
       <use x="147.412109" xlink:href="#DejaVuSans-30"/>
       <use x="211.035156" xlink:href="#DejaVuSans-30"/>
       <use x="274.658203" xlink:href="#DejaVuSans-30"/>
      </g>
     </g>
    </g>
    <g id="ytick_4">
     <g id="line2d_9">
      <g>
       <use style="stroke:#000000;stroke-width:0.8;" x="36" xlink:href="#m6745a52cee" y="184.773971"/>
      </g>
     </g>
     <g id="text_10">
      <!-- −2500 -->
      <g transform="translate(-4.829687 188.573189)scale(0.1 -0.1)">
       <use xlink:href="#DejaVuSans-2212"/>
       <use x="83.789062" xlink:href="#DejaVuSans-32"/>
       <use x="147.412109" xlink:href="#DejaVuSans-35"/>
       <use x="211.035156" xlink:href="#DejaVuSans-30"/>
       <use x="274.658203" xlink:href="#DejaVuSans-30"/>
      </g>
     </g>
    </g>
    <g id="ytick_5">
     <g id="line2d_10">
      <g>
       <use style="stroke:#000000;stroke-width:0.8;" x="36" xlink:href="#m6745a52cee" y="158.080949"/>
      </g>
     </g>
     <g id="text_11">
      <!-- 0 -->
      <g transform="translate(22.6375 161.880168)scale(0.1 -0.1)">
       <use xlink:href="#DejaVuSans-30"/>
      </g>
     </g>
    </g>
    <g id="ytick_6">
     <g id="line2d_11">
      <g>
       <use style="stroke:#000000;stroke-width:0.8;" x="36" xlink:href="#m6745a52cee" y="131.387927"/>
      </g>
     </g>
     <g id="text_12">
      <!-- 2500 -->
      <g transform="translate(3.55 135.187146)scale(0.1 -0.1)">
       <use xlink:href="#DejaVuSans-32"/>
       <use x="63.623047" xlink:href="#DejaVuSans-35"/>
       <use x="127.246094" xlink:href="#DejaVuSans-30"/>
       <use x="190.869141" xlink:href="#DejaVuSans-30"/>
      </g>
     </g>
    </g>
    <g id="ytick_7">
     <g id="line2d_12">
      <g>
       <use style="stroke:#000000;stroke-width:0.8;" x="36" xlink:href="#m6745a52cee" y="104.694906"/>
      </g>
     </g>
     <g id="text_13">
      <!-- 5000 -->
      <g transform="translate(3.55 108.494125)scale(0.1 -0.1)">
       <use xlink:href="#DejaVuSans-35"/>
       <use x="63.623047" xlink:href="#DejaVuSans-30"/>
       <use x="127.246094" xlink:href="#DejaVuSans-30"/>
       <use x="190.869141" xlink:href="#DejaVuSans-30"/>
      </g>
     </g>
    </g>
    <g id="ytick_8">
     <g id="line2d_13">
      <g>
       <use style="stroke:#000000;stroke-width:0.8;" x="36" xlink:href="#m6745a52cee" y="78.001884"/>
      </g>
     </g>
     <g id="text_14">
      <!-- 7500 -->
      <g transform="translate(3.55 81.801103)scale(0.1 -0.1)">
       <use xlink:href="#DejaVuSans-37"/>
       <use x="63.623047" xlink:href="#DejaVuSans-35"/>
       <use x="127.246094" xlink:href="#DejaVuSans-30"/>
       <use x="190.869141" xlink:href="#DejaVuSans-30"/>
      </g>
     </g>
    </g>
    <g id="text_15">
     <!-- Topography (m) -->
     <g transform="translate(-17.271875 209.373906)rotate(-90)scale(0.1 -0.1)">
      <defs>
       <path d="M -19 4666 
L 3928 4666 
L 3928 4134 
L 2272 4134 
L 2272 0 
L 1638 0 
L 1638 4134 
L -19 4134 
L -19 4666 
z
" id="DejaVuSans-54" transform="scale(0.015625)"/>
       <path d="M 1959 3097 
Q 1497 3097 1228 2736 
Q 959 2375 959 1747 
Q 959 1119 1226 758 
Q 1494 397 1959 397 
Q 2419 397 2687 759 
Q 2956 1122 2956 1747 
Q 2956 2369 2687 2733 
Q 2419 3097 1959 3097 
z
M 1959 3584 
Q 2709 3584 3137 3096 
Q 3566 2609 3566 1747 
Q 3566 888 3137 398 
Q 2709 -91 1959 -91 
Q 1206 -91 779 398 
Q 353 888 353 1747 
Q 353 2609 779 3096 
Q 1206 3584 1959 3584 
z
" id="DejaVuSans-6f" transform="scale(0.015625)"/>
       <path d="M 1159 525 
L 1159 -1331 
L 581 -1331 
L 581 3500 
L 1159 3500 
L 1159 2969 
Q 1341 3281 1617 3432 
Q 1894 3584 2278 3584 
Q 2916 3584 3314 3078 
Q 3713 2572 3713 1747 
Q 3713 922 3314 415 
Q 2916 -91 2278 -91 
Q 1894 -91 1617 61 
Q 1341 213 1159 525 
z
M 3116 1747 
Q 3116 2381 2855 2742 
Q 2594 3103 2138 3103 
Q 1681 3103 1420 2742 
Q 1159 2381 1159 1747 
Q 1159 1113 1420 752 
Q 1681 391 2138 391 
Q 2594 391 2855 752 
Q 3116 1113 3116 1747 
z
" id="DejaVuSans-70" transform="scale(0.015625)"/>
       <path d="M 2906 1791 
Q 2906 2416 2648 2759 
Q 2391 3103 1925 3103 
Q 1463 3103 1205 2759 
Q 947 2416 947 1791 
Q 947 1169 1205 825 
Q 1463 481 1925 481 
Q 2391 481 2648 825 
Q 2906 1169 2906 1791 
z
M 3481 434 
Q 3481 -459 3084 -895 
Q 2688 -1331 1869 -1331 
Q 1566 -1331 1297 -1286 
Q 1028 -1241 775 -1147 
L 775 -588 
Q 1028 -725 1275 -790 
Q 1522 -856 1778 -856 
Q 2344 -856 2625 -561 
Q 2906 -266 2906 331 
L 2906 616 
Q 2728 306 2450 153 
Q 2172 0 1784 0 
Q 1141 0 747 490 
Q 353 981 353 1791 
Q 353 2603 747 3093 
Q 1141 3584 1784 3584 
Q 2172 3584 2450 3431 
Q 2728 3278 2906 2969 
L 2906 3500 
L 3481 3500 
L 3481 434 
z
" id="DejaVuSans-67" transform="scale(0.015625)"/>
       <path d="M 2631 2963 
Q 2534 3019 2420 3045 
Q 2306 3072 2169 3072 
Q 1681 3072 1420 2755 
Q 1159 2438 1159 1844 
L 1159 0 
L 581 0 
L 581 3500 
L 1159 3500 
L 1159 2956 
Q 1341 3275 1631 3429 
Q 1922 3584 2338 3584 
Q 2397 3584 2469 3576 
Q 2541 3569 2628 3553 
L 2631 2963 
z
" id="DejaVuSans-72" transform="scale(0.015625)"/>
       <path d="M 2194 1759 
Q 1497 1759 1228 1600 
Q 959 1441 959 1056 
Q 959 750 1161 570 
Q 1363 391 1709 391 
Q 2188 391 2477 730 
Q 2766 1069 2766 1631 
L 2766 1759 
L 2194 1759 
z
M 3341 1997 
L 3341 0 
L 2766 0 
L 2766 531 
Q 2569 213 2275 61 
Q 1981 -91 1556 -91 
Q 1019 -91 701 211 
Q 384 513 384 1019 
Q 384 1609 779 1909 
Q 1175 2209 1959 2209 
L 2766 2209 
L 2766 2266 
Q 2766 2663 2505 2880 
Q 2244 3097 1772 3097 
Q 1472 3097 1187 3025 
Q 903 2953 641 2809 
L 641 3341 
Q 956 3463 1253 3523 
Q 1550 3584 1831 3584 
Q 2591 3584 2966 3190 
Q 3341 2797 3341 1997 
z
" id="DejaVuSans-61" transform="scale(0.015625)"/>
       <path d="M 3513 2113 
L 3513 0 
L 2938 0 
L 2938 2094 
Q 2938 2591 2744 2837 
Q 2550 3084 2163 3084 
Q 1697 3084 1428 2787 
Q 1159 2491 1159 1978 
L 1159 0 
L 581 0 
L 581 4863 
L 1159 4863 
L 1159 2956 
Q 1366 3272 1645 3428 
Q 1925 3584 2291 3584 
Q 2894 3584 3203 3211 
Q 3513 2838 3513 2113 
z
" id="DejaVuSans-68" transform="scale(0.015625)"/>
       <path d="M 2059 -325 
Q 1816 -950 1584 -1140 
Q 1353 -1331 966 -1331 
L 506 -1331 
L 506 -850 
L 844 -850 
Q 1081 -850 1212 -737 
Q 1344 -625 1503 -206 
L 1606 56 
L 191 3500 
L 800 3500 
L 1894 763 
L 2988 3500 
L 3597 3500 
L 2059 -325 
z
" id="DejaVuSans-79" transform="scale(0.015625)"/>
       <path id="DejaVuSans-20" transform="scale(0.015625)"/>
       <path d="M 1984 4856 
Q 1566 4138 1362 3434 
Q 1159 2731 1159 2009 
Q 1159 1288 1364 580 
Q 1569 -128 1984 -844 
L 1484 -844 
Q 1016 -109 783 600 
Q 550 1309 550 2009 
Q 550 2706 781 3412 
Q 1013 4119 1484 4856 
L 1984 4856 
z
" id="DejaVuSans-28" transform="scale(0.015625)"/>
       <path d="M 3328 2828 
Q 3544 3216 3844 3400 
Q 4144 3584 4550 3584 
Q 5097 3584 5394 3201 
Q 5691 2819 5691 2113 
L 5691 0 
L 5113 0 
L 5113 2094 
Q 5113 2597 4934 2840 
Q 4756 3084 4391 3084 
Q 3944 3084 3684 2787 
Q 3425 2491 3425 1978 
L 3425 0 
L 2847 0 
L 2847 2094 
Q 2847 2600 2669 2842 
Q 2491 3084 2119 3084 
Q 1678 3084 1418 2786 
Q 1159 2488 1159 1978 
L 1159 0 
L 581 0 
L 581 3500 
L 1159 3500 
L 1159 2956 
Q 1356 3278 1631 3431 
Q 1906 3584 2284 3584 
Q 2666 3584 2933 3390 
Q 3200 3197 3328 2828 
z
" id="DejaVuSans-6d" transform="scale(0.015625)"/>
       <path d="M 513 4856 
L 1013 4856 
Q 1481 4119 1714 3412 
Q 1947 2706 1947 2009 
Q 1947 1309 1714 600 
Q 1481 -109 1013 -844 
L 513 -844 
Q 928 -128 1133 580 
Q 1338 1288 1338 2009 
Q 1338 2731 1133 3434 
Q 928 4138 513 4856 
z
" id="DejaVuSans-29" transform="scale(0.015625)"/>
      </defs>
      <use xlink:href="#DejaVuSans-54"/>
      <use x="44.083984" xlink:href="#DejaVuSans-6f"/>
      <use x="105.265625" xlink:href="#DejaVuSans-70"/>
      <use x="168.742188" xlink:href="#DejaVuSans-6f"/>
      <use x="229.923828" xlink:href="#DejaVuSans-67"/>
      <use x="293.400391" xlink:href="#DejaVuSans-72"/>
      <use x="334.513672" xlink:href="#DejaVuSans-61"/>
      <use x="395.792969" xlink:href="#DejaVuSans-70"/>
      <use x="459.269531" xlink:href="#DejaVuSans-68"/>
      <use x="522.648438" xlink:href="#DejaVuSans-79"/>
      <use x="581.828125" xlink:href="#DejaVuSans-20"/>
      <use x="613.615234" xlink:href="#DejaVuSans-28"/>
      <use x="652.628906" xlink:href="#DejaVuSans-6d"/>
      <use x="750.041016" xlink:href="#DejaVuSans-29"/>
     </g>
    </g>
   </g>
   <g id="line2d_14">
    <path clip-path="url(#p586a9f7e57)" d="M 46.145455 157.603736 
L 56.713636 157.734431 
L 65.168182 158.016996 
L 75.736364 158.582524 
L 75.736364 158.582524 
L 88.418182 159.534275 
L 88.418182 159.534275 
L 124.35 162.537852 
L 132.804545 162.977947 
L 141.259091 163.2387 
L 149.713636 163.319577 
L 160.281818 163.198878 
L 160.281818 163.198878 
L 172.963636 162.80089 
L 172.963636 162.80089 
L 196.213636 161.741158 
L 217.35 160.83674 
L 232.145455 160.411408 
L 232.145455 160.411408 
L 246.940909 160.237636 
L 249.054545 160.232831 
L 249.054545 160.232831 
" style="fill:none;stroke:#1f77b4;stroke-linecap:square;stroke-width:1.5;"/>
   </g>
   <g id="line2d_15">
    <path clip-path="url(#p586a9f7e57)" d="M 46.145455 137.558582 
L 46.541761 137.98791 
L 47.202273 138.703417 
L 47.202273 138.703417 
L 48.391193 139.598466 
L 49.844318 140.427848 
L 49.844318 140.427848 
L 53.278977 141.971937 
L 53.278977 141.971937 
L 60.808807 144.337824 
L 65.960795 145.679789 
L 65.960795 145.679789 
L 76.000568 148.091273 
L 76.000568 148.091273 
L 85.37983 150.276655 
L 95.948011 153.036719 
L 99.646875 154.206832 
L 106.384091 156.645074 
L 106.384091 156.645074 
L 113.385511 159.587327 
L 117.084375 161.333568 
L 120.25483 163.050463 
L 123.425284 165.03297 
L 127.388352 167.740524 
L 129.237784 169.253007 
L 130.823011 170.821976 
L 132.540341 172.828769 
L 132.540341 172.828769 
L 135.446591 176.261841 
L 135.446591 176.261841 
L 136.503409 177.151534 
L 136.503409 177.151534 
L 137.560227 177.702017 
L 137.560227 177.702017 
L 139.013352 178.074551 
L 139.805966 178.391693 
L 140.334375 178.827453 
L 140.730682 179.339597 
L 140.730682 179.339597 
L 141.259091 180.403875 
L 141.259091 180.403875 
L 141.919602 182.54338 
L 142.448011 185.037019 
L 142.97642 188.368572 
L 143.636932 193.810223 
L 143.636932 193.810223 
L 144.561648 203.998811 
L 145.618466 218.557222 
L 147.467898 244.372105 
L 147.996307 249.302056 
L 148.392614 251.62291 
L 148.392614 251.62291 
L 148.656818 252.261655 
L 148.656818 252.261655 
L 148.921023 252.111903 
L 148.921023 252.111903 
L 149.185227 251.091834 
L 149.185227 251.091834 
L 149.581534 247.63465 
L 149.977841 242.080989 
L 149.977841 242.080989 
L 150.50625 230.56857 
L 150.50625 230.56857 
L 151.166761 209.604836 
L 151.827273 182.377797 
L 151.827273 182.377797 
L 153.280398 109.240326 
L 153.940909 78.283636 
L 153.940909 78.283636 
L 154.337216 87.502577 
L 154.865625 107.66207 
L 155.394034 133.639301 
L 156.979261 218.297147 
L 158.168182 260.141675 
L 158.168182 260.141675 
L 158.432386 261.556364 
L 158.432386 261.556364 
L 158.696591 260.441575 
L 158.696591 260.441575 
L 159.092898 254.261766 
L 159.489205 245.266874 
L 159.489205 245.266874 
L 160.41392 216.522984 
L 161.867045 170.700371 
L 161.867045 170.700371 
L 162.659659 152.214642 
L 162.659659 152.214642 
L 163.32017 141.675765 
L 163.84858 136.25106 
L 164.244886 133.757186 
L 164.244886 133.757186 
L 164.641193 132.653148 
L 164.773295 132.455234 
L 164.773295 132.455234 
L 165.0375 132.516463 
L 165.0375 132.516463 
L 165.433807 133.392104 
L 165.830114 134.918929 
L 165.830114 134.918929 
L 166.622727 139.56578 
L 166.622727 139.56578 
L 169.264773 157.211224 
L 169.264773 157.211224 
L 170.057386 160.669989 
L 170.057386 160.669989 
L 170.717898 162.595569 
L 171.246307 163.567647 
L 171.642614 164.003816 
L 171.642614 164.003816 
L 172.171023 164.212754 
L 172.171023 164.212754 
L 172.699432 164.087268 
L 172.699432 164.087268 
L 173.359943 163.57434 
L 174.152557 162.646109 
L 176.794602 159.351829 
L 177.719318 158.615784 
L 177.719318 158.615784 
L 178.776136 158.116922 
L 178.776136 158.116922 
L 179.832955 157.907149 
L 179.832955 157.907149 
L 181.418182 157.897078 
L 181.418182 157.897078 
L 184.324432 157.927637 
L 184.324432 157.927637 
L 186.438068 157.658603 
L 186.438068 157.658603 
L 194.760511 156.085016 
L 203.215057 154.456911 
L 207.178125 153.74228 
L 210.480682 152.868476 
L 210.480682 152.868476 
L 213.651136 152.128675 
L 213.651136 152.128675 
L 220.25625 150.725575 
L 220.25625 150.725575 
L 224.87983 149.286856 
L 230.16392 148.05512 
L 231.88125 147.229055 
L 231.88125 147.229055 
L 233.730682 146.424243 
L 233.730682 146.424243 
L 235.183807 146.044487 
L 238.090057 145.440471 
L 239.014773 144.903719 
L 239.014773 144.903719 
L 240.335795 143.772146 
L 240.335795 143.772146 
L 242.053125 142.297152 
L 242.185227 142.196586 
L 242.185227 142.196586 
L 242.449432 142.500442 
L 242.449432 142.500442 
L 242.581534 142.359758 
L 242.713636 143.247925 
L 242.713636 143.247925 
L 244.298864 147.896683 
L 244.298864 147.896683 
L 244.827273 148.119174 
L 244.827273 148.119174 
L 245.091477 147.211624 
L 245.355682 145.166216 
L 245.355682 145.166216 
L 245.487784 143.061503 
L 245.619886 143.000428 
L 245.619886 143.000428 
L 246.016193 141.815241 
L 246.676705 141.016111 
L 246.676705 141.016111 
L 247.205114 140.945345 
L 247.205114 140.945345 
L 247.733523 140.035116 
L 247.733523 140.035116 
L 249.054545 137.963782 
L 249.054545 137.963782 
" style="fill:none;stroke:#ff7f0e;stroke-linecap:square;stroke-width:1.5;"/>
   </g>
   <g id="patch_3">
    <path d="M 36 270.72 
L 36 69.12 
" style="fill:none;stroke:#000000;stroke-linecap:square;stroke-linejoin:miter;stroke-width:0.8;"/>
   </g>
   <g id="patch_4">
    <path d="M 259.2 270.72 
L 259.2 69.12 
" style="fill:none;stroke:#000000;stroke-linecap:square;stroke-linejoin:miter;stroke-width:0.8;"/>
   </g>
   <g id="patch_5">
    <path d="M 36 270.72 
L 259.2 270.72 
" style="fill:none;stroke:#000000;stroke-linecap:square;stroke-linejoin:miter;stroke-width:0.8;"/>
   </g>
   <g id="patch_6">
    <path d="M 36 69.12 
L 259.2 69.12 
" style="fill:none;stroke:#000000;stroke-linecap:square;stroke-linejoin:miter;stroke-width:0.8;"/>
   </g>
   <g id="text_16">
    <!-- Topography -->
    <g transform="translate(112.688437 63.12)scale(0.12 -0.12)">
     <use xlink:href="#DejaVuSans-54"/>
     <use x="44.083984" xlink:href="#DejaVuSans-6f"/>
     <use x="105.265625" xlink:href="#DejaVuSans-70"/>
     <use x="168.742188" xlink:href="#DejaVuSans-6f"/>
     <use x="229.923828" xlink:href="#DejaVuSans-67"/>
     <use x="293.400391" xlink:href="#DejaVuSans-72"/>
     <use x="334.513672" xlink:href="#DejaVuSans-61"/>
     <use x="395.792969" xlink:href="#DejaVuSans-70"/>
     <use x="459.269531" xlink:href="#DejaVuSans-68"/>
     <use x="522.648438" xlink:href="#DejaVuSans-79"/>
    </g>
   </g>
   <g id="legend_1">
    <g id="patch_7">
     <path d="M 106.739062 106.47625 
L 252.2 106.47625 
Q 254.2 106.47625 254.2 104.47625 
L 254.2 76.12 
Q 254.2 74.12 252.2 74.12 
L 106.739062 74.12 
Q 104.739062 74.12 104.739062 76.12 
L 104.739062 104.47625 
Q 104.739062 106.47625 106.739062 106.47625 
z
" style="fill:#ffffff;opacity:0.8;stroke:#cccccc;stroke-linejoin:miter;"/>
    </g>
    <g id="line2d_16">
     <path d="M 108.739062 82.218437 
L 128.739062 82.218437 
" style="fill:none;stroke:#1f77b4;stroke-linecap:square;stroke-width:1.5;"/>
    </g>
    <g id="line2d_17"/>
    <g id="text_17">
     <!-- CMB Topography (x10) -->
     <g transform="translate(136.739062 85.718437)scale(0.1 -0.1)">
      <defs>
       <path d="M 4122 4306 
L 4122 3641 
Q 3803 3938 3442 4084 
Q 3081 4231 2675 4231 
Q 1875 4231 1450 3742 
Q 1025 3253 1025 2328 
Q 1025 1406 1450 917 
Q 1875 428 2675 428 
Q 3081 428 3442 575 
Q 3803 722 4122 1019 
L 4122 359 
Q 3791 134 3420 21 
Q 3050 -91 2638 -91 
Q 1578 -91 968 557 
Q 359 1206 359 2328 
Q 359 3453 968 4101 
Q 1578 4750 2638 4750 
Q 3056 4750 3426 4639 
Q 3797 4528 4122 4306 
z
" id="DejaVuSans-43" transform="scale(0.015625)"/>
       <path d="M 628 4666 
L 1569 4666 
L 2759 1491 
L 3956 4666 
L 4897 4666 
L 4897 0 
L 4281 0 
L 4281 4097 
L 3078 897 
L 2444 897 
L 1241 4097 
L 1241 0 
L 628 0 
L 628 4666 
z
" id="DejaVuSans-4d" transform="scale(0.015625)"/>
       <path d="M 1259 2228 
L 1259 519 
L 2272 519 
Q 2781 519 3026 730 
Q 3272 941 3272 1375 
Q 3272 1813 3026 2020 
Q 2781 2228 2272 2228 
L 1259 2228 
z
M 1259 4147 
L 1259 2741 
L 2194 2741 
Q 2656 2741 2882 2914 
Q 3109 3088 3109 3444 
Q 3109 3797 2882 3972 
Q 2656 4147 2194 4147 
L 1259 4147 
z
M 628 4666 
L 2241 4666 
Q 2963 4666 3353 4366 
Q 3744 4066 3744 3513 
Q 3744 3084 3544 2831 
Q 3344 2578 2956 2516 
Q 3422 2416 3680 2098 
Q 3938 1781 3938 1306 
Q 3938 681 3513 340 
Q 3088 0 2303 0 
L 628 0 
L 628 4666 
z
" id="DejaVuSans-42" transform="scale(0.015625)"/>
       <path d="M 3513 3500 
L 2247 1797 
L 3578 0 
L 2900 0 
L 1881 1375 
L 863 0 
L 184 0 
L 1544 1831 
L 300 3500 
L 978 3500 
L 1906 2253 
L 2834 3500 
L 3513 3500 
z
" id="DejaVuSans-78" transform="scale(0.015625)"/>
      </defs>
      <use xlink:href="#DejaVuSans-43"/>
      <use x="69.824219" xlink:href="#DejaVuSans-4d"/>
      <use x="156.103516" xlink:href="#DejaVuSans-42"/>
      <use x="224.707031" xlink:href="#DejaVuSans-20"/>
      <use x="256.494141" xlink:href="#DejaVuSans-54"/>
      <use x="300.578125" xlink:href="#DejaVuSans-6f"/>
      <use x="361.759766" xlink:href="#DejaVuSans-70"/>
      <use x="425.236328" xlink:href="#DejaVuSans-6f"/>
      <use x="486.417969" xlink:href="#DejaVuSans-67"/>
      <use x="549.894531" xlink:href="#DejaVuSans-72"/>
      <use x="591.007812" xlink:href="#DejaVuSans-61"/>
      <use x="652.287109" xlink:href="#DejaVuSans-70"/>
      <use x="715.763672" xlink:href="#DejaVuSans-68"/>
      <use x="779.142578" xlink:href="#DejaVuSans-79"/>
      <use x="838.322266" xlink:href="#DejaVuSans-20"/>
      <use x="870.109375" xlink:href="#DejaVuSans-28"/>
      <use x="909.123047" xlink:href="#DejaVuSans-78"/>
      <use x="968.302734" xlink:href="#DejaVuSans-31"/>
      <use x="1031.925781" xlink:href="#DejaVuSans-30"/>
      <use x="1095.548828" xlink:href="#DejaVuSans-29"/>
     </g>
    </g>
    <g id="line2d_18">
     <path d="M 108.739062 96.896563 
L 128.739062 96.896563 
" style="fill:none;stroke:#ff7f0e;stroke-linecap:square;stroke-width:1.5;"/>
    </g>
    <g id="line2d_19"/>
    <g id="text_18">
     <!-- Surface Topography -->
     <g transform="translate(136.739062 100.396563)scale(0.1 -0.1)">
      <defs>
       <path d="M 3425 4513 
L 3425 3897 
Q 3066 4069 2747 4153 
Q 2428 4238 2131 4238 
Q 1616 4238 1336 4038 
Q 1056 3838 1056 3469 
Q 1056 3159 1242 3001 
Q 1428 2844 1947 2747 
L 2328 2669 
Q 3034 2534 3370 2195 
Q 3706 1856 3706 1288 
Q 3706 609 3251 259 
Q 2797 -91 1919 -91 
Q 1588 -91 1214 -16 
Q 841 59 441 206 
L 441 856 
Q 825 641 1194 531 
Q 1563 422 1919 422 
Q 2459 422 2753 634 
Q 3047 847 3047 1241 
Q 3047 1584 2836 1778 
Q 2625 1972 2144 2069 
L 1759 2144 
Q 1053 2284 737 2584 
Q 422 2884 422 3419 
Q 422 4038 858 4394 
Q 1294 4750 2059 4750 
Q 2388 4750 2728 4690 
Q 3069 4631 3425 4513 
z
" id="DejaVuSans-53" transform="scale(0.015625)"/>
       <path d="M 544 1381 
L 544 3500 
L 1119 3500 
L 1119 1403 
Q 1119 906 1312 657 
Q 1506 409 1894 409 
Q 2359 409 2629 706 
Q 2900 1003 2900 1516 
L 2900 3500 
L 3475 3500 
L 3475 0 
L 2900 0 
L 2900 538 
Q 2691 219 2414 64 
Q 2138 -91 1772 -91 
Q 1169 -91 856 284 
Q 544 659 544 1381 
z
M 1991 3584 
L 1991 3584 
z
" id="DejaVuSans-75" transform="scale(0.015625)"/>
       <path d="M 2375 4863 
L 2375 4384 
L 1825 4384 
Q 1516 4384 1395 4259 
Q 1275 4134 1275 3809 
L 1275 3500 
L 2222 3500 
L 2222 3053 
L 1275 3053 
L 1275 0 
L 697 0 
L 697 3053 
L 147 3053 
L 147 3500 
L 697 3500 
L 697 3744 
Q 697 4328 969 4595 
Q 1241 4863 1831 4863 
L 2375 4863 
z
" id="DejaVuSans-66" transform="scale(0.015625)"/>
       <path d="M 3122 3366 
L 3122 2828 
Q 2878 2963 2633 3030 
Q 2388 3097 2138 3097 
Q 1578 3097 1268 2742 
Q 959 2388 959 1747 
Q 959 1106 1268 751 
Q 1578 397 2138 397 
Q 2388 397 2633 464 
Q 2878 531 3122 666 
L 3122 134 
Q 2881 22 2623 -34 
Q 2366 -91 2075 -91 
Q 1284 -91 818 406 
Q 353 903 353 1747 
Q 353 2603 823 3093 
Q 1294 3584 2113 3584 
Q 2378 3584 2631 3529 
Q 2884 3475 3122 3366 
z
" id="DejaVuSans-63" transform="scale(0.015625)"/>
      </defs>
      <use xlink:href="#DejaVuSans-53"/>
      <use x="63.476562" xlink:href="#DejaVuSans-75"/>
      <use x="126.855469" xlink:href="#DejaVuSans-72"/>
      <use x="167.96875" xlink:href="#DejaVuSans-66"/>
      <use x="203.173828" xlink:href="#DejaVuSans-61"/>
      <use x="264.453125" xlink:href="#DejaVuSans-63"/>
      <use x="319.433594" xlink:href="#DejaVuSans-65"/>
      <use x="380.957031" xlink:href="#DejaVuSans-20"/>
      <use x="412.744141" xlink:href="#DejaVuSans-54"/>
      <use x="456.828125" xlink:href="#DejaVuSans-6f"/>
      <use x="518.009766" xlink:href="#DejaVuSans-70"/>
      <use x="581.486328" xlink:href="#DejaVuSans-6f"/>
      <use x="642.667969" xlink:href="#DejaVuSans-67"/>
      <use x="706.144531" xlink:href="#DejaVuSans-72"/>
      <use x="747.257812" xlink:href="#DejaVuSans-61"/>
      <use x="808.537109" xlink:href="#DejaVuSans-70"/>
      <use x="872.013672" xlink:href="#DejaVuSans-68"/>
      <use x="935.392578" xlink:href="#DejaVuSans-79"/>
     </g>
    </g>
   </g>
  </g>
  <g id="axes_2">
   <g id="patch_8">
    <path d="M 36 512.64 
L 259.2 512.64 
L 259.2 311.04 
L 36 311.04 
z
" style="fill:#ffffff;"/>
   </g>
   <g id="matplotlib.axis_3">
    <g id="xtick_6">
     <g id="line2d_20">
      <g>
       <use style="stroke:#000000;stroke-width:0.8;" x="46.145455" xlink:href="#m17a460014a" y="512.64"/>
      </g>
     </g>
     <g id="text_19">
      <!-- 0 -->
      <g transform="translate(42.964205 527.238438)scale(0.1 -0.1)">
       <use xlink:href="#DejaVuSans-30"/>
      </g>
     </g>
    </g>
    <g id="xtick_7">
     <g id="line2d_21">
      <g>
       <use style="stroke:#000000;stroke-width:0.8;" x="91.236364" xlink:href="#m17a460014a" y="512.64"/>
      </g>
     </g>
     <g id="text_20">
      <!-- 1 -->
      <g transform="translate(88.055114 527.238438)scale(0.1 -0.1)">
       <use xlink:href="#DejaVuSans-31"/>
      </g>
     </g>
    </g>
    <g id="xtick_8">
     <g id="line2d_22">
      <g>
       <use style="stroke:#000000;stroke-width:0.8;" x="136.327273" xlink:href="#m17a460014a" y="512.64"/>
      </g>
     </g>
     <g id="text_21">
      <!-- 2 -->
      <g transform="translate(133.146023 527.238438)scale(0.1 -0.1)">
       <use xlink:href="#DejaVuSans-32"/>
      </g>
     </g>
    </g>
    <g id="xtick_9">
     <g id="line2d_23">
      <g>
       <use style="stroke:#000000;stroke-width:0.8;" x="181.418182" xlink:href="#m17a460014a" y="512.64"/>
      </g>
     </g>
     <g id="text_22">
      <!-- 3 -->
      <g transform="translate(178.236932 527.238438)scale(0.1 -0.1)">
       <use xlink:href="#DejaVuSans-33"/>
      </g>
     </g>
    </g>
    <g id="xtick_10">
     <g id="line2d_24">
      <g>
       <use style="stroke:#000000;stroke-width:0.8;" x="226.509091" xlink:href="#m17a460014a" y="512.64"/>
      </g>
     </g>
     <g id="text_23">
      <!-- 4 -->
      <g transform="translate(223.327841 527.238438)scale(0.1 -0.1)">
       <use xlink:href="#DejaVuSans-34"/>
      </g>
     </g>
    </g>
    <g id="text_24">
     <!-- 1e6 -->
     <g transform="translate(240.321875 539.916563)scale(0.1 -0.1)">
      <use xlink:href="#DejaVuSans-31"/>
      <use x="63.623047" xlink:href="#DejaVuSans-65"/>
      <use x="125.146484" xlink:href="#DejaVuSans-36"/>
     </g>
    </g>
   </g>
   <g id="matplotlib.axis_4">
    <g id="ytick_9">
     <g id="line2d_25">
      <g>
       <use style="stroke:#000000;stroke-width:0.8;" x="36" xlink:href="#m6745a52cee" y="488.35724"/>
      </g>
     </g>
     <g id="text_25">
      <!-- −200 -->
      <g transform="translate(1.532812 492.156458)scale(0.1 -0.1)">
       <use xlink:href="#DejaVuSans-2212"/>
       <use x="83.789062" xlink:href="#DejaVuSans-32"/>
       <use x="147.412109" xlink:href="#DejaVuSans-30"/>
       <use x="211.035156" xlink:href="#DejaVuSans-30"/>
      </g>
     </g>
    </g>
    <g id="ytick_10">
     <g id="line2d_26">
      <g>
       <use style="stroke:#000000;stroke-width:0.8;" x="36" xlink:href="#m6745a52cee" y="461.976993"/>
      </g>
     </g>
     <g id="text_26">
      <!-- −100 -->
      <g transform="translate(1.532812 465.776211)scale(0.1 -0.1)">
       <use xlink:href="#DejaVuSans-2212"/>
       <use x="83.789062" xlink:href="#DejaVuSans-31"/>
       <use x="147.412109" xlink:href="#DejaVuSans-30"/>
       <use x="211.035156" xlink:href="#DejaVuSans-30"/>
      </g>
     </g>
    </g>
    <g id="ytick_11">
     <g id="line2d_27">
      <g>
       <use style="stroke:#000000;stroke-width:0.8;" x="36" xlink:href="#m6745a52cee" y="435.596746"/>
      </g>
     </g>
     <g id="text_27">
      <!-- 0 -->
      <g transform="translate(22.6375 439.395964)scale(0.1 -0.1)">
       <use xlink:href="#DejaVuSans-30"/>
      </g>
     </g>
    </g>
    <g id="ytick_12">
     <g id="line2d_28">
      <g>
       <use style="stroke:#000000;stroke-width:0.8;" x="36" xlink:href="#m6745a52cee" y="409.216499"/>
      </g>
     </g>
     <g id="text_28">
      <!-- 100 -->
      <g transform="translate(9.9125 413.015717)scale(0.1 -0.1)">
       <use xlink:href="#DejaVuSans-31"/>
       <use x="63.623047" xlink:href="#DejaVuSans-30"/>
       <use x="127.246094" xlink:href="#DejaVuSans-30"/>
      </g>
     </g>
    </g>
    <g id="ytick_13">
     <g id="line2d_29">
      <g>
       <use style="stroke:#000000;stroke-width:0.8;" x="36" xlink:href="#m6745a52cee" y="382.836252"/>
      </g>
     </g>
     <g id="text_29">
      <!-- 200 -->
      <g transform="translate(9.9125 386.63547)scale(0.1 -0.1)">
       <use xlink:href="#DejaVuSans-32"/>
       <use x="63.623047" xlink:href="#DejaVuSans-30"/>
       <use x="127.246094" xlink:href="#DejaVuSans-30"/>
      </g>
     </g>
    </g>
    <g id="ytick_14">
     <g id="line2d_30">
      <g>
       <use style="stroke:#000000;stroke-width:0.8;" x="36" xlink:href="#m6745a52cee" y="356.456005"/>
      </g>
     </g>
     <g id="text_30">
      <!-- 300 -->
      <g transform="translate(9.9125 360.255223)scale(0.1 -0.1)">
       <use xlink:href="#DejaVuSans-33"/>
       <use x="63.623047" xlink:href="#DejaVuSans-30"/>
       <use x="127.246094" xlink:href="#DejaVuSans-30"/>
      </g>
     </g>
    </g>
    <g id="ytick_15">
     <g id="line2d_31">
      <g>
       <use style="stroke:#000000;stroke-width:0.8;" x="36" xlink:href="#m6745a52cee" y="330.075758"/>
      </g>
     </g>
     <g id="text_31">
      <!-- 400 -->
      <g transform="translate(9.9125 333.874976)scale(0.1 -0.1)">
       <use xlink:href="#DejaVuSans-34"/>
       <use x="63.623047" xlink:href="#DejaVuSans-30"/>
       <use x="127.246094" xlink:href="#DejaVuSans-30"/>
      </g>
     </g>
    </g>
    <g id="text_32">
     <!-- Geoid anomaly (m) -->
     <g transform="translate(-4.546875 459.938437)rotate(-90)scale(0.1 -0.1)">
      <defs>
       <path d="M 3809 666 
L 3809 1919 
L 2778 1919 
L 2778 2438 
L 4434 2438 
L 4434 434 
Q 4069 175 3628 42 
Q 3188 -91 2688 -91 
Q 1594 -91 976 548 
Q 359 1188 359 2328 
Q 359 3472 976 4111 
Q 1594 4750 2688 4750 
Q 3144 4750 3555 4637 
Q 3966 4525 4313 4306 
L 4313 3634 
Q 3963 3931 3569 4081 
Q 3175 4231 2741 4231 
Q 1884 4231 1454 3753 
Q 1025 3275 1025 2328 
Q 1025 1384 1454 906 
Q 1884 428 2741 428 
Q 3075 428 3337 486 
Q 3600 544 3809 666 
z
" id="DejaVuSans-47" transform="scale(0.015625)"/>
       <path d="M 603 3500 
L 1178 3500 
L 1178 0 
L 603 0 
L 603 3500 
z
M 603 4863 
L 1178 4863 
L 1178 4134 
L 603 4134 
L 603 4863 
z
" id="DejaVuSans-69" transform="scale(0.015625)"/>
       <path d="M 2906 2969 
L 2906 4863 
L 3481 4863 
L 3481 0 
L 2906 0 
L 2906 525 
Q 2725 213 2448 61 
Q 2172 -91 1784 -91 
Q 1150 -91 751 415 
Q 353 922 353 1747 
Q 353 2572 751 3078 
Q 1150 3584 1784 3584 
Q 2172 3584 2448 3432 
Q 2725 3281 2906 2969 
z
M 947 1747 
Q 947 1113 1208 752 
Q 1469 391 1925 391 
Q 2381 391 2643 752 
Q 2906 1113 2906 1747 
Q 2906 2381 2643 2742 
Q 2381 3103 1925 3103 
Q 1469 3103 1208 2742 
Q 947 2381 947 1747 
z
" id="DejaVuSans-64" transform="scale(0.015625)"/>
       <path d="M 3513 2113 
L 3513 0 
L 2938 0 
L 2938 2094 
Q 2938 2591 2744 2837 
Q 2550 3084 2163 3084 
Q 1697 3084 1428 2787 
Q 1159 2491 1159 1978 
L 1159 0 
L 581 0 
L 581 3500 
L 1159 3500 
L 1159 2956 
Q 1366 3272 1645 3428 
Q 1925 3584 2291 3584 
Q 2894 3584 3203 3211 
Q 3513 2838 3513 2113 
z
" id="DejaVuSans-6e" transform="scale(0.015625)"/>
       <path d="M 603 4863 
L 1178 4863 
L 1178 0 
L 603 0 
L 603 4863 
z
" id="DejaVuSans-6c" transform="scale(0.015625)"/>
      </defs>
      <use xlink:href="#DejaVuSans-47"/>
      <use x="77.490234" xlink:href="#DejaVuSans-65"/>
      <use x="139.013672" xlink:href="#DejaVuSans-6f"/>
      <use x="200.195312" xlink:href="#DejaVuSans-69"/>
      <use x="227.978516" xlink:href="#DejaVuSans-64"/>
      <use x="291.455078" xlink:href="#DejaVuSans-20"/>
      <use x="323.242188" xlink:href="#DejaVuSans-61"/>
      <use x="384.521484" xlink:href="#DejaVuSans-6e"/>
      <use x="447.900391" xlink:href="#DejaVuSans-6f"/>
      <use x="509.082031" xlink:href="#DejaVuSans-6d"/>
      <use x="606.494141" xlink:href="#DejaVuSans-61"/>
      <use x="667.773438" xlink:href="#DejaVuSans-6c"/>
      <use x="695.556641" xlink:href="#DejaVuSans-79"/>
      <use x="754.736328" xlink:href="#DejaVuSans-20"/>
      <use x="786.523438" xlink:href="#DejaVuSans-28"/>
      <use x="825.537109" xlink:href="#DejaVuSans-6d"/>
      <use x="922.949219" xlink:href="#DejaVuSans-29"/>
     </g>
    </g>
   </g>
   <g id="line2d_32">
    <path clip-path="url(#pd9c2c2c14c)" d="M 46.145455 414.345049 
L 48.655398 412.653257 
L 53.939489 408.824654 
L 60.544602 403.762921 
L 67.678125 398.014428 
L 75.075852 391.765449 
L 82.47358 385.224976 
L 89.739205 378.507715 
L 89.739205 378.507715 
L 96.872727 371.614873 
L 96.872727 371.614873 
L 103.874148 364.545009 
L 110.875568 357.15609 
L 110.875568 357.15609 
L 118.141193 349.154306 
L 133.06875 332.565968 
L 133.06875 332.565968 
L 135.975 329.769789 
L 135.975 329.769789 
L 138.352841 327.774706 
L 138.352841 327.774706 
L 140.334375 326.380619 
L 142.051705 325.416584 
L 142.051705 325.416584 
L 143.636932 324.767193 
L 143.636932 324.767193 
L 145.090057 324.410886 
L 146.41108 324.31798 
L 147.6 324.447971 
L 147.6 324.447971 
L 148.78892 324.798038 
L 149.977841 325.371567 
L 149.977841 325.371567 
L 151.430966 326.345505 
L 153.4125 327.989752 
L 153.4125 327.989752 
L 155.394034 329.581139 
L 157.903977 331.164143 
L 157.903977 331.164143 
L 159.621307 332.377883 
L 163.452273 335.468088 
L 163.452273 335.468088 
L 179.436648 348.809306 
L 199.648295 365.86091 
L 199.648295 365.86091 
L 216.557386 380.438273 
L 216.557386 380.438273 
L 241.78892 402.23486 
L 245.091477 404.987757 
L 247.997727 407.719402 
L 247.997727 407.719402 
L 249.054545 408.645183 
L 249.054545 408.645183 
" style="fill:none;stroke:#1f77b4;stroke-linecap:square;stroke-width:1.5;"/>
   </g>
   <g id="line2d_33">
    <path clip-path="url(#pd9c2c2c14c)" d="M 46.145455 410.009516 
L 46.541761 409.22458 
L 47.334375 408.280145 
L 48.391193 407.429774 
L 49.580114 406.766621 
L 49.580114 406.766621 
L 51.033239 406.225933 
L 52.618466 405.877718 
L 54.467898 405.70535 
L 56.449432 405.745996 
L 56.449432 405.745996 
L 58.69517 406.026579 
L 61.205114 406.576753 
L 61.205114 406.576753 
L 63.979261 407.427036 
L 66.885511 408.556149 
L 70.055966 410.035682 
L 73.490625 411.893506 
L 77.057386 414.07412 
L 77.057386 414.07412 
L 80.75625 416.596078 
L 80.75625 416.596078 
L 84.587216 419.481286 
L 88.550284 422.745704 
L 92.909659 426.632005 
L 92.909659 426.632005 
L 97.00483 430.57445 
L 101.232102 434.962857 
L 105.855682 440.09619 
L 105.855682 440.09619 
L 110.611364 445.721233 
L 110.611364 445.721233 
L 115.63125 451.996458 
L 115.63125 451.996458 
L 120.519034 458.469981 
L 125.671023 465.6738 
L 125.671023 465.6738 
L 130.426705 472.680597 
L 130.426705 472.680597 
L 140.730682 488.5266 
L 140.730682 488.5266 
L 142.051705 491.114323 
L 142.051705 491.114323 
L 143.372727 494.185728 
L 143.372727 494.185728 
L 146.675284 502.243002 
L 147.335795 503.147013 
L 147.335795 503.147013 
L 147.732102 503.423587 
L 148.128409 503.45973 
L 148.128409 503.45973 
L 148.524716 503.224801 
L 148.921023 502.692662 
L 148.921023 502.692662 
L 149.449432 501.48793 
L 149.449432 501.48793 
L 149.977841 499.698587 
L 149.977841 499.698587 
L 150.638352 496.665939 
L 151.563068 491.206645 
L 151.563068 491.206645 
L 153.4125 479.760529 
L 153.4125 479.760529 
L 153.808807 478.248475 
L 154.073011 477.801 
L 154.337216 477.788696 
L 154.60142 478.118135 
L 154.997727 479.104536 
L 154.997727 479.104536 
L 155.526136 481.137143 
L 155.526136 481.137143 
L 157.50767 489.65005 
L 157.903977 490.593528 
L 157.903977 490.593528 
L 158.168182 490.89073 
L 158.168182 490.89073 
L 158.432386 490.911837 
L 158.432386 490.911837 
L 158.696591 490.669026 
L 158.696591 490.669026 
L 159.092898 489.848487 
L 159.621307 488.030164 
L 160.41392 484.201131 
L 163.452273 468.042846 
L 163.452273 468.042846 
L 164.376989 464.792893 
L 165.169602 462.814598 
L 165.962216 461.473792 
L 166.75483 460.621701 
L 167.547443 460.098022 
L 168.736364 459.610269 
L 168.736364 459.610269 
L 170.453693 458.891783 
L 171.642614 458.129007 
L 171.642614 458.129007 
L 172.963636 456.988524 
L 172.963636 456.988524 
L 174.813068 455.045601 
L 174.813068 455.045601 
L 179.040341 450.51694 
L 179.040341 450.51694 
L 181.946591 447.821785 
L 181.946591 447.821785 
L 188.023295 442.592142 
L 188.023295 442.592142 
L 194.364205 437.384247 
L 194.364205 437.384247 
L 200.440909 432.666976 
L 200.440909 432.666976 
L 206.385511 428.353863 
L 212.72642 423.996693 
L 217.35 421.105222 
L 217.35 421.105222 
L 223.030398 417.815168 
L 226.465057 416.08581 
L 230.824432 414.171742 
L 230.824432 414.171742 
L 233.730682 413.09304 
L 233.730682 413.09304 
L 236.108523 412.458179 
L 236.108523 412.458179 
L 239.014773 411.933421 
L 239.014773 411.933421 
L 240.996307 411.756919 
L 242.185227 411.843569 
L 242.185227 411.843569 
L 243.242045 412.164315 
L 243.242045 412.164315 
L 244.827273 412.683552 
L 244.827273 412.683552 
L 246.676705 412.993182 
L 246.676705 412.993182 
L 247.733523 413.562057 
L 247.733523 413.562057 
L 248.526136 414.262435 
L 248.526136 414.262435 
L 248.922443 414.821206 
L 249.054545 415.122752 
L 249.054545 415.122752 
" style="fill:none;stroke:#ff7f0e;stroke-linecap:square;stroke-width:1.5;"/>
   </g>
   <g id="line2d_34">
    <path clip-path="url(#pd9c2c2c14c)" d="M 46.145455 390.299219 
L 110.479261 392.297937 
L 133.993466 392.770645 
L 154.865625 392.969996 
L 175.209375 392.940639 
L 196.345739 392.684229 
L 220.124148 392.166641 
L 249.054545 391.322378 
L 249.054545 391.322378 
" style="fill:none;stroke:#2ca02c;stroke-linecap:square;stroke-width:1.5;"/>
   </g>
   <g id="line2d_35">
    <path clip-path="url(#pd9c2c2c14c)" d="M 46.145455 343.460292 
L 46.673864 342.164481 
L 46.673864 342.164481 
L 47.59858 340.573387 
L 48.919602 338.770375 
L 50.50483 336.984383 
L 52.354261 335.228876 
L 54.6 333.416645 
L 54.6 333.416645 
L 56.977841 331.784559 
L 56.977841 331.784559 
L 59.619886 330.241646 
L 59.619886 330.241646 
L 62.658239 328.734046 
L 65.828693 327.407853 
L 69.263352 326.214537 
L 72.962216 325.164846 
L 76.925284 324.268805 
L 81.020455 323.572988 
L 81.020455 323.572988 
L 85.247727 323.088207 
L 85.247727 323.088207 
L 89.607102 322.815483 
L 94.362784 322.735724 
L 98.722159 322.88737 
L 98.722159 322.88737 
L 103.477841 323.290215 
L 103.477841 323.290215 
L 108.365625 323.918889 
L 114.310227 324.919609 
L 114.310227 324.919609 
L 119.330114 325.987548 
L 119.330114 325.987548 
L 123.689489 327.135925 
L 127.388352 328.317059 
L 130.1625 329.423193 
L 130.1625 329.423193 
L 132.804545 330.724274 
L 132.804545 330.724274 
L 136.107102 332.62721 
L 138.484943 334.208893 
L 139.805966 335.329919 
L 140.862784 336.491069 
L 141.919602 337.995474 
L 142.97642 339.91214 
L 144.297443 342.852868 
L 146.675284 348.296982 
L 147.335795 349.278369 
L 147.335795 349.278369 
L 147.864205 349.70531 
L 147.864205 349.70531 
L 148.260511 349.765653 
L 148.656818 349.570611 
L 148.656818 349.570611 
L 149.053125 349.095972 
L 149.581534 347.999377 
L 150.109943 346.360338 
L 150.770455 343.587307 
L 150.770455 343.587307 
L 151.69517 338.65843 
L 153.280398 330.057934 
L 153.808807 328.352002 
L 154.073011 328.130468 
L 154.337216 328.340114 
L 154.733523 329.260118 
L 154.733523 329.260118 
L 155.261932 331.303214 
L 155.261932 331.303214 
L 156.31875 336.804059 
L 156.31875 336.804059 
L 157.243466 341.333331 
L 157.903977 343.543967 
L 157.903977 343.543967 
L 158.300284 344.14323 
L 158.564489 344.210103 
L 158.828693 344.027723 
L 159.225 343.330466 
L 159.225 343.330466 
L 159.753409 341.738778 
L 159.753409 341.738778 
L 160.546023 338.372424 
L 160.546023 338.372424 
L 163.188068 326.206091 
L 163.188068 326.206091 
L 163.980682 323.752445 
L 163.980682 323.752445 
L 164.641193 322.297286 
L 165.301705 321.340771 
L 165.301705 321.340771 
L 165.962216 320.812551 
L 166.622727 320.624393 
L 166.622727 320.624393 
L 167.283239 320.682777 
L 168.207955 321.010939 
L 168.207955 321.010939 
L 170.717898 322.038745 
L 171.774716 322.200151 
L 172.963636 322.147929 
L 172.963636 322.147929 
L 174.416761 321.846724 
L 179.172443 320.691614 
L 181.550284 320.445918 
L 185.909659 320.267966 
L 185.909659 320.267966 
L 191.722159 320.214609 
L 191.722159 320.214609 
L 197.270455 320.399135 
L 197.270455 320.399135 
L 202.026136 320.770679 
L 202.026136 320.770679 
L 207.574432 321.446672 
L 207.574432 321.446672 
L 212.594318 322.240592 
L 212.594318 322.240592 
L 216.821591 323.149304 
L 216.821591 323.149304 
L 222.237784 324.55329 
L 225.540341 325.621345 
L 225.540341 325.621345 
L 229.371307 327.113597 
L 233.07017 328.750674 
L 235.580114 330.115521 
L 235.580114 330.115521 
L 238.750568 332.130229 
L 238.750568 332.130229 
L 241.260511 333.937529 
L 242.713636 335.253285 
L 242.713636 335.253285 
L 244.298864 337.08422 
L 244.298864 337.08422 
L 247.60142 341.012977 
L 248.526136 342.596015 
L 248.526136 342.596015 
L 249.054545 343.896822 
L 249.054545 343.896822 
" style="fill:none;stroke:#000000;stroke-linecap:square;stroke-width:1.5;"/>
   </g>
   <g id="patch_9">
    <path d="M 36 512.64 
L 36 311.04 
" style="fill:none;stroke:#000000;stroke-linecap:square;stroke-linejoin:miter;stroke-width:0.8;"/>
   </g>
   <g id="patch_10">
    <path d="M 259.2 512.64 
L 259.2 311.04 
" style="fill:none;stroke:#000000;stroke-linecap:square;stroke-linejoin:miter;stroke-width:0.8;"/>
   </g>
   <g id="patch_11">
    <path d="M 36 512.64 
L 259.2 512.64 
" style="fill:none;stroke:#000000;stroke-linecap:square;stroke-linejoin:miter;stroke-width:0.8;"/>
   </g>
   <g id="patch_12">
    <path d="M 36 311.04 
L 259.2 311.04 
" style="fill:none;stroke:#000000;stroke-linecap:square;stroke-linejoin:miter;stroke-width:0.8;"/>
   </g>
   <g id="text_33">
    <!-- Geoid -->
    <g transform="translate(130.111875 305.04)scale(0.12 -0.12)">
     <use xlink:href="#DejaVuSans-47"/>
     <use x="77.490234" xlink:href="#DejaVuSans-65"/>
     <use x="139.013672" xlink:href="#DejaVuSans-6f"/>
     <use x="200.195312" xlink:href="#DejaVuSans-69"/>
     <use x="227.978516" xlink:href="#DejaVuSans-64"/>
    </g>
   </g>
   <g id="legend_2">
    <g id="patch_13">
     <path d="M 183.242188 507.64 
L 252.2 507.64 
Q 254.2 507.64 254.2 505.64 
L 254.2 447.9275 
Q 254.2 445.9275 252.2 445.9275 
L 183.242188 445.9275 
Q 181.242188 445.9275 181.242188 447.9275 
L 181.242188 505.64 
Q 181.242188 507.64 183.242188 507.64 
z
" style="fill:#ffffff;opacity:0.8;stroke:#cccccc;stroke-linejoin:miter;"/>
    </g>
    <g id="line2d_36">
     <path d="M 185.242188 454.025937 
L 205.242188 454.025937 
" style="fill:none;stroke:#1f77b4;stroke-linecap:square;stroke-width:1.5;"/>
    </g>
    <g id="line2d_37"/>
    <g id="text_34">
     <!-- interior -->
     <g transform="translate(213.242188 457.525937)scale(0.1 -0.1)">
      <defs>
       <path d="M 1172 4494 
L 1172 3500 
L 2356 3500 
L 2356 3053 
L 1172 3053 
L 1172 1153 
Q 1172 725 1289 603 
Q 1406 481 1766 481 
L 2356 481 
L 2356 0 
L 1766 0 
Q 1100 0 847 248 
Q 594 497 594 1153 
L 594 3053 
L 172 3053 
L 172 3500 
L 594 3500 
L 594 4494 
L 1172 4494 
z
" id="DejaVuSans-74" transform="scale(0.015625)"/>
      </defs>
      <use xlink:href="#DejaVuSans-69"/>
      <use x="27.783203" xlink:href="#DejaVuSans-6e"/>
      <use x="91.162109" xlink:href="#DejaVuSans-74"/>
      <use x="130.371094" xlink:href="#DejaVuSans-65"/>
      <use x="191.894531" xlink:href="#DejaVuSans-72"/>
      <use x="233.007812" xlink:href="#DejaVuSans-69"/>
      <use x="260.791016" xlink:href="#DejaVuSans-6f"/>
      <use x="321.972656" xlink:href="#DejaVuSans-72"/>
     </g>
    </g>
    <g id="line2d_38">
     <path d="M 185.242188 468.704063 
L 205.242188 468.704063 
" style="fill:none;stroke:#ff7f0e;stroke-linecap:square;stroke-width:1.5;"/>
    </g>
    <g id="line2d_39"/>
    <g id="text_35">
     <!-- surface -->
     <g transform="translate(213.242188 472.204063)scale(0.1 -0.1)">
      <defs>
       <path d="M 2834 3397 
L 2834 2853 
Q 2591 2978 2328 3040 
Q 2066 3103 1784 3103 
Q 1356 3103 1142 2972 
Q 928 2841 928 2578 
Q 928 2378 1081 2264 
Q 1234 2150 1697 2047 
L 1894 2003 
Q 2506 1872 2764 1633 
Q 3022 1394 3022 966 
Q 3022 478 2636 193 
Q 2250 -91 1575 -91 
Q 1294 -91 989 -36 
Q 684 19 347 128 
L 347 722 
Q 666 556 975 473 
Q 1284 391 1588 391 
Q 1994 391 2212 530 
Q 2431 669 2431 922 
Q 2431 1156 2273 1281 
Q 2116 1406 1581 1522 
L 1381 1569 
Q 847 1681 609 1914 
Q 372 2147 372 2553 
Q 372 3047 722 3315 
Q 1072 3584 1716 3584 
Q 2034 3584 2315 3537 
Q 2597 3491 2834 3397 
z
" id="DejaVuSans-73" transform="scale(0.015625)"/>
      </defs>
      <use xlink:href="#DejaVuSans-73"/>
      <use x="52.099609" xlink:href="#DejaVuSans-75"/>
      <use x="115.478516" xlink:href="#DejaVuSans-72"/>
      <use x="156.591797" xlink:href="#DejaVuSans-66"/>
      <use x="191.796875" xlink:href="#DejaVuSans-61"/>
      <use x="253.076172" xlink:href="#DejaVuSans-63"/>
      <use x="308.056641" xlink:href="#DejaVuSans-65"/>
     </g>
    </g>
    <g id="line2d_40">
     <path d="M 185.242188 483.382187 
L 205.242188 483.382187 
" style="fill:none;stroke:#2ca02c;stroke-linecap:square;stroke-width:1.5;"/>
    </g>
    <g id="line2d_41"/>
    <g id="text_36">
     <!-- cmb -->
     <g transform="translate(213.242188 486.882187)scale(0.1 -0.1)">
      <defs>
       <path d="M 3116 1747 
Q 3116 2381 2855 2742 
Q 2594 3103 2138 3103 
Q 1681 3103 1420 2742 
Q 1159 2381 1159 1747 
Q 1159 1113 1420 752 
Q 1681 391 2138 391 
Q 2594 391 2855 752 
Q 3116 1113 3116 1747 
z
M 1159 2969 
Q 1341 3281 1617 3432 
Q 1894 3584 2278 3584 
Q 2916 3584 3314 3078 
Q 3713 2572 3713 1747 
Q 3713 922 3314 415 
Q 2916 -91 2278 -91 
Q 1894 -91 1617 61 
Q 1341 213 1159 525 
L 1159 0 
L 581 0 
L 581 4863 
L 1159 4863 
L 1159 2969 
z
" id="DejaVuSans-62" transform="scale(0.015625)"/>
      </defs>
      <use xlink:href="#DejaVuSans-63"/>
      <use x="54.980469" xlink:href="#DejaVuSans-6d"/>
      <use x="152.392578" xlink:href="#DejaVuSans-62"/>
     </g>
    </g>
    <g id="line2d_42">
     <path d="M 185.242188 498.060313 
L 205.242188 498.060313 
" style="fill:none;stroke:#000000;stroke-linecap:square;stroke-width:1.5;"/>
    </g>
    <g id="line2d_43"/>
    <g id="text_37">
     <!-- Total -->
     <g transform="translate(213.242188 501.560313)scale(0.1 -0.1)">
      <use xlink:href="#DejaVuSans-54"/>
      <use x="44.083984" xlink:href="#DejaVuSans-6f"/>
      <use x="105.265625" xlink:href="#DejaVuSans-74"/>
      <use x="144.474609" xlink:href="#DejaVuSans-61"/>
      <use x="205.753906" xlink:href="#DejaVuSans-6c"/>
     </g>
    </g>
   </g>
  </g>
 </g>
 <defs>
  <clipPath id="p586a9f7e57">
   <rect height="201.6" width="223.2" x="36" y="69.12"/>
  </clipPath>
  <clipPath id="pd9c2c2c14c">
   <rect height="201.6" width="223.2" x="36" y="311.04"/>
  </clipPath>
 </defs>
</svg>
